<svg width="40" height="40" viewBox="0 0 40 40" fill="none" xmlns="http://www.w3.org/2000/svg">
<path fill-rule="evenodd" clip-rule="evenodd" d="M3.75 7.5C3.75 5.42893 5.42893 3.75 7.5 3.75H32.5C34.5711 3.75 36.25 5.42893 36.25 7.5V32.5C36.25 34.5711 34.5711 36.25 32.5 36.25H7.5C5.42893 36.25 3.75 34.5711 3.75 32.5V7.5Z" fill="#FFD46D"/>
<path d="M18.1421 11.2585C18.0398 11.058 17.8106 10.9572 17.5937 11.0172C16.1838 11.4075 14.9134 12.132 13.873 13.0994C13.7197 13.2419 13.6781 13.4681 13.7707 13.6557C13.9073 13.9328 13.9842 14.2447 13.9842 14.576C13.9842 15.7266 13.052 16.6594 11.9016 16.6602L11.8675 16.66C11.6593 16.6585 11.4746 16.7931 11.4122 16.9917C11.1443 17.8447 11 18.7519 11 19.6918C11 20.3123 11.0629 20.9185 11.1827 21.5044C11.2313 21.7421 11.4516 21.9046 11.6931 21.8809C11.7611 21.8742 11.8302 21.8708 11.9 21.8708C13.0511 21.8708 13.9842 22.8039 13.9842 23.955C13.9842 24.4671 13.8001 24.9351 13.4938 25.298C13.3374 25.4835 13.3463 25.7571 13.5146 25.932C14.577 27.0359 15.9192 27.8696 17.4279 28.3188C17.6751 28.3924 17.9358 28.2547 18.0143 28.009C18.2332 27.3242 18.7966 26.7938 19.5 26.6206V23.1139C17.827 22.8718 16.5417 21.4319 16.5417 19.6918C16.5417 17.7821 18.0899 16.2339 19.9996 16.2339C21.9094 16.2339 23.4575 17.7821 23.4575 19.6918C23.4575 20.2414 23.3293 20.7611 23.1012 21.2225H28.8703C28.9556 20.7247 29 20.2133 29 19.6918C29 18.7518 28.8557 17.8447 28.5878 16.9917C28.5254 16.7931 28.3407 16.6585 28.1325 16.66L28.1 16.6602L28.0984 16.6602C26.9481 16.6594 26.0158 15.7266 26.0158 14.576C26.0158 14.2447 26.0927 13.9328 26.2293 13.6557C26.3218 13.4681 26.2803 13.2419 26.127 13.0994C25.0866 12.132 23.8162 11.4075 22.4063 11.0172C22.1894 10.9572 21.9602 11.058 21.8579 11.2585C21.5127 11.9353 20.8098 12.3971 20 12.3971C19.1902 12.3971 18.4873 11.9353 18.1421 11.2585Z" fill="white"/>
<path d="M20.5 23.1701C20.5 22.7283 20.8582 22.3701 21.3 22.3701H28.2333C28.6752 22.3701 29.0333 22.7283 29.0333 23.1701C29.0333 23.6119 28.6752 23.9701 28.2333 23.9701H21.3C20.8582 23.9701 20.5 23.6119 20.5 23.1701Z" fill="white"/>
<path d="M20.5 25.57C20.5 25.1282 20.8582 24.77 21.3 24.77H28.2333C28.6752 24.77 29.0333 25.1282 29.0333 25.57C29.0333 26.0118 28.6752 26.37 28.2333 26.37H21.3C20.8582 26.37 20.5 26.0118 20.5 25.57Z" fill="white"/>
<path d="M20.5 27.9699C20.5 27.5281 20.8582 27.1699 21.3 27.1699H28.2333C28.6752 27.1699 29.0333 27.5281 29.0333 27.9699C29.0333 28.4117 28.6752 28.7699 28.2333 28.7699H21.3C20.8582 28.7699 20.5 28.4117 20.5 27.9699Z" fill="white"/>
</svg>
