<svg width="24" height="24" viewBox="0 0 24 24" fill="none" xmlns="http://www.w3.org/2000/svg">
<path d="M4.85 7H2.15C2.06716 7 2 7.27982 2 7.625V16.375C2 16.7202 2.06716 17 2.15 17H4.85C4.93285 17 5 16.7202 5 16.375V7.625C5 7.27982 4.93285 7 4.85 7Z" fill="#60666B" stroke="#60666B" stroke-linejoin="round"/>
<path d="M21 7H3C2.44771 7 2 7.27982 2 7.625V16.375C2 16.7202 2.44771 17 3 17H21C21.5523 17 22 16.7202 22 16.375V7.625C22 7.27982 21.5523 7 21 7Z" stroke="#60666B" stroke-linejoin="round"/>
<path d="M3.5 13.5V10" stroke="white" stroke-linecap="round" stroke-linejoin="round"/>
</svg>
