<svg width="24" height="24" viewBox="0 0 24 24" fill="none" xmlns="http://www.w3.org/2000/svg">
<path d="M17 4.85V2.15C17 2.06716 16.7202 2 16.375 2L7.625 2C7.27981 2 7 2.06716 7 2.15V4.85C7 4.93285 7.27981 5 7.625 5H16.375C16.7202 5 17 4.93285 17 4.85Z" fill="#60666B" stroke="#60666B" stroke-linejoin="round"/>
<path d="M17 21V3C17 2.44771 16.7202 2 16.375 2L7.625 2C7.27981 2 7 2.44771 7 3L7 21C7 21.5523 7.27981 22 7.625 22H16.375C16.7202 22 17 21.5523 17 21Z" stroke="#60666B" stroke-linejoin="round"/>
<path d="M10.5 3.5H14" stroke="white" stroke-linecap="round" stroke-linejoin="round"/>
</svg>
