<svg width="40" height="40" viewBox="0 0 40 40" fill="none" xmlns="http://www.w3.org/2000/svg">
<g clip-path="url(#clip0_3520_830)">
<path opacity="0.2" d="M0 20C0 25.3043 2.10714 30.3914 5.85786 34.1421C9.60859 37.8929 14.6957 40 20 40C25.3043 40 30.3914 37.8929 34.1421 34.1421C37.8929 30.3914 40 25.3043 40 20C40 14.6957 37.8929 9.60859 34.1421 5.85786C30.3914 2.10714 25.3043 0 20 0C14.6957 0 9.60859 2.10714 5.85786 5.85786C2.10714 9.60859 0 14.6957 0 20Z" fill="#1983FF"/>
<path d="M4 20C4 24.2435 5.68571 28.3131 8.68629 31.3137C11.6869 34.3143 15.7565 36 20 36C24.2435 36 28.3131 34.3143 31.3137 31.3137C34.3143 28.3131 36 24.2435 36 20C36 15.7565 34.3143 11.6869 31.3137 8.68629C28.3131 5.68571 24.2435 4 20 4C15.7565 4 11.6869 5.68571 8.68629 8.68629C5.68571 11.6869 4 15.7565 4 20Z" fill="#1983FF"/>
<path d="M1.9533e-08 2.93334C-3.54447e-05 3.1785 0.0482211 3.42126 0.142014 3.64777C0.235807 3.87427 0.373299 4.08009 0.546639 4.25345C0.719978 4.42681 0.92577 4.56434 1.15226 4.65816C1.37875 4.75199 1.62151 4.80028 1.86667 4.80028C2.11182 4.80028 2.35458 4.75199 2.58107 4.65816C2.80756 4.56434 3.01335 4.42681 3.18669 4.25345C3.36003 4.08009 3.49753 3.87427 3.59132 3.64777C3.68511 3.42126 3.73337 3.1785 3.73333 2.93334C3.73337 2.68819 3.68511 2.44542 3.59132 2.21892C3.49753 1.99241 3.36003 1.7866 3.18669 1.61324C3.01335 1.43987 2.80756 1.30235 2.58107 1.20852C2.35458 1.1147 2.11182 1.06641 1.86667 1.06641C1.62151 1.06641 1.37875 1.1147 1.15226 1.20852C0.92577 1.30235 0.719978 1.43987 0.546639 1.61324C0.373299 1.7866 0.235807 1.99241 0.142014 2.21892C0.0482211 2.44542 -3.54447e-05 2.68819 1.9533e-08 2.93334Z" fill="#1983FF"/>
<path d="M38.3999 36C38.3999 36.2121 38.4842 36.4156 38.6342 36.5656C38.7842 36.7157 38.9877 36.8 39.1999 36.8C39.4121 36.8 39.6156 36.7157 39.7656 36.5656C39.9156 36.4156 39.9999 36.2121 39.9999 36C39.9999 35.7878 39.9156 35.5843 39.7656 35.4343C39.6156 35.2842 39.4121 35.2 39.1999 35.2C38.9877 35.2 38.7842 35.2842 38.6342 35.4343C38.4842 35.5843 38.3999 35.7878 38.3999 36Z" fill="#1983FF"/>
<path d="M10 18.8903H30V19H10V18.8903ZM10 9H30V18.8903H10V9Z" fill="white"/>
<path d="M26.9336 12.2614H13.0669V19.1947H16.1336V14.3947H18.5336V19.1947H21.4669V14.3947H23.8669V19.1947H26.9336V12.2614Z" fill="#FF9600"/>
<path d="M8.2666 17.8907V17.8667L8.28527 23.9387C8.28603 24.1135 8.32972 24.2853 8.41248 24.4393C8.49525 24.5932 8.61456 24.7244 8.75993 24.8214L12.8319 27.536C12.9777 27.6333 13.0972 27.7649 13.18 27.9193C13.2628 28.0737 13.3063 28.2462 13.3066 28.4214V30.1334C13.3066 30.4163 13.419 30.6876 13.619 30.8876C13.8191 31.0877 14.0904 31.2 14.3733 31.2H25.6266C25.9095 31.2 26.1808 31.0877 26.3808 30.8876C26.5809 30.6876 26.6933 30.4163 26.6933 30.1334V28.424C26.6936 28.2488 26.7371 28.0764 26.8199 27.922C26.9026 27.7676 27.0222 27.6359 27.1679 27.5387L31.2399 24.824C31.3853 24.727 31.5046 24.5958 31.5874 24.4419C31.6702 24.288 31.7138 24.1161 31.7146 23.9414L31.7333 17.8667V17.8854L8.2666 17.8907Z" fill="#70B2FF"/>
</g>
<defs>
<clipPath id="clip0_3520_830">
<rect width="40" height="40" fill="white"/>
</clipPath>
</defs>
</svg>
