<svg width="40" height="40" viewBox="0 0 40 40" fill="none" xmlns="http://www.w3.org/2000/svg">
<g clip-path="url(#clip0_3520_871)">
<path opacity="0.2" d="M0 20C0 25.3043 2.10714 30.3914 5.85786 34.1421C9.60859 37.8929 14.6957 40 20 40C25.3043 40 30.3914 37.8929 34.1421 34.1421C37.8929 30.3914 40 25.3043 40 20C40 14.6957 37.8929 9.60859 34.1421 5.85786C30.3914 2.10714 25.3043 0 20 0C14.6957 0 9.60859 2.10714 5.85786 5.85786C2.10714 9.60859 0 14.6957 0 20Z" fill="#1983FF"/>
<path d="M4 20C4 24.2435 5.68571 28.3131 8.68629 31.3137C11.6869 34.3143 15.7565 36 20 36C24.2435 36 28.3131 34.3143 31.3137 31.3137C34.3143 28.3131 36 24.2435 36 20C36 15.7565 34.3143 11.6869 31.3137 8.68629C28.3131 5.68571 24.2435 4 20 4C15.7565 4 11.6869 5.68571 8.68629 8.68629C5.68571 11.6869 4 15.7565 4 20Z" fill="#1983FF"/>
<path d="M1.9533e-08 2.93334C-3.54447e-05 3.1785 0.0482211 3.42126 0.142014 3.64777C0.235807 3.87427 0.373299 4.08009 0.546639 4.25345C0.719978 4.42681 0.92577 4.56434 1.15226 4.65816C1.37875 4.75199 1.62151 4.80028 1.86667 4.80028C2.11182 4.80028 2.35458 4.75199 2.58107 4.65816C2.80756 4.56434 3.01335 4.42681 3.18669 4.25345C3.36003 4.08009 3.49753 3.87427 3.59132 3.64777C3.68511 3.42126 3.73337 3.1785 3.73333 2.93334C3.73337 2.68819 3.68511 2.44542 3.59132 2.21892C3.49753 1.99241 3.36003 1.7866 3.18669 1.61324C3.01335 1.43987 2.80756 1.30235 2.58107 1.20852C2.35458 1.1147 2.11182 1.06641 1.86667 1.06641C1.62151 1.06641 1.37875 1.1147 1.15226 1.20852C0.92577 1.30235 0.719978 1.43987 0.546639 1.61324C0.373299 1.7866 0.235807 1.99241 0.142014 2.21892C0.0482211 2.44542 -3.54447e-05 2.68819 1.9533e-08 2.93334Z" fill="#1983FF"/>
<path d="M38.3999 36C38.3999 36.2121 38.4842 36.4156 38.6342 36.5656C38.7842 36.7157 38.9877 36.8 39.1999 36.8C39.4121 36.8 39.6156 36.7157 39.7656 36.5656C39.9156 36.4156 39.9999 36.2121 39.9999 36C39.9999 35.7878 39.9156 35.5843 39.7656 35.4343C39.6156 35.2842 39.4121 35.2 39.1999 35.2C38.9877 35.2 38.7842 35.2842 38.6342 35.4343C38.4842 35.5843 38.3999 35.7878 38.3999 36Z" fill="#1983FF"/>
<path d="M6.21063 15.832L6.1333 15.888L11.3733 32.0134L20.1173 20.8667L6.21063 15.832ZM33.8666 15.888L20.1173 20.8667L28.4933 32.1867H28.5706L33.8666 15.888Z" fill="#70B2FF"/>
<path d="M20.1172 5.896V20.8667L33.8665 15.888L20.1172 5.896Z" fill="white"/>
<path d="M20.1171 5.89602L19.9998 5.81335L6.21045 15.832L20.1171 20.8667V5.89602ZM11.3731 32.0134L11.4291 32.1867H28.4931L20.1171 20.8667L11.3731 32.0134Z" fill="#5BA1F4"/>
<path d="M20.0878 9.73063L19.9998 9.66663L9.68246 17.1626L9.62646 17.2053L13.5465 29.2693L13.5891 29.4H26.4105L30.3731 17.2053L20.0878 9.73063Z" fill="white"/>
<path d="M26.5092 29.5333H13.4906L9.46924 17.152L9.60524 17.056L19.9999 9.50134L30.5279 17.152L30.5012 17.2427L26.5092 29.5333ZM13.6852 29.2667H26.3146L30.2186 17.2667L19.9999 9.83201L9.78124 17.256L13.6852 29.2667Z" fill="#5BA1F4"/>
<path d="M23.9067 24.488C23.8171 24.4879 23.7278 24.4968 23.64 24.5146L21.8667 21.9013C22.1359 21.5079 22.2626 21.0342 22.2257 20.5589C22.1889 20.0836 21.9907 19.6352 21.664 19.288C21.6958 19.2579 21.7236 19.2238 21.7467 19.1866L23.4667 16.3333C23.4971 16.2844 23.5179 16.2301 23.528 16.1733H23.5467C23.8806 16.197 24.2123 16.1034 24.4846 15.9087C24.7569 15.7139 24.9526 15.4302 25.0381 15.1066C25.1236 14.7829 25.0934 14.4395 24.9528 14.1358C24.8121 13.832 24.5699 13.5868 24.2678 13.4425C23.9657 13.2983 23.6227 13.264 23.2981 13.3456C22.9734 13.4272 22.6874 13.6196 22.4894 13.8895C22.2914 14.1594 22.1939 14.49 22.2136 14.8242C22.2333 15.1584 22.369 15.4752 22.5973 15.72C22.5973 15.7413 22.568 15.7573 22.5547 15.7786L20.8373 18.6373C20.8214 18.6678 20.8088 18.7 20.8 18.7333C20.5197 18.6445 20.2237 18.6163 19.9316 18.6505C19.6395 18.6848 19.3581 18.7808 19.1059 18.9321C18.8538 19.0833 18.6366 19.2865 18.469 19.5281C18.3013 19.7697 18.1869 20.0442 18.1333 20.3333C18.0952 20.3292 18.0568 20.3292 18.0187 20.3333L14.7733 20.4933C14.6572 20.1816 14.4361 19.9201 14.1481 19.7536C13.8601 19.5872 13.5231 19.5262 13.1951 19.5811C12.867 19.636 12.5682 19.8034 12.3502 20.0546C12.1321 20.3058 12.0083 20.6251 12 20.9576C11.9916 21.2902 12.0994 21.6152 12.3046 21.877C12.5099 22.1388 12.7998 22.3209 13.1248 22.3922C13.4497 22.4634 13.7893 22.4194 14.0853 22.2675C14.3812 22.1156 14.6151 21.8655 14.7467 21.56H14.7627L18.0587 21.4C18.1022 21.3976 18.1452 21.3896 18.1867 21.376C18.277 21.659 18.4273 21.9193 18.6273 22.1389C18.8273 22.3586 19.0723 22.5326 19.3457 22.6491C19.619 22.7655 19.9142 22.8216 20.2112 22.8136C20.5082 22.8056 20.8 22.7336 21.0667 22.6026L22.7627 25.0853C22.5778 25.3452 22.4857 25.6597 22.5011 25.9782C22.5166 26.2967 22.6387 26.6008 22.8479 26.8416C23.0571 27.0823 23.3411 27.2457 23.6544 27.3054C23.9677 27.3652 24.2919 27.3179 24.5751 27.1711C24.8582 27.0243 25.0837 26.7865 25.2154 26.4961C25.347 26.2056 25.3772 25.8793 25.3009 25.5696C25.2247 25.2599 25.0466 24.9849 24.7951 24.7887C24.5437 24.5925 24.2336 24.4866 23.9147 24.488H23.9067Z" fill="#FF9600"/>
</g>
<defs>
<clipPath id="clip0_3520_871">
<rect width="40" height="40" fill="white"/>
</clipPath>
</defs>
</svg>
