<svg width="40" height="40" viewBox="0 0 40 40" fill="none" xmlns="http://www.w3.org/2000/svg">
<g clip-path="url(#clip0_3520_855)">
<path opacity="0.2" d="M0 20C0 25.3043 2.10714 30.3914 5.85786 34.1421C9.60859 37.8929 14.6957 40 20 40C25.3043 40 30.3914 37.8929 34.1421 34.1421C37.8929 30.3914 40 25.3043 40 20C40 14.6957 37.8929 9.60859 34.1421 5.85786C30.3914 2.10714 25.3043 0 20 0C14.6957 0 9.60859 2.10714 5.85786 5.85786C2.10714 9.60859 0 14.6957 0 20Z" fill="#1983FF"/>
<path d="M4 20C4 24.2435 5.68571 28.3131 8.68629 31.3137C11.6869 34.3143 15.7565 36 20 36C24.2435 36 28.3131 34.3143 31.3137 31.3137C34.3143 28.3131 36 24.2435 36 20C36 15.7565 34.3143 11.6869 31.3137 8.68629C28.3131 5.68571 24.2435 4 20 4C15.7565 4 11.6869 5.68571 8.68629 8.68629C5.68571 11.6869 4 15.7565 4 20Z" fill="#1983FF"/>
<path d="M1.9533e-08 2.93334C-3.54447e-05 3.1785 0.0482211 3.42126 0.142014 3.64777C0.235807 3.87427 0.373299 4.08009 0.546639 4.25345C0.719978 4.42681 0.92577 4.56434 1.15226 4.65816C1.37875 4.75199 1.62151 4.80028 1.86667 4.80028C2.11182 4.80028 2.35458 4.75199 2.58107 4.65816C2.80756 4.56434 3.01335 4.42681 3.18669 4.25345C3.36003 4.08009 3.49753 3.87427 3.59132 3.64777C3.68511 3.42126 3.73337 3.1785 3.73333 2.93334C3.73337 2.68819 3.68511 2.44542 3.59132 2.21892C3.49753 1.99241 3.36003 1.7866 3.18669 1.61324C3.01335 1.43987 2.80756 1.30235 2.58107 1.20852C2.35458 1.1147 2.11182 1.06641 1.86667 1.06641C1.62151 1.06641 1.37875 1.1147 1.15226 1.20852C0.92577 1.30235 0.719978 1.43987 0.546639 1.61324C0.373299 1.7866 0.235807 1.99241 0.142014 2.21892C0.0482211 2.44542 -3.54447e-05 2.68819 1.9533e-08 2.93334Z" fill="#1983FF"/>
<path d="M38.3999 36C38.3999 36.2121 38.4842 36.4156 38.6342 36.5656C38.7842 36.7157 38.9877 36.8 39.1999 36.8C39.4121 36.8 39.6156 36.7157 39.7656 36.5656C39.9156 36.4156 39.9999 36.2121 39.9999 36C39.9999 35.7878 39.9156 35.5843 39.7656 35.4343C39.6156 35.2842 39.4121 35.2 39.1999 35.2C38.9877 35.2 38.7842 35.2842 38.6342 35.4343C38.4842 35.5843 38.3999 35.7878 38.3999 36Z" fill="#1983FF"/>
<path d="M9.33317 8.26672H27.4665C29.2443 8.26672 30.1332 9.15561 30.1332 10.9334V31.2001C30.1332 32.9778 29.2443 33.8667 27.4665 33.8667H9.33317C7.55539 33.8667 6.6665 32.9778 6.6665 31.2001V10.9334C6.6665 9.15561 7.55539 8.26672 9.33317 8.26672Z" fill="#70B2FF"/>
<path d="M11.9095 5.59998H30.4908C31.1386 5.59998 31.7599 5.85733 32.218 6.31542C32.6761 6.7735 32.9335 7.39481 32.9335 8.04264V31.2H9.4668V8.04264C9.4668 7.39481 9.72415 6.7735 10.1822 6.31542C10.6403 5.85733 11.2616 5.59998 11.9095 5.59998Z" fill="white"/>
<path d="M9.4668 31.2L27.3628 24.8614C28.2215 24.5574 29.1121 25.088 29.3388 26.04C29.7548 30.9334 32.9335 31.2 32.9335 31.2H9.4668Z" fill="#5BA1F4"/>
<path opacity="0.4" d="M12.616 9.33337H29.784C30.2836 9.33337 30.5334 9.58315 30.5334 10.0827V10.184C30.5334 10.6836 30.2836 10.9334 29.784 10.9334H12.616C12.1165 10.9334 11.8667 10.6836 11.8667 10.184V10.0827C11.8667 9.58315 12.1165 9.33337 12.616 9.33337Z" fill="#70B2FF"/>
<path opacity="0.4" d="M12.7493 12.8667H29.9173C30.4169 12.8667 30.6667 13.1165 30.6667 13.616V13.7174C30.6667 14.2169 30.4169 14.4667 29.9173 14.4667H12.7493C12.2498 14.4667 12 14.2169 12 13.7174V13.616C12 13.1165 12.2498 12.8667 12.7493 12.8667Z" fill="#70B2FF"/>
<path opacity="0.4" d="M12.7493 16.4H29.9173C30.4169 16.4 30.6667 16.6498 30.6667 17.1494V17.2507C30.6667 17.7502 30.4169 18 29.9173 18H12.7493C12.2498 18 12 17.7502 12 17.2507V17.1494C12 16.6498 12.2498 16.4 12.7493 16.4Z" fill="#70B2FF"/>
<path opacity="0.4" d="M12.7493 19.9333H29.9173C30.4169 19.9333 30.6667 20.1831 30.6667 20.6827V20.784C30.6667 21.2836 30.4169 21.5334 29.9173 21.5334H12.7493C12.2498 21.5334 12 21.2836 12 20.784V20.6827C12 20.1831 12.2498 19.9333 12.7493 19.9333Z" fill="#70B2FF"/>
<path opacity="0.4" d="M12.5867 23.4667H22.88C23.2711 23.4667 23.4667 23.6622 23.4667 24.0533V24.48C23.4667 24.8711 23.2711 25.0667 22.88 25.0667H12.5867C12.1956 25.0667 12 24.8711 12 24.48V24.0533C12 23.6622 12.1956 23.4667 12.5867 23.4667Z" fill="#70B2FF"/>
<path d="M36.0802 23.112L30.8802 22.8107C30.8273 22.8075 30.7743 22.817 30.7258 22.8383C30.6773 22.8597 30.6346 22.8924 30.6012 22.9336C30.5678 22.9748 30.5447 23.0233 30.5339 23.0752C30.5231 23.1271 30.5248 23.1809 30.5388 23.232L31.9228 28.2667C31.9392 28.3258 31.9715 28.3794 32.0163 28.4213C32.0611 28.4633 32.1167 28.4921 32.1768 28.5045C32.2369 28.5169 32.2993 28.5125 32.3571 28.4917C32.4149 28.4709 32.4658 28.4345 32.5042 28.3867L33.6082 27.0187C33.6358 26.9847 33.6699 26.9564 33.7085 26.9356C33.747 26.9148 33.7893 26.9018 33.8329 26.8973C33.8765 26.8929 33.9205 26.8971 33.9625 26.9096C34.0045 26.9222 34.0436 26.943 34.0775 26.9707L37.7575 29.9467C37.7916 29.9742 37.8309 29.9948 37.8729 30.0071C37.915 30.0195 37.9591 30.0234 38.0027 30.0187C38.0463 30.014 38.0885 30.0007 38.127 29.9797C38.1655 29.9586 38.1994 29.9302 38.2268 29.896L38.9922 28.9493C39.0202 28.9155 39.0412 28.8765 39.054 28.8344C39.0668 28.7924 39.0711 28.7483 39.0666 28.7046C39.0621 28.6609 39.049 28.6185 39.028 28.58C39.007 28.5414 38.9785 28.5074 38.9442 28.48L35.2642 25.4933C35.2299 25.4659 35.2014 25.4319 35.1804 25.3933C35.1593 25.3548 35.1462 25.3124 35.1417 25.2687C35.1373 25.225 35.1416 25.1809 35.1543 25.1389C35.1671 25.0969 35.1881 25.0578 35.2162 25.024L36.3202 23.656C36.3592 23.6083 36.3842 23.5508 36.3925 23.4898C36.4008 23.4288 36.3921 23.3666 36.3672 23.3103C36.3424 23.254 36.3024 23.2056 36.2517 23.1706C36.201 23.1356 36.1417 23.1153 36.0802 23.112Z" fill="#FF9600"/>
</g>
<defs>
<clipPath id="clip0_3520_855">
<rect width="40" height="40" fill="white"/>
</clipPath>
</defs>
</svg>
