<svg width="40" height="40" viewBox="0 0 40 40" fill="none" xmlns="http://www.w3.org/2000/svg">
<g clip-path="url(#clip0_3520_672)">
<path opacity="0.2" d="M0 20C0 25.3043 2.10714 30.3914 5.85786 34.1421C9.60859 37.8929 14.6957 40 20 40C25.3043 40 30.3914 37.8929 34.1421 34.1421C37.8929 30.3914 40 25.3043 40 20C40 14.6957 37.8929 9.60859 34.1421 5.85786C30.3914 2.10714 25.3043 0 20 0C14.6957 0 9.60859 2.10714 5.85786 5.85786C2.10714 9.60859 0 14.6957 0 20Z" fill="#1983FF"/>
<path d="M4 20C4 24.2435 5.68571 28.3131 8.68629 31.3137C11.6869 34.3143 15.7565 36 20 36C24.2435 36 28.3131 34.3143 31.3137 31.3137C34.3143 28.3131 36 24.2435 36 20C36 15.7565 34.3143 11.6869 31.3137 8.68629C28.3131 5.68571 24.2435 4 20 4C15.7565 4 11.6869 5.68571 8.68629 8.68629C5.68571 11.6869 4 15.7565 4 20Z" fill="#1983FF"/>
<path d="M1.9533e-08 2.93334C-3.54447e-05 3.1785 0.0482211 3.42126 0.142014 3.64777C0.235807 3.87427 0.373299 4.08009 0.546639 4.25345C0.719978 4.42681 0.92577 4.56434 1.15226 4.65816C1.37875 4.75199 1.62151 4.80028 1.86667 4.80028C2.11182 4.80028 2.35458 4.75199 2.58107 4.65816C2.80756 4.56434 3.01335 4.42681 3.18669 4.25345C3.36003 4.08009 3.49753 3.87427 3.59132 3.64777C3.68511 3.42126 3.73337 3.1785 3.73333 2.93334C3.73337 2.68819 3.68511 2.44542 3.59132 2.21892C3.49753 1.99241 3.36003 1.7866 3.18669 1.61324C3.01335 1.43987 2.80756 1.30235 2.58107 1.20852C2.35458 1.1147 2.11182 1.06641 1.86667 1.06641C1.62151 1.06641 1.37875 1.1147 1.15226 1.20852C0.92577 1.30235 0.719978 1.43987 0.546639 1.61324C0.373299 1.7866 0.235807 1.99241 0.142014 2.21892C0.0482211 2.44542 -3.54447e-05 2.68819 1.9533e-08 2.93334Z" fill="#1983FF"/>
<path d="M38.3999 36C38.3999 36.2121 38.4842 36.4156 38.6342 36.5656C38.7842 36.7157 38.9877 36.8 39.1999 36.8C39.4121 36.8 39.6156 36.7157 39.7656 36.5656C39.9156 36.4156 39.9999 36.2121 39.9999 36C39.9999 35.7878 39.9156 35.5843 39.7656 35.4343C39.6156 35.2842 39.4121 35.2 39.1999 35.2C38.9877 35.2 38.7842 35.2842 38.6342 35.4343C38.4842 35.5843 38.3999 35.7878 38.3999 36Z" fill="#1983FF"/>
<path d="M10.7439 7.73328H29.2559C30.7296 7.73328 31.4665 8.47017 31.4665 9.94394V23.9226C31.4665 25.3964 30.7296 26.1333 29.2559 26.1333H10.7439C9.27009 26.1333 8.5332 25.3964 8.5332 23.9226V9.94394C8.5332 8.47017 9.27009 7.73328 10.7439 7.73328Z" fill="white"/>
<path d="M29.9629 32.2667H10.0375C8.46953 32.2667 7.2002 31.1467 7.2002 29.7627V18.1547L19.4402 21.464L32.8002 18.1547V29.7627C32.8002 31.1467 31.5309 32.2667 29.9629 32.2667Z" fill="#70B2FF"/>
<path d="M12.2667 10.9547H27.7334C28.089 10.9547 28.2667 11.1325 28.2667 11.488C28.2667 11.8436 28.089 12.0214 27.7334 12.0214H12.2667C11.9112 12.0214 11.7334 11.8436 11.7334 11.488C11.7334 11.1325 11.9112 10.9547 12.2667 10.9547Z" fill="#FF9600"/>
<path d="M12.2667 13.8773H27.7334C28.089 13.8773 28.2667 14.0551 28.2667 14.4107C28.2667 14.7662 28.089 14.944 27.7334 14.944H12.2667C11.9112 14.944 11.7334 14.7662 11.7334 14.4107C11.7334 14.0551 11.9112 13.8773 12.2667 13.8773Z" fill="#FF9600"/>
<path d="M12.2667 16.8H27.7334C28.089 16.8 28.2667 16.9778 28.2667 17.3334C28.2667 17.6889 28.089 17.8667 27.7334 17.8667H12.2667C11.9112 17.8667 11.7334 17.6889 11.7334 17.3334C11.7334 16.9778 11.9112 16.8 12.2667 16.8Z" fill="#FF9600"/>
</g>
<defs>
<clipPath id="clip0_3520_672">
<rect width="40" height="40" fill="white"/>
</clipPath>
</defs>
</svg>
