<svg width="40" height="41" viewBox="0 0 40 41" fill="none" xmlns="http://www.w3.org/2000/svg">
<g clip-path="url(#clip0_3520_637)">
<path opacity="0.2" d="M0 20.5C0 25.8043 2.10714 30.8914 5.85786 34.6421C9.60859 38.3929 14.6957 40.5 20 40.5C25.3043 40.5 30.3914 38.3929 34.1421 34.6421C37.8929 30.8914 40 25.8043 40 20.5C40 15.1957 37.8929 10.1086 34.1421 6.35786C30.3914 2.60714 25.3043 0.5 20 0.5C14.6957 0.5 9.60859 2.60714 5.85786 6.35786C2.10714 10.1086 0 15.1957 0 20.5Z" fill="#1983FF"/>
<path d="M4 20.4813C4 24.7248 5.68571 28.7945 8.68629 31.795C11.6869 34.7956 15.7565 36.4813 20 36.4813C24.2435 36.4813 28.3131 34.7956 31.3137 31.795C34.3143 28.7945 36 24.7248 36 20.4813C36 16.2379 34.3143 12.1682 31.3137 9.16761C28.3131 6.16703 24.2435 4.48132 20 4.48132C15.7565 4.48132 11.6869 6.16703 8.68629 9.16761C5.68571 12.1682 4 16.2379 4 20.4813Z" fill="#1983FF"/>
<path d="M1.95331e-08 3.41467C-3.54447e-05 3.65982 0.0482211 3.90259 0.142014 4.12909C0.235807 4.3556 0.373299 4.56141 0.546639 4.73477C0.719978 4.90814 0.92577 5.04566 1.15226 5.13949C1.37875 5.23331 1.62151 5.2816 1.86667 5.2816C2.11182 5.2816 2.35458 5.23331 2.58107 5.13949C2.80756 5.04566 3.01336 4.90814 3.18669 4.73477C3.36003 4.56141 3.49753 4.3556 3.59132 4.12909C3.68511 3.90259 3.73337 3.65982 3.73333 3.41467C3.73337 3.16951 3.68511 2.92675 3.59132 2.70024C3.49753 2.47374 3.36003 2.26792 3.18669 2.09456C3.01336 1.92119 2.80756 1.78367 2.58107 1.68985C2.35458 1.59602 2.11182 1.54773 1.86667 1.54773C1.62151 1.54773 1.37875 1.59602 1.15226 1.68985C0.92577 1.78367 0.719978 1.92119 0.546639 2.09456C0.373299 2.26792 0.235807 2.47374 0.142014 2.70024C0.0482211 2.92675 -3.54447e-05 3.16951 1.95331e-08 3.41467Z" fill="#1983FF"/>
<path d="M38.3999 36.4814C38.3999 36.6936 38.4842 36.8971 38.6342 37.0471C38.7842 37.1971 38.9877 37.2814 39.1999 37.2814C39.4121 37.2814 39.6156 37.1971 39.7656 37.0471C39.9156 36.8971 39.9999 36.6936 39.9999 36.4814C39.9999 36.2692 39.9156 36.0657 39.7656 35.9157C39.6156 35.7657 39.4121 35.6814 39.1999 35.6814C38.9877 35.6814 38.7842 35.7657 38.6342 35.9157C38.4842 36.0657 38.3999 36.2692 38.3999 36.4814Z" fill="#1983FF"/>
<path d="M8.53356 30.604L11.0776 17.7693H32.4882V14.6893C32.4847 14.0601 32.2317 13.458 31.7848 13.015C31.3378 12.5721 30.7335 12.3245 30.1042 12.3267H18.7389L17.0669 9.59867C16.8533 9.25047 16.5536 8.96308 16.1968 8.76413C15.84 8.56519 15.4381 8.46137 15.0296 8.46267H10.4162C10.1046 8.46127 9.79566 8.52127 9.50718 8.63924C9.21869 8.75722 8.95627 8.93086 8.7349 9.15025C8.51352 9.36965 8.33753 9.6305 8.21696 9.91791C8.0964 10.2053 8.03362 10.5137 8.03223 10.8253V29.74C8.03181 30.2939 8.22841 30.8298 8.58689 31.252C8.5105 31.0449 8.49206 30.8208 8.53356 30.604Z" fill="#5BA1F4"/>
<path d="M30.104 28.1187L8.89333 29.8733L5.82933 18.6093C5.76403 18.3668 5.74723 18.1138 5.77987 17.8648C5.81251 17.6158 5.89395 17.3756 6.01954 17.1581C6.14513 16.9407 6.3124 16.7501 6.51176 16.5973C6.71111 16.4446 6.93865 16.3327 7.18133 16.268L23.7573 11.8253C24.2478 11.6942 24.7703 11.7633 25.2098 12.0173C25.6494 12.2713 25.9701 12.6896 26.1013 13.18L30.104 28.1187Z" fill="white"/>
<path d="M33.1678 17.756H11.0851L8.53311 30.604C8.48855 30.8209 8.50423 31.046 8.57844 31.2546C8.80511 31.8946 9.57044 32.3453 10.5731 32.3453H30.2664C31.5838 32.3453 32.8051 31.564 32.9971 30.604L35.1998 19.4973C35.3971 18.5346 34.4851 17.756 33.1678 17.756Z" fill="#70B2FF"/>
<path d="M14.4079 28.3533H29.3412C29.8746 28.3533 30.1412 28.6199 30.1412 29.1533C30.1412 29.6866 29.8746 29.9533 29.3412 29.9533H14.4079C13.8746 29.9533 13.6079 29.6866 13.6079 29.1533C13.6079 28.6199 13.8746 28.3533 14.4079 28.3533Z" fill="#FF9600"/>
</g>
<defs>
<clipPath id="clip0_3520_637">
<rect width="40" height="40" fill="white" transform="translate(0 0.5)"/>
</clipPath>
</defs>
</svg>
