<svg width="16" height="16" viewBox="0 0 16 16" fill="none" xmlns="http://www.w3.org/2000/svg">
<g id="Frame">
<path id="Vector" d="M2 6V3C2 2.44772 2.44772 2 3 2H13C13.5523 2 14 2.44772 14 3V6" stroke="#43C93E" stroke-linecap="round" stroke-linejoin="round"/>
<path id="Vector_2" d="M7 8.66683L11 4.3335" stroke="#43C93E" stroke-linecap="round" stroke-linejoin="round"/>
<path id="Vector_3" d="M8.66602 7L9.99935 8.33333" stroke="#43C93E" stroke-linecap="round" stroke-linejoin="round"/>
<path id="Vector_4" d="M10.334 5.3335L11.6673 6.66683" stroke="#43C93E" stroke-linecap="round" stroke-linejoin="round"/>
<path id="Vector_5" d="M2 10V13C2 13.5523 2.44772 14 3 14H13C13.5523 14 14 13.5523 14 13V10" stroke="#43C93E" stroke-linecap="round" stroke-linejoin="round"/>
<path id="Vector_6" d="M6.00065 11.6668C6.92113 11.6668 7.66732 10.9206 7.66732 10.0002C7.66732 9.07969 6.92113 8.3335 6.00065 8.3335C5.08018 8.3335 4.33398 9.07969 4.33398 10.0002C4.33398 10.9206 5.08018 11.6668 6.00065 11.6668Z" stroke="#43C93E" stroke-linecap="round" stroke-linejoin="round"/>
</g>
</svg>
