<svg width="40" height="40" viewBox="0 0 40 40" fill="none" xmlns="http://www.w3.org/2000/svg">
<g clip-path="url(#clip0_3520_646)">
<path opacity="0.2" d="M0 20C0 25.3043 2.10714 30.3914 5.85786 34.1421C9.60859 37.8929 14.6957 40 20 40C25.3043 40 30.3914 37.8929 34.1421 34.1421C37.8929 30.3914 40 25.3043 40 20C40 14.6957 37.8929 9.60859 34.1421 5.85786C30.3914 2.10714 25.3043 0 20 0C14.6957 0 9.60859 2.10714 5.85786 5.85786C2.10714 9.60859 0 14.6957 0 20Z" fill="#1983FF"/>
<path d="M4 20C4 24.2435 5.68571 28.3131 8.68629 31.3137C11.6869 34.3143 15.7565 36 20 36C24.2435 36 28.3131 34.3143 31.3137 31.3137C34.3143 28.3131 36 24.2435 36 20C36 15.7565 34.3143 11.6869 31.3137 8.68629C28.3131 5.68571 24.2435 4 20 4C15.7565 4 11.6869 5.68571 8.68629 8.68629C5.68571 11.6869 4 15.7565 4 20Z" fill="#1983FF"/>
<path d="M1.9533e-08 2.93334C-3.54447e-05 3.1785 0.0482211 3.42126 0.142014 3.64777C0.235807 3.87427 0.373299 4.08009 0.546639 4.25345C0.719978 4.42681 0.92577 4.56434 1.15226 4.65816C1.37875 4.75199 1.62151 4.80028 1.86667 4.80028C2.11182 4.80028 2.35458 4.75199 2.58107 4.65816C2.80756 4.56434 3.01335 4.42681 3.18669 4.25345C3.36003 4.08009 3.49753 3.87427 3.59132 3.64777C3.68511 3.42126 3.73337 3.1785 3.73333 2.93334C3.73337 2.68819 3.68511 2.44542 3.59132 2.21892C3.49753 1.99241 3.36003 1.7866 3.18669 1.61324C3.01335 1.43987 2.80756 1.30235 2.58107 1.20852C2.35458 1.1147 2.11182 1.06641 1.86667 1.06641C1.62151 1.06641 1.37875 1.1147 1.15226 1.20852C0.92577 1.30235 0.719978 1.43987 0.546639 1.61324C0.373299 1.7866 0.235807 1.99241 0.142014 2.21892C0.0482211 2.44542 -3.54447e-05 2.68819 1.9533e-08 2.93334Z" fill="#1983FF"/>
<path d="M38.3999 36C38.3999 36.2121 38.4842 36.4156 38.6342 36.5656C38.7842 36.7157 38.9877 36.8 39.1999 36.8C39.4121 36.8 39.6156 36.7157 39.7656 36.5656C39.9156 36.4156 39.9999 36.2121 39.9999 36C39.9999 35.7878 39.9156 35.5843 39.7656 35.4343C39.6156 35.2842 39.4121 35.2 39.1999 35.2C38.9877 35.2 38.7842 35.2842 38.6342 35.4343C38.4842 35.5843 38.3999 35.7878 38.3999 36Z" fill="#1983FF"/>
<path d="M13.8936 10.6454V17.888L20.0002 21.5094L26.1069 17.888V10.6454L20.0002 7.02405L13.8936 10.6454Z" fill="white"/>
<path d="M13.8936 10.6454L20.0002 14.2667L26.1069 10.6454L20.0002 7.02405L13.8936 10.6454Z" fill="#70B2FF"/>
<path d="M13.8936 10.6454V17.8881L20.0002 21.5094V14.2667L13.8936 10.6454Z" fill="#5BA1F4"/>
<path d="M13.8936 10.6454V17.8881L20.0002 21.5094V14.2667L13.8936 10.6454Z" fill="#5BA1F4"/>
<path d="M7.49316 22.1121V29.3547L13.5998 32.9761L19.7065 29.3547V22.1121L13.5998 18.4907L7.49316 22.1121Z" fill="white"/>
<path d="M7.49316 22.1121L13.5998 25.7334L19.7065 22.1121L13.5998 18.4907L7.49316 22.1121Z" fill="#70B2FF"/>
<path d="M7.49316 22.1121V29.3547L13.5998 32.9761V25.7334L7.49316 22.1121Z" fill="#5BA1F4"/>
<path d="M20.2935 22.1121V29.3547L26.4001 32.9761L32.5068 29.3547V22.1121L26.4001 18.4907L20.2935 22.1121Z" fill="white"/>
<path d="M20.2935 22.1121L26.4001 25.7334L32.5068 22.1121L26.4001 18.4907L20.2935 22.1121Z" fill="#70B2FF"/>
<path d="M20.2935 22.1121V29.3547L26.4001 32.9761V25.7334L20.2935 22.1121Z" fill="#5BA1F4"/>
<path d="M10.0506 24.24L9.71993 24.1653C6.64526 23.4507 4.99459 22.36 4.94126 21.0133C4.90126 19.9867 5.77059 19.0507 7.52793 18.232C7.59149 18.2024 7.66025 18.1856 7.7303 18.1826C7.80035 18.1796 7.8703 18.1904 7.93617 18.2144C8.00203 18.2385 8.06253 18.2752 8.11419 18.3226C8.16585 18.37 8.20767 18.4271 8.23726 18.4907C8.26685 18.5542 8.28363 18.623 8.28665 18.693C8.28967 18.7631 8.27886 18.833 8.25484 18.8989C8.23082 18.9648 8.19406 19.0253 8.14666 19.0769C8.09926 19.1286 8.04215 19.1704 7.97859 19.2C6.70393 19.7947 5.98659 20.4427 6.00793 20.9733C6.03193 21.576 7.07459 22.4587 9.95993 23.1307C12.6959 23.7653 16.3039 24.032 20.1359 23.88C28.8053 23.5387 34.0506 21.3173 34.0026 19.88C33.9813 19.3227 33.1093 18.688 31.6693 18.1867C31.6024 18.165 31.5404 18.1303 31.4869 18.0846C31.4334 18.039 31.3895 17.9832 31.3575 17.9206C31.3256 17.8579 31.3063 17.7896 31.3008 17.7195C31.2952 17.6494 31.3035 17.5789 31.3253 17.512C31.347 17.4451 31.3816 17.3832 31.4273 17.3297C31.473 17.2762 31.5287 17.2322 31.5914 17.2003C31.7179 17.1358 31.8648 17.1242 31.9999 17.168C33.9813 17.8587 35.0053 18.768 35.0479 19.8347C35.1626 22.768 27.4666 24.664 20.1679 24.952C16.4026 25.0933 12.8239 24.8427 10.0506 24.24Z" fill="#FF9600"/>
</g>
<defs>
<clipPath id="clip0_3520_646">
<rect width="40" height="40" fill="white"/>
</clipPath>
</defs>
</svg>
