<svg width="40" height="41" viewBox="0 0 40 41" fill="none" xmlns="http://www.w3.org/2000/svg">
<g clip-path="url(#clip0_3520_846)">
<path opacity="0.2" d="M0 20.5C0 25.8043 2.10714 30.8914 5.85786 34.6421C9.60859 38.3929 14.6957 40.5 20 40.5C25.3043 40.5 30.3914 38.3929 34.1421 34.6421C37.8929 30.8914 40 25.8043 40 20.5C40 15.1957 37.8929 10.1086 34.1421 6.35786C30.3914 2.60714 25.3043 0.5 20 0.5C14.6957 0.5 9.60859 2.60714 5.85786 6.35786C2.10714 10.1086 0 15.1957 0 20.5Z" fill="#1983FF"/>
<path d="M4 20.4813C4 24.7248 5.68571 28.7945 8.68629 31.795C11.6869 34.7956 15.7565 36.4813 20 36.4813C24.2435 36.4813 28.3131 34.7956 31.3137 31.795C34.3143 28.7945 36 24.7248 36 20.4813C36 16.2379 34.3143 12.1682 31.3137 9.16761C28.3131 6.16703 24.2435 4.48132 20 4.48132C15.7565 4.48132 11.6869 6.16703 8.68629 9.16761C5.68571 12.1682 4 16.2379 4 20.4813Z" fill="#1983FF"/>
<path d="M1.95331e-08 3.41467C-3.54447e-05 3.65982 0.0482211 3.90259 0.142014 4.12909C0.235807 4.3556 0.373299 4.56141 0.546639 4.73477C0.719978 4.90814 0.92577 5.04566 1.15226 5.13949C1.37875 5.23331 1.62151 5.2816 1.86667 5.2816C2.11182 5.2816 2.35458 5.23331 2.58107 5.13949C2.80756 5.04566 3.01336 4.90814 3.18669 4.73477C3.36003 4.56141 3.49753 4.3556 3.59132 4.12909C3.68511 3.90259 3.73337 3.65982 3.73333 3.41467C3.73337 3.16951 3.68511 2.92675 3.59132 2.70024C3.49753 2.47374 3.36003 2.26792 3.18669 2.09456C3.01336 1.92119 2.80756 1.78367 2.58107 1.68985C2.35458 1.59602 2.11182 1.54773 1.86667 1.54773C1.62151 1.54773 1.37875 1.59602 1.15226 1.68985C0.92577 1.78367 0.719978 1.92119 0.546639 2.09456C0.373299 2.26792 0.235807 2.47374 0.142014 2.70024C0.0482211 2.92675 -3.54447e-05 3.16951 1.95331e-08 3.41467Z" fill="#1983FF"/>
<path d="M38.3999 36.4814C38.3999 36.6936 38.4842 36.8971 38.6342 37.0471C38.7842 37.1971 38.9877 37.2814 39.1999 37.2814C39.4121 37.2814 39.6156 37.1971 39.7656 37.0471C39.9156 36.8971 39.9999 36.6936 39.9999 36.4814C39.9999 36.2692 39.9156 36.0657 39.7656 35.9157C39.6156 35.7657 39.4121 35.6814 39.1999 35.6814C38.9877 35.6814 38.7842 35.7657 38.6342 35.9157C38.4842 36.0657 38.3999 36.2692 38.3999 36.4814Z" fill="#1983FF"/>
<path d="M6.31983 12.736V29.3573C6.31947 29.7496 6.39649 30.1381 6.54646 30.5007C6.69643 30.8632 6.91641 31.1926 7.19382 31.47C7.47122 31.7474 7.80061 31.9674 8.16313 32.1173C8.52565 32.2673 8.91418 32.3443 9.30649 32.344H30.6932C31.0855 32.3443 31.474 32.2673 31.8365 32.1173C32.199 31.9674 32.5284 31.7474 32.8058 31.47C33.0832 31.1926 33.3032 30.8632 33.4532 30.5007C33.6032 30.1381 33.6802 29.7496 33.6798 29.3573V12.736H6.31983Z" fill="white"/>
<path d="M33.6798 10.6427C33.6802 10.2504 33.6032 9.86183 33.4532 9.49931C33.3032 9.13679 33.0832 8.80741 32.8058 8.53C32.5284 8.25259 32.199 8.03261 31.8365 7.88264C31.474 7.73267 31.0855 7.65566 30.6932 7.65601H9.30649C8.91418 7.65566 8.52565 7.73267 8.16313 7.88264C7.80061 8.03261 7.47122 8.25259 7.19382 8.53C6.91641 8.80741 6.69643 9.13679 6.54646 9.49931C6.39649 9.86183 6.31947 10.2504 6.31983 10.6427V12.736H33.6798V10.6427ZM22.9678 27.8C21.7572 27.8 20.5998 27.224 19.5172 26.0853C18.2532 24.752 16.8238 24.0693 15.2692 24.0347H15.1465C12.2132 24.0347 9.75449 26.36 9.73049 26.384C9.69796 26.4183 9.65879 26.4457 9.61536 26.4645C9.57193 26.4832 9.52514 26.493 9.47784 26.4931C9.43054 26.4932 9.3837 26.4837 9.34017 26.4652C9.29664 26.4467 9.25732 26.4195 9.2246 26.3854C9.19189 26.3512 9.16645 26.3107 9.14983 26.2665C9.13321 26.2222 9.12577 26.175 9.12794 26.1277C9.13011 26.0805 9.14185 26.0341 9.16246 25.9916C9.18307 25.949 9.21211 25.911 9.24783 25.88C9.35449 25.776 11.9145 23.336 15.1438 23.336H15.2798C17.0292 23.3733 18.6238 24.136 20.0212 25.6027C21.0665 26.7013 22.1545 27.2027 23.2932 27.0827C25.6745 26.8347 27.4718 23.976 27.4905 23.9467C27.5133 23.9053 27.5443 23.8691 27.5816 23.84C27.6188 23.811 27.6616 23.7898 27.7073 23.7778C27.753 23.7658 27.8006 23.7631 27.8473 23.77C27.894 23.7769 27.9389 23.7932 27.9791 23.818C28.0194 23.8427 28.0542 23.8753 28.0815 23.9139C28.1087 23.9524 28.1279 23.9961 28.1378 24.0423C28.1477 24.0885 28.1482 24.1362 28.1391 24.1826C28.1301 24.2289 28.1117 24.2729 28.0852 24.312C28.0025 24.4427 26.0852 27.496 23.3652 27.7787C23.2318 27.792 23.0985 27.8 22.9678 27.8Z" fill="#70B2FF"/>
<path opacity="0.2" d="M25.7039 15.4746H30.7705C31.4817 15.4746 31.8372 15.8302 31.8372 16.5413V28.5413C31.8372 29.2524 31.4817 29.6079 30.7705 29.6079H25.7039C24.9928 29.6079 24.6372 29.2524 24.6372 28.5413V16.5413C24.6372 15.8302 24.9928 15.4746 25.7039 15.4746Z" fill="#70B2FF"/>
<path d="M27.3227 14.8693H16.0667C15.9266 14.8693 15.7879 14.8969 15.6585 14.9505C15.5291 15.0041 15.4115 15.0826 15.3124 15.1817C15.2134 15.2807 15.1348 15.3983 15.0812 15.5277C15.0276 15.6572 15 15.7959 15 15.9359V20.8586C15 21.1415 15.1124 21.4128 15.3124 21.6129C15.5125 21.8129 15.7838 21.9253 16.0667 21.9253H20.0667L21.3493 23.1999C21.4408 23.2908 21.5644 23.3418 21.6933 23.3418C21.8222 23.3418 21.9459 23.2908 22.0373 23.1999L23.328 21.9173H27.328C27.6109 21.9173 27.8822 21.8049 28.0822 21.6049C28.2823 21.4048 28.3947 21.1335 28.3947 20.8506V15.9306C28.394 15.7905 28.3657 15.652 28.3114 15.5228C28.2572 15.3937 28.178 15.2765 28.0785 15.1779C27.9789 15.0794 27.861 15.0014 27.7313 14.9484C27.6016 14.8955 27.4627 14.8686 27.3227 14.8693Z" fill="#5BA1F4"/>
<path d="M27.5708 10.1973C27.5708 10.2673 27.5846 10.3367 27.6114 10.4014C27.6382 10.4661 27.6775 10.5249 27.727 10.5744C27.7765 10.6239 27.8353 10.6632 27.9 10.69C27.9647 10.7168 28.0341 10.7306 28.1041 10.7306C28.1742 10.7306 28.2435 10.7168 28.3082 10.69C28.3729 10.6632 28.4317 10.6239 28.4813 10.5744C28.5308 10.5249 28.5701 10.4661 28.5969 10.4014C28.6237 10.3367 28.6375 10.2673 28.6375 10.1973C28.6375 10.1272 28.6237 10.0579 28.5969 9.99318C28.5701 9.92847 28.5308 9.86968 28.4813 9.82015C28.4317 9.77063 28.3729 9.73134 28.3082 9.70454C28.2435 9.67774 28.1742 9.66394 28.1041 9.66394C28.0341 9.66394 27.9647 9.67774 27.9 9.70454C27.8353 9.73134 27.7765 9.77063 27.727 9.82015C27.6775 9.86968 27.6382 9.92847 27.6114 9.99318C27.5846 10.0579 27.5708 10.1272 27.5708 10.1973Z" fill="white"/>
<path d="M29.1709 10.1973C29.1709 10.3387 29.2271 10.4744 29.3271 10.5744C29.4271 10.6744 29.5628 10.7306 29.7042 10.7306C29.8457 10.7306 29.9813 10.6744 30.0814 10.5744C30.1814 10.4744 30.2376 10.3387 30.2376 10.1973C30.2376 10.0558 30.1814 9.92017 30.0814 9.82015C29.9813 9.72013 29.8457 9.66394 29.7042 9.66394C29.5628 9.66394 29.4271 9.72013 29.3271 9.82015C29.2271 9.92017 29.1709 10.0558 29.1709 10.1973Z" fill="white"/>
<path d="M30.7705 10.1973C30.7705 10.3387 30.8267 10.4744 30.9267 10.5744C31.0267 10.6744 31.1624 10.7306 31.3038 10.7306C31.4453 10.7306 31.5809 10.6744 31.681 10.5744C31.781 10.4744 31.8372 10.3387 31.8372 10.1973C31.8372 10.0558 31.781 9.92017 31.681 9.82015C31.5809 9.72013 31.4453 9.66394 31.3038 9.66394C31.1624 9.66394 31.0267 9.72013 30.9267 9.82015C30.8267 9.92017 30.7705 10.0558 30.7705 10.1973Z" fill="white"/>
<path d="M16.9252 16.384H26.4612C26.8381 16.384 27.0265 16.5725 27.0265 16.9494V17.4187C27.0265 17.7956 26.8381 17.984 26.4612 17.984H16.9252C16.5483 17.984 16.3599 17.7956 16.3599 17.4187V16.9494C16.3599 16.5725 16.5483 16.384 16.9252 16.384Z" fill="#FF9600"/>
<path d="M16.8159 18.584H22.8372C23.1412 18.584 23.2932 18.736 23.2932 19.04V19.728C23.2932 20.032 23.1412 20.184 22.8372 20.184H16.8159C16.5119 20.184 16.3599 20.032 16.3599 19.728V19.04C16.3599 18.736 16.5119 18.584 16.8159 18.584Z" fill="#FF9600"/>
</g>
<defs>
<clipPath id="clip0_3520_846">
<rect width="40" height="40" fill="white" transform="translate(0 0.5)"/>
</clipPath>
</defs>
</svg>
