<svg width="24" height="24" viewBox="0 0 24 24" fill="none" xmlns="http://www.w3.org/2000/svg">
<path fill-rule="evenodd" clip-rule="evenodd" d="M21 5H3V19H21V5ZM3 4H21C21.5523 4 22 4.44771 22 5V19C22 19.5523 21.5523 20 21 20H3C2.44771 20 2 19.5523 2 19V5C2 4.44771 2.44771 4 3 4Z" fill="#60666B"/>
<path fill-rule="evenodd" clip-rule="evenodd" d="M7.64752 11.8996C7.80167 11.989 7.89655 12.1538 7.89655 12.332V15.6767C7.89655 15.8557 7.80083 16.0211 7.64559 16.1103C7.49035 16.1994 7.29928 16.1988 7.14463 16.1086L4.24808 14.4191C4.09378 14.3291 3.99921 14.1636 4 13.985C4.0008 13.8063 4.09683 13.6417 4.25193 13.5531L7.14848 11.8979C7.30323 11.8095 7.49336 11.8101 7.64752 11.8996ZM5.50001 13.9916L6.89655 14.8062V13.1936L5.50001 13.9916Z" fill="#60666B"/>
<path fill-rule="evenodd" clip-rule="evenodd" d="M10.751 11.8996C10.9052 11.989 11.0001 12.1538 11.0001 12.332V15.6767C11.0001 15.8557 10.9043 16.0211 10.7491 16.1103C10.5939 16.1994 10.4028 16.1988 10.2482 16.1086L7.3516 14.4191C7.19729 14.3291 7.10273 14.1636 7.10352 13.985C7.10431 13.8063 7.20035 13.6417 7.35545 13.5531L10.252 11.8979C10.4067 11.8095 10.5969 11.8101 10.751 11.8996ZM8.60352 13.9916L10.0001 14.8062V13.1936L8.60352 13.9916Z" fill="#60666B"/>
<path fill-rule="evenodd" clip-rule="evenodd" d="M12.5 11.5C12.5 10.9477 12.9477 10.5 13.5 10.5H18.5C19.0523 10.5 19.5 10.9477 19.5 11.5V16.5C19.5 17.0523 19.0523 17.5 18.5 17.5H13.5C12.9477 17.5 12.5 17.0523 12.5 16.5V11.5ZM18.5 11.5H13.5V16.5H18.5V11.5Z" fill="#60666B"/>
<path fill-rule="evenodd" clip-rule="evenodd" d="M16 12.1641C16.2761 12.1641 16.5 12.3879 16.5 12.6641V15.3307C16.5 15.6069 16.2761 15.8307 16 15.8307C15.7239 15.8307 15.5 15.6069 15.5 15.3307V12.6641C15.5 12.3879 15.7239 12.1641 16 12.1641Z" fill="#60666B"/>
<path fill-rule="evenodd" clip-rule="evenodd" d="M14.1665 14C14.1665 13.7239 14.3904 13.5 14.6665 13.5H17.3332C17.6093 13.5 17.8332 13.7239 17.8332 14C17.8332 14.2761 17.6093 14.5 17.3332 14.5H14.6665C14.3904 14.5 14.1665 14.2761 14.1665 14Z" fill="#60666B"/>
</svg>
