<svg width="24" height="24" viewBox="0 0 24 24" fill="none" xmlns="http://www.w3.org/2000/svg">
<path fill-rule="evenodd" clip-rule="evenodd" d="M20.1 4H21C21.5523 4 22 4.44771 22 5V5.875H21V5H20.1V4ZM22 7.625H21V9.375H22V7.625ZM22 11.125H21V12.875H22V11.125ZM22 14.625H21V16.375H22V14.625ZM22 18.125H21V19H20.1V20H21C21.5523 20 22 19.5523 22 19V18.125ZM18.3 20V19H16.5V20H18.3ZM14.7 20V19H12.9V20H14.7ZM11.1 20V19H9.3V20H11.1ZM7.5 20V19H5.7V20H7.5ZM3.9 20V19H3V18.125H2V19C2 19.5523 2.44771 20 3 20H3.9ZM2 16.375H3V14.625H2V16.375ZM2 12.875H3V11.125H2V12.875ZM2 9.375H3V7.625H2V9.375ZM2 5.875H3V5H3.9V4H3C2.44771 4 2 4.44771 2 5V5.875ZM5.7 4V5H7.5V4H5.7ZM9.3 4V5H11.1V4H9.3ZM12.9 4V5H14.7V4H12.9ZM16.5 4V5H18.3V4H16.5Z" fill="#60666B"/>
</svg>
