<svg width="24" height="24" viewBox="0 0 24 24" fill="none" xmlns="http://www.w3.org/2000/svg">
<path fill-rule="evenodd" clip-rule="evenodd" d="M21 5H3V19H21V5ZM3 4H21C21.5523 4 22 4.44771 22 5V19C22 19.5523 21.5523 20 21 20H3C2.44771 20 2 19.5523 2 19V5C2 4.44771 2.44771 4 3 4Z" fill="#60666B"/>
<path fill-rule="evenodd" clip-rule="evenodd" d="M5.48674 14.3997C5.48653 14.4006 5.48633 14.4015 5.48612 14.4023C5.48611 14.4024 5.48599 14.4029 5.48612 14.4023L5.48649 14.4008L5.48674 14.3997ZM10.9999 14.2857L11.4868 14.3993C11.5496 14.1304 11.3824 13.8615 11.1135 13.7988C10.8454 13.7362 10.5772 13.9022 10.5135 14.1698L10.5124 14.1741C10.5111 14.1791 10.5087 14.1883 10.505 14.201C10.4975 14.2264 10.4853 14.2654 10.4676 14.3133C10.4316 14.4108 10.3761 14.5366 10.2978 14.6585C10.1384 14.907 9.93516 15.0714 9.64991 15.0714C9.29833 15.0714 9.0476 14.9165 8.85294 14.7079C8.64934 14.4898 8.52715 14.2331 8.453 14.0743C8.44497 14.0571 8.43332 14.0272 8.41144 13.9671C8.40873 13.9597 8.4059 13.9519 8.40295 13.9437C8.38468 13.8934 8.36178 13.8303 8.33564 13.7645C8.27428 13.6102 8.18553 13.4157 8.04686 13.2266C7.74947 12.8211 7.26426 12.5 6.49991 12.5C5.68815 12.5 5.17701 12.9465 4.8903 13.3561C4.74891 13.5581 4.65661 13.7568 4.59953 13.9036C4.57071 13.9777 4.55009 14.0406 4.53623 14.0868C4.52929 14.1099 4.524 14.129 4.52019 14.1434L4.51555 14.1615L4.51402 14.1678L4.51345 14.1702L4.5132 14.1712C4.51315 14.1714 4.51299 14.1721 4.99966 14.2857L4.5132 14.1712C4.45046 14.4401 4.61738 14.7099 4.8863 14.7726C5.15421 14.8351 5.42208 14.6695 5.48612 14.4023C5.48633 14.4015 5.48653 14.4006 5.48674 14.3997C5.48791 14.3953 5.49046 14.3862 5.49406 14.3741C5.5013 14.35 5.51349 14.3125 5.53154 14.266C5.56821 14.1717 5.62591 14.049 5.70953 13.9296C5.87282 13.6963 6.11167 13.5 6.49991 13.5C6.93556 13.5 7.12535 13.661 7.24046 13.818C7.30805 13.9102 7.35992 14.0171 7.40637 14.1339C7.42647 14.1845 7.44377 14.2321 7.46219 14.2829C7.46535 14.2915 7.46854 14.3003 7.47178 14.3092C7.4915 14.3634 7.51735 14.434 7.54682 14.4972C7.54791 14.4995 7.54902 14.5019 7.55015 14.5043C7.62781 14.6708 7.80509 15.0508 8.12188 15.3903C8.45222 15.7442 8.95149 16.0714 9.64991 16.0714C10.4147 16.0714 10.8864 15.593 11.1395 15.1986C11.2675 14.9991 11.3526 14.8035 11.4056 14.6599C11.4325 14.5873 11.4519 14.5258 11.465 14.481C11.4715 14.4585 11.4765 14.44 11.4801 14.4262L11.4845 14.4091L11.4859 14.4032L11.4864 14.401L11.4868 14.3993C11.4869 14.3991 11.4868 14.3993 10.9999 14.2857Z" fill="#60666B"/>
<path fill-rule="evenodd" clip-rule="evenodd" d="M12.5 11.5C12.5 10.9477 12.9477 10.5 13.5 10.5H18.5C19.0523 10.5 19.5 10.9477 19.5 11.5V16.5C19.5 17.0523 19.0523 17.5 18.5 17.5H13.5C12.9477 17.5 12.5 17.0523 12.5 16.5V11.5ZM18.5 11.5H13.5V16.5H18.5V11.5Z" fill="#60666B"/>
<path fill-rule="evenodd" clip-rule="evenodd" d="M16 12.1641C16.2761 12.1641 16.5 12.3879 16.5 12.6641V15.3307C16.5 15.6069 16.2761 15.8307 16 15.8307C15.7239 15.8307 15.5 15.6069 15.5 15.3307V12.6641C15.5 12.3879 15.7239 12.1641 16 12.1641Z" fill="#60666B"/>
<path fill-rule="evenodd" clip-rule="evenodd" d="M14.1665 14C14.1665 13.7239 14.3904 13.5 14.6665 13.5H17.3332C17.6093 13.5 17.8332 13.7239 17.8332 14C17.8332 14.2761 17.6093 14.5 17.3332 14.5H14.6665C14.3904 14.5 14.1665 14.2761 14.1665 14Z" fill="#60666B"/>
</svg>
