<svg width="24" height="24" viewBox="0 0 24 24" fill="none" xmlns="http://www.w3.org/2000/svg">
<path fill-rule="evenodd" clip-rule="evenodd" d="M21 5H3V19H21V5ZM3 4H21C21.5523 4 22 4.44771 22 5V19C22 19.5523 21.5523 20 21 20H3C2.44771 20 2 19.5523 2 19V5C2 4.44771 2.44771 4 3 4Z" fill="#60666B"/>
<path fill-rule="evenodd" clip-rule="evenodd" d="M12.5 11.5C12.5 10.9477 12.9477 10.5 13.5 10.5H18.5C19.0523 10.5 19.5 10.9477 19.5 11.5V16.5C19.5 17.0523 19.0523 17.5 18.5 17.5H13.5C12.9477 17.5 12.5 17.0523 12.5 16.5V11.5ZM18.5 11.5H13.5V16.5H18.5V11.5Z" fill="#60666B"/>
<path fill-rule="evenodd" clip-rule="evenodd" d="M16 12.1641C16.2761 12.1641 16.5 12.3879 16.5 12.6641V15.3307C16.5 15.6069 16.2761 15.8307 16 15.8307C15.7239 15.8307 15.5 15.6069 15.5 15.3307V12.6641C15.5 12.3879 15.7239 12.1641 16 12.1641Z" fill="#60666B"/>
<path fill-rule="evenodd" clip-rule="evenodd" d="M14.1665 14C14.1665 13.7239 14.3904 13.5 14.6665 13.5H17.3332C17.6093 13.5 17.8332 13.7239 17.8332 14C17.8332 14.2761 17.6093 14.5 17.3332 14.5H14.6665C14.3904 14.5 14.1665 14.2761 14.1665 14Z" fill="#60666B"/>
<path fill-rule="evenodd" clip-rule="evenodd" d="M5 11C5.27614 11 5.5 11.2239 5.5 11.5V12.3333H6.33333C6.60948 12.3333 6.83333 12.5572 6.83333 12.8333C6.83333 13.1095 6.60948 13.3333 6.33333 13.3333H5C4.72386 13.3333 4.5 13.1095 4.5 12.8333V11.5C4.5 11.2239 4.72386 11 5 11Z" fill="#60666B"/>
<path fill-rule="evenodd" clip-rule="evenodd" d="M8.0001 11.5C6.99191 11.5 6.12206 12.0968 5.72655 12.9586C5.61136 13.2095 5.31453 13.3196 5.06356 13.2044C4.81259 13.0892 4.70251 12.7924 4.8177 12.5414C5.37019 11.3377 6.5868 10.5 8.0001 10.5C9.9331 10.5 11.5001 12.067 11.5001 14C11.5001 15.933 9.9331 17.5 8.0001 17.5C6.26536 17.5 4.82625 16.2384 4.54847 14.5827C4.50278 14.3104 4.68652 14.0526 4.95885 14.0069C5.23119 13.9612 5.489 14.1449 5.53469 14.4173C5.73299 15.5993 6.76185 16.5 8.0001 16.5C9.38082 16.5 10.5001 15.3807 10.5001 14C10.5001 12.6193 9.38082 11.5 8.0001 11.5Z" fill="#60666B"/>
</svg>
