<svg width="24" height="24" viewBox="0 0 24 24" fill="none" xmlns="http://www.w3.org/2000/svg">
<path fill-rule="evenodd" clip-rule="evenodd" d="M21 5H3V19H21V5ZM3 4H21C21.5523 4 22 4.44771 22 5V19C22 19.5523 21.5523 20 21 20H3C2.44771 20 2 19.5523 2 19V5C2 4.44771 2.44771 4 3 4Z" fill="#60666B"/>
<path fill-rule="evenodd" clip-rule="evenodd" d="M8.5 11.5C8.5 10.9477 8.94772 10.5 9.5 10.5H14.5C15.0523 10.5 15.5 10.9477 15.5 11.5V16.5C15.5 17.0523 15.0523 17.5 14.5 17.5H9.5C8.94772 17.5 8.5 17.0523 8.5 16.5V11.5ZM14.5 11.5H9.5V16.5H14.5V11.5Z" fill="#60666B"/>
<path fill-rule="evenodd" clip-rule="evenodd" d="M12 12.1641C12.2761 12.1641 12.5 12.3879 12.5 12.6641V15.3307C12.5 15.6069 12.2761 15.8307 12 15.8307C11.7239 15.8307 11.5 15.6069 11.5 15.3307V12.6641C11.5 12.3879 11.7239 12.1641 12 12.1641Z" fill="#60666B"/>
<path fill-rule="evenodd" clip-rule="evenodd" d="M10.1665 14C10.1665 13.7239 10.3904 13.5 10.6665 13.5H13.3332C13.6093 13.5 13.8332 13.7239 13.8332 14C13.8332 14.2761 13.6093 14.5 13.3332 14.5H10.6665C10.3904 14.5 10.1665 14.2761 10.1665 14Z" fill="#60666B"/>
</svg>
