<svg width="24" height="24" viewBox="0 0 24 24" fill="none" xmlns="http://www.w3.org/2000/svg">
<path fill-rule="evenodd" clip-rule="evenodd" d="M12 20C16.4183 20 20 16.4183 20 12C20 7.58172 16.4183 4 12 4C7.58172 4 4 7.58172 4 12C4 16.4183 7.58172 20 12 20ZM22 12C22 17.5228 17.5228 22 12 22C6.47715 22 2 17.5228 2 12C2 6.47715 6.47715 2 12 2C17.5228 2 22 6.47715 22 12Z" fill="#60666B"/>
<path d="M12.3768 15.0161L17.5 11.9983L12.3768 8.98047V10.8865H6.5V13.1101H12.3768V15.0161Z" fill="#60666B"/>
<path fill-rule="evenodd" clip-rule="evenodd" d="M12.2528 8.76342C12.3307 8.7189 12.4264 8.71953 12.5037 8.76506L17.6269 11.7829C17.7032 11.8278 17.75 11.9098 17.75 11.9983C17.75 12.0868 17.7032 12.1688 17.6269 12.2137L12.5037 15.2315C12.4264 15.2771 12.3307 15.2777 12.2528 15.2332C12.1749 15.1887 12.1268 15.1058 12.1268 15.0161V13.3601H6.5C6.36193 13.3601 6.25 13.2482 6.25 13.1101V10.8865C6.25 10.7484 6.36193 10.6365 6.5 10.6365H12.1268V8.98047C12.1268 8.89076 12.1749 8.80793 12.2528 8.76342ZM12.6268 9.41788V10.8865C12.6268 11.0245 12.5149 11.1365 12.3768 11.1365H6.75V12.8601H12.3768C12.5149 12.8601 12.6268 12.9721 12.6268 13.1101V14.5787L17.0074 11.9983L12.6268 9.41788Z" fill="#60666B"/>
</svg>
