<svg width="24" height="24" viewBox="0 0 24 24" fill="none" xmlns="http://www.w3.org/2000/svg">
<path fill-rule="evenodd" clip-rule="evenodd" d="M12 20C16.4183 20 20 16.4183 20 12C20 7.58172 16.4183 4 12 4C7.58172 4 4 7.58172 4 12C4 16.4183 7.58172 20 12 20ZM22 12C22 17.5228 17.5228 22 12 22C6.47715 22 2 17.5228 2 12C2 6.47715 6.47715 2 12 2C17.5228 2 22 6.47715 22 12Z" fill="#60666B"/>
<path d="M12 7L7.5 16L12 12.2108L16.5 16L12 7Z" fill="#60666B"/>
<path fill-rule="evenodd" clip-rule="evenodd" d="M12 6.5C12.1894 6.5 12.3626 6.607 12.4472 6.77639L16.9472 15.7764C17.0533 15.9885 16.9958 16.246 16.8095 16.3927C16.6232 16.5395 16.3594 16.5352 16.178 16.3825L12 12.8644L7.82209 16.3825C7.64067 16.5352 7.3769 16.5395 7.1906 16.3927C7.00431 16.246 6.94676 15.9885 7.05282 15.7764L11.5528 6.77639C11.6375 6.607 11.8106 6.5 12 6.5ZM9.03005 14.058L11.678 11.8283C11.8641 11.6716 12.136 11.6716 12.3221 11.8283L14.97 14.058L12 8.11803L9.03005 14.058Z" fill="#60666B"/>
</svg>
