<svg width="24" height="24" viewBox="0 0 24 24" fill="none" xmlns="http://www.w3.org/2000/svg">
<path fill-rule="evenodd" clip-rule="evenodd" d="M12 20C16.4183 20 20 16.4183 20 12C20 7.58172 16.4183 4 12 4C7.58172 4 4 7.58172 4 12C4 16.4183 7.58172 20 12 20ZM22 12C22 17.5228 17.5228 22 12 22C6.47715 22 2 17.5228 2 12C2 6.47715 6.47715 2 12 2C17.5228 2 22 6.47715 22 12Z" fill="#60666B"/>
<path fill-rule="evenodd" clip-rule="evenodd" d="M11.5786 7.24299C11.7661 6.919 12.2339 6.919 12.4215 7.24299L16.9337 15.0369C17.1217 15.3616 16.8874 15.7679 16.5123 15.7679H7.48772C7.11258 15.7679 6.8783 15.3616 7.06627 15.0369L11.5786 7.24299Z" fill="#60666B"/>
<path fill-rule="evenodd" clip-rule="evenodd" d="M12.205 7.36826C12.1137 7.21057 11.8861 7.21059 11.7948 7.36825L11.7948 7.36825L7.28251 15.1622C7.19103 15.3202 7.30505 15.5179 7.48761 15.5179H16.5122C16.6947 15.5179 16.8087 15.3202 16.7173 15.1622C16.7173 15.1622 16.7173 15.1622 16.7173 15.1622L12.205 7.36826ZM11.3621 7.11773C11.6459 6.62741 12.3538 6.62744 12.6377 7.11772L12.6377 7.11773L17.15 14.9117L17.15 14.9117C17.4344 15.403 17.0799 16.0179 16.5122 16.0179H7.48761C6.91987 16.0179 6.56534 15.403 6.84979 14.9117L6.84979 14.9117L11.3621 7.11774C11.3621 7.11774 11.3621 7.11773 11.3621 7.11773Z" fill="#60666B"/>
</svg>
