<svg width="24" height="24" viewBox="0 0 24 24" fill="none" xmlns="http://www.w3.org/2000/svg">
<path fill-rule="evenodd" clip-rule="evenodd" d="M12 20C16.4183 20 20 16.4183 20 12C20 7.58172 16.4183 4 12 4C7.58172 4 4 7.58172 4 12C4 16.4183 7.58172 20 12 20ZM22 12C22 17.5228 17.5228 22 12 22C6.47715 22 2 17.5228 2 12C2 6.47715 6.47715 2 12 2C17.5228 2 22 6.47715 22 12Z" fill="#60666B"/>
<path fill-rule="evenodd" clip-rule="evenodd" d="M7.5 8.75L8.75 7.5L12 10.75L15.25 7.5L16.5 8.75L13.25 12L16.5 15.25L15.25 16.5L12 13.25L8.75 16.5L7.5 15.25L10.75 12L7.5 8.75Z" fill="#60666B"/>
<path fill-rule="evenodd" clip-rule="evenodd" d="M8.57322 7.32322C8.67085 7.22559 8.82915 7.22559 8.92678 7.32322L12 10.3964L15.0732 7.32322C15.1709 7.22559 15.3291 7.22559 15.4268 7.32322L16.6768 8.57322C16.7744 8.67085 16.7744 8.82915 16.6768 8.92678L13.6036 12L16.6768 15.0732C16.7744 15.1709 16.7744 15.3291 16.6768 15.4268L15.4268 16.6768C15.3291 16.7744 15.1709 16.7744 15.0732 16.6768L12 13.6036L8.92678 16.6768C8.82915 16.7744 8.67085 16.7744 8.57322 16.6768L7.32322 15.4268C7.22559 15.3291 7.22559 15.1709 7.32322 15.0732L10.3964 12L7.32322 8.92678C7.22559 8.82915 7.22559 8.67085 7.32322 8.57322L8.57322 7.32322ZM7.85355 8.75L10.9268 11.8232C11.0244 11.9209 11.0244 12.0791 10.9268 12.1768L7.85355 15.25L8.75 16.1464L11.8232 13.0732C11.9209 12.9756 12.0791 12.9756 12.1768 13.0732L15.25 16.1464L16.1464 15.25L13.0732 12.1768C12.9756 12.0791 12.9756 11.9209 13.0732 11.8232L16.1464 8.75L15.25 7.85355L12.1768 10.9268C12.0791 11.0244 11.9209 11.0244 11.8232 10.9268L8.75 7.85355L7.85355 8.75Z" fill="#60666B"/>
</svg>
