<svg width="24" height="24" viewBox="0 0 24 24" fill="none" xmlns="http://www.w3.org/2000/svg">
<path fill-rule="evenodd" clip-rule="evenodd" d="M12 20C16.4183 20 20 16.4183 20 12C20 7.58172 16.4183 4 12 4C7.58172 4 4 7.58172 4 12C4 16.4183 7.58172 20 12 20ZM22 12C22 17.5228 17.5228 22 12 22C6.47715 22 2 17.5228 2 12C2 6.47715 6.47715 2 12 2C17.5228 2 22 6.47715 22 12Z" fill="#60666B"/>
<path d="M12.3132 7.10764L16.8037 10.608C16.977 10.7431 17.0442 10.9741 16.9703 11.181L15.1772 16.2041C15.1048 16.4069 14.9127 16.5423 14.6974 16.5423H9.30261C9.08728 16.5423 8.89523 16.4069 8.82284 16.2041L7.02968 11.181C6.95581 10.9741 7.02296 10.743 7.19627 10.608L11.6868 7.10764C11.8709 6.96412 12.1291 6.96412 12.3132 7.10764Z" fill="#60666B"/>
<path fill-rule="evenodd" clip-rule="evenodd" d="M11.8405 7.30481C11.8405 7.30481 11.8405 7.30481 11.8405 7.30482L7.34998 10.8052L7.34996 10.8052C7.26173 10.8739 7.22752 10.9916 7.26515 11.097L9.05831 16.1201C9.09517 16.2233 9.19297 16.2923 9.30262 16.2923H14.6974C14.8071 16.2923 14.9049 16.2233 14.9417 16.1201L16.7349 11.097C16.7725 10.9916 16.7383 10.8739 16.6501 10.8051L12.1595 7.30482C12.0657 7.23173 11.9343 7.23173 11.8405 7.30481ZM11.5331 6.91046C11.8076 6.69651 12.1924 6.69651 12.4669 6.91046L12.4669 6.91046L16.9575 10.4108L16.9575 10.4108C17.2158 10.6122 17.3159 10.9566 17.2058 11.2651L17.2058 11.2651L15.4126 16.2882L15.2298 16.2229L15.4126 16.2882C15.3047 16.5905 15.0184 16.7923 14.6974 16.7923H9.30262C8.98162 16.7923 8.69532 16.5905 8.58741 16.2882L8.82052 16.205L8.58741 16.2882L6.79425 11.2651C6.68412 10.9566 6.78421 10.6122 7.04259 10.4108C7.04259 10.4108 7.04259 10.4108 7.0426 10.4108L11.5331 6.91046L11.5331 6.91046Z" fill="#60666B"/>
</svg>
