<svg width="24" height="24" viewBox="0 0 24 24" fill="none" xmlns="http://www.w3.org/2000/svg">
<path fill-rule="evenodd" clip-rule="evenodd" d="M12 20C16.4183 20 20 16.4183 20 12C20 7.58172 16.4183 4 12 4C7.58172 4 4 7.58172 4 12C4 16.4183 7.58172 20 12 20ZM22 12C22 17.5228 17.5228 22 12 22C6.47715 22 2 17.5228 2 12C2 6.47715 6.47715 2 12 2C17.5228 2 22 6.47715 22 12Z" fill="#60666B"/>
<path d="M6.5 11.9696L11.3276 9.21094V14.7854L6.5 11.9696Z" fill="#60666B"/>
<path fill-rule="evenodd" clip-rule="evenodd" d="M11.5785 8.77848C11.7327 8.86794 11.8276 9.0327 11.8276 9.21094V14.7854C11.8276 14.9644 11.7319 15.1298 11.5766 15.2189C11.4214 15.3081 11.2303 15.3075 11.0757 15.2173L6.24808 12.4015C6.09378 12.3115 5.99921 12.146 6 11.9673C6.0008 11.7887 6.09683 11.6241 6.25193 11.5354L11.0795 8.77682C11.2343 8.68839 11.4244 8.68902 11.5785 8.77848ZM7.50001 11.974L10.8276 13.9149V10.0725L7.50001 11.974Z" fill="#60666B"/>
<path d="M11.6724 11.9696L16.4999 9.21094V14.7854L11.6724 11.9696Z" fill="#60666B"/>
<path fill-rule="evenodd" clip-rule="evenodd" d="M16.7509 8.77848C16.9051 8.86794 16.9999 9.0327 16.9999 9.21094V14.7854C16.9999 14.9644 16.9042 15.1298 16.749 15.2189C16.5937 15.3081 16.4027 15.3075 16.248 15.2173L11.4204 12.4015C11.2661 12.3115 11.1716 12.146 11.1724 11.9673C11.1732 11.7887 11.2692 11.6241 11.4243 11.5354L16.2519 8.77682C16.4066 8.68839 16.5968 8.68902 16.7509 8.77848ZM12.6724 11.974L15.9999 13.9149V10.0725L12.6724 11.974Z" fill="#60666B"/>
</svg>
