<svg width="24" height="24" viewBox="0 0 24 24" fill="none" xmlns="http://www.w3.org/2000/svg">
<path fill-rule="evenodd" clip-rule="evenodd" d="M12 20C16.4183 20 20 16.4183 20 12C20 7.58172 16.4183 4 12 4C7.58172 4 4 7.58172 4 12C4 16.4183 7.58172 20 12 20ZM22 12C22 17.5228 17.5228 22 12 22C6.47715 22 2 17.5228 2 12C2 6.47715 6.47715 2 12 2C17.5228 2 22 6.47715 22 12Z" fill="#60666B"/>
<path d="M7 15.6667H17V12.3333V9H12H7V12.3333V15.6667Z" fill="#60666B"/>
<path fill-rule="evenodd" clip-rule="evenodd" d="M6.5 9C6.5 8.72386 6.72386 8.5 7 8.5H17C17.2761 8.5 17.5 8.72386 17.5 9V15.6667C17.5 15.9428 17.2761 16.1667 17 16.1667H7C6.72386 16.1667 6.5 15.9428 6.5 15.6667V9ZM7.5 9.5V15.1667H16.5V9.5H7.5Z" fill="#60666B"/>
<path fill-rule="evenodd" clip-rule="evenodd" d="M6.58403 8.7227C6.7372 8.49294 7.04764 8.43085 7.2774 8.58403L12.0001 11.7325L16.7227 8.58403C16.9525 8.43085 17.2629 8.49294 17.4161 8.7227C17.5693 8.95247 17.5072 9.2629 17.2774 9.41608L12.2774 12.7494C12.1095 12.8614 11.8907 12.8614 11.7227 12.7494L6.7227 9.41608C6.49294 9.2629 6.43085 8.95247 6.58403 8.7227Z" fill="white"/>
</svg>
