<svg width="24" height="24" viewBox="0 0 24 24" fill="none" xmlns="http://www.w3.org/2000/svg">
<path fill-rule="evenodd" clip-rule="evenodd" d="M12 21C16.9706 21 21 16.9706 21 12C21 7.02944 16.9706 3 12 3C7.02944 3 3 7.02944 3 12C3 16.9706 7.02944 21 12 21ZM22 12C22 17.5228 17.5228 22 12 22C6.47715 22 2 17.5228 2 12C2 6.47715 6.47715 2 12 2C17.5228 2 22 6.47715 22 12Z" fill="#60666B"/>
<path fill-rule="evenodd" clip-rule="evenodd" d="M5.5 8C5.5 7.72386 5.72386 7.5 6 7.5H18C18.2761 7.5 18.5 7.72386 18.5 8V16C18.5 16.2761 18.2761 16.5 18 16.5H6C5.72386 16.5 5.5 16.2761 5.5 16V8ZM6.5 8.5V15.5H17.5V8.5H6.5Z" fill="#60666B"/>
<path fill-rule="evenodd" clip-rule="evenodd" d="M5.58403 7.7227C5.7372 7.49294 6.04764 7.43085 6.2774 7.58403L12.0001 11.3991L17.7227 7.58403C17.9525 7.43085 18.2629 7.49294 18.4161 7.7227C18.5693 7.95247 18.5072 8.2629 18.2774 8.41608L12.2774 12.4161C12.1095 12.528 11.8907 12.528 11.7227 12.4161L5.7227 8.41608C5.49294 8.2629 5.43085 7.95247 5.58403 7.7227Z" fill="#60666B"/>
</svg>
