<svg width="24" height="24" viewBox="0 0 24 24" fill="none" xmlns="http://www.w3.org/2000/svg">
<path fill-rule="evenodd" clip-rule="evenodd" d="M12 21C16.9706 21 21 16.9706 21 12C21 7.02944 16.9706 3 12 3C7.02944 3 3 7.02944 3 12C3 16.9706 7.02944 21 12 21ZM22 12C22 17.5228 17.5228 22 12 22C6.47715 22 2 17.5228 2 12C2 6.47715 6.47715 2 12 2C17.5228 2 22 6.47715 22 12Z" fill="#60666B"/>
<path fill-rule="evenodd" clip-rule="evenodd" d="M16.4001 6C16.6763 6 16.9001 6.22386 16.9001 6.5L16.9001 17.5C16.9001 17.7761 16.6763 18 16.4001 18L7.60015 18C7.324 18 7.10015 17.7761 7.10015 17.5L7.10015 6.5C7.10015 6.22386 7.324 6 7.60015 6L16.4001 6ZM15.9001 7L8.10015 7L8.10015 17L15.9001 17L15.9001 7Z" fill="#60666B"/>
<path fill-rule="evenodd" clip-rule="evenodd" d="M9.30005 10.8984C9.30005 10.6223 9.52391 10.3984 9.80005 10.3984H12C12.2762 10.3984 12.5 10.6223 12.5 10.8984C12.5 11.1746 12.2762 11.3984 12 11.3984H9.80005C9.52391 11.3984 9.30005 11.1746 9.30005 10.8984Z" fill="#60666B"/>
<path fill-rule="evenodd" clip-rule="evenodd" d="M9.30005 13.1016C9.30005 12.8254 9.52391 12.6016 9.80005 12.6016H13.1C13.3762 12.6016 13.6 12.8254 13.6 13.1016C13.6 13.3777 13.3762 13.6016 13.1 13.6016H9.80005C9.52391 13.6016 9.30005 13.3777 9.30005 13.1016Z" fill="#60666B"/>
<path fill-rule="evenodd" clip-rule="evenodd" d="M9.30005 15.3008C9.30005 15.0246 9.52391 14.8008 9.80005 14.8008H12C12.2762 14.8008 12.5 15.0246 12.5 15.3008C12.5 15.5769 12.2762 15.8008 12 15.8008H9.80005C9.52391 15.8008 9.30005 15.5769 9.30005 15.3008Z" fill="#60666B"/>
<path fill-rule="evenodd" clip-rule="evenodd" d="M9.30005 8.69922C9.30005 8.42308 9.52391 8.19922 9.80005 8.19922H14.2C14.4762 8.19922 14.7 8.42308 14.7 8.69922C14.7 8.97536 14.4762 9.19922 14.2 9.19922H9.80005C9.52391 9.19922 9.30005 8.97536 9.30005 8.69922Z" fill="#60666B"/>
</svg>
