<svg width="24" height="24" viewBox="0 0 24 24" fill="none" xmlns="http://www.w3.org/2000/svg">
<path fill-rule="evenodd" clip-rule="evenodd" d="M12 21C16.9706 21 21 16.9706 21 12C21 7.02944 16.9706 3 12 3C7.02944 3 3 7.02944 3 12C3 16.9706 7.02944 21 12 21ZM22 12C22 17.5228 17.5228 22 12 22C6.47715 22 2 17.5228 2 12C2 6.47715 6.47715 2 12 2C17.5228 2 22 6.47715 22 12Z" fill="#60666B"/>
<path fill-rule="evenodd" clip-rule="evenodd" d="M12 6.5C12.1894 6.5 12.3626 6.607 12.4472 6.77639L17.4472 16.7764C17.5533 16.9885 17.4958 17.246 17.3095 17.3927C17.1232 17.5395 16.8594 17.5352 16.678 17.3825L12 13.4434L7.32209 17.3825C7.14067 17.5352 6.8769 17.5395 6.6906 17.3927C6.50431 17.246 6.44676 16.9885 6.55282 16.7764L11.5528 6.77639C11.6375 6.607 11.8106 6.5 12 6.5ZM8.53005 15.058L11.678 12.4073C11.8641 12.2506 12.136 12.2506 12.3221 12.4073L15.47 15.058L12 8.11803L8.53005 15.058Z" fill="#60666B"/>
</svg>
