<svg width="24" height="24" viewBox="0 0 24 24" fill="none" xmlns="http://www.w3.org/2000/svg">
<path fill-rule="evenodd" clip-rule="evenodd" d="M12 21C16.9706 21 21 16.9706 21 12C21 7.02944 16.9706 3 12 3C7.02944 3 3 7.02944 3 12C3 16.9706 7.02944 21 12 21ZM22 12C22 17.5228 17.5228 22 12 22C6.47715 22 2 17.5228 2 12C2 6.47715 6.47715 2 12 2C17.5228 2 22 6.47715 22 12Z" fill="#60666B"/>
<path fill-rule="evenodd" clip-rule="evenodd" d="M11.9815 7.00427C11.9789 7.00571 11.9745 7.00852 11.9691 7.0178L11.9691 7.01781L7.00562 15.5911C7.00562 15.5911 7.00562 15.5911 7.00562 15.5911C7.00022 15.6004 6.99997 15.6056 7.00002 15.6086C7.00009 15.6131 7.00147 15.6197 7.00559 15.6268C7.00971 15.634 7.01473 15.6385 7.01858 15.6408C7.02112 15.6423 7.02574 15.6447 7.03651 15.6447H16.9635C16.9743 15.6447 16.9789 15.6423 16.9814 15.6408C16.9853 15.6385 16.9903 15.634 16.9944 15.6268C16.9986 15.6197 16.9999 15.6131 17 15.6086C17.0001 15.6056 16.9998 15.6004 16.9944 15.5911M16.9944 15.5911L12.0309 7.01783C12.0309 7.01782 12.0309 7.01782 12.0309 7.01781C12.0255 7.00853 12.0212 7.00572 12.0186 7.00427C12.0146 7.00209 12.0082 7 12 7C11.9918 7 11.9854 7.00209 11.9815 7.00427M11.1037 6.51677C11.5026 5.82772 12.4974 5.82777 12.8963 6.51676L12.8963 6.51677L17.8598 15.0901L17.8598 15.0901C18.2596 15.7806 17.7614 16.6447 16.9635 16.6447H7.03651C6.23868 16.6447 5.74046 15.7806 6.14019 15.0901L6.14019 15.0901L11.1037 6.51678C11.1037 6.51678 11.1037 6.51678 11.1037 6.51677Z" fill="#60666B"/>
</svg>
