<svg width="24" height="24" viewBox="0 0 24 24" fill="none" xmlns="http://www.w3.org/2000/svg">
<path fill-rule="evenodd" clip-rule="evenodd" d="M12 21C16.9706 21 21 16.9706 21 12C21 7.02944 16.9706 3 12 3C7.02944 3 3 7.02944 3 12C3 16.9706 7.02944 21 12 21ZM22 12C22 17.5228 17.5228 22 12 22C6.47715 22 2 17.5228 2 12C2 6.47715 6.47715 2 12 2C17.5228 2 22 6.47715 22 12Z" fill="#60666B"/>
<path fill-rule="evenodd" clip-rule="evenodd" d="M12.163 8.27684C12.3187 8.18781 12.5103 8.18906 12.6649 8.28012L18.2538 11.5723C18.4063 11.6622 18.5 11.826 18.5 12.0031C18.5 12.1802 18.4063 12.3441 18.2538 12.4339L12.6649 15.7261C12.5103 15.8172 12.3187 15.8184 12.163 15.7294C12.0072 15.6404 11.9111 15.4747 11.9111 15.2953V13.716H6C5.72386 13.716 5.5 13.4922 5.5 13.216V10.7902C5.5 10.5141 5.72386 10.2902 6 10.2902H11.9111V8.71094C11.9111 8.53152 12.0072 8.36586 12.163 8.27684ZM12.9111 9.58576V10.7902C12.9111 11.0664 12.6872 11.2902 12.4111 11.2902H6.5V12.716H12.4111C12.6872 12.716 12.9111 12.9399 12.9111 13.216V14.4205L17.0149 12.0031L12.9111 9.58576Z" fill="#60666B"/>
</svg>
