<svg width="24" height="24" viewBox="0 0 24 24" fill="none" xmlns="http://www.w3.org/2000/svg">
<path fill-rule="evenodd" clip-rule="evenodd" d="M12 21C16.9706 21 21 16.9706 21 12C21 7.02944 16.9706 3 12 3C7.02944 3 3 7.02944 3 12C3 16.9706 7.02944 21 12 21ZM22 12C22 17.5228 17.5228 22 12 22C6.47715 22 2 17.5228 2 12C2 6.47715 6.47715 2 12 2C17.5228 2 22 6.47715 22 12Z" fill="#60666B"/>
<path fill-rule="evenodd" clip-rule="evenodd" d="M11.9791 7.30793C11.9791 7.30794 11.9791 7.30794 11.9791 7.30794L7.27311 10.9762L7.27308 10.9762C7.26161 10.9851 7.25713 11.0005 7.26204 11.0142L6.85135 11.1609L7.26204 11.0142L9.14122 16.2783L8.67032 16.4464L9.14122 16.2783C9.14603 16.2918 9.15878 16.3008 9.1731 16.3008H14.8267C14.841 16.3008 14.8537 16.2918 14.8585 16.2783L16.7377 11.0143C16.7377 11.0143 16.7377 11.0143 16.7377 11.0142C16.7426 11.0005 16.7381 10.9851 16.7267 10.9762M16.7266 10.9762L12.0207 7.30794C12.0207 7.30794 12.0207 7.30793 12.0207 7.30793C12.0085 7.2984 11.9913 7.2984 11.9791 7.30793M11.3643 6.51923C11.738 6.22797 12.2618 6.22797 12.6355 6.51923L12.6355 6.51923L17.3414 10.1875L17.3414 10.1875C17.6932 10.4617 17.8294 10.9305 17.6795 11.3504L17.6795 11.3504L15.8003 16.6145C15.6534 17.026 15.2637 17.3008 14.8267 17.3008H9.1731C8.7361 17.3008 8.34633 17.026 8.19943 16.6145L8.66799 16.4472L8.19943 16.6145L6.32025 11.3504C6.17033 10.9305 6.30658 10.4616 6.65833 10.1875C6.65834 10.1875 6.65835 10.1875 6.65836 10.1875L11.3643 6.51923L11.3643 6.51923Z" fill="#60666B"/>
</svg>
