<svg width="24" height="24" viewBox="0 0 24 24" fill="none" xmlns="http://www.w3.org/2000/svg">
<path fill-rule="evenodd" clip-rule="evenodd" d="M12 21C16.9706 21 21 16.9706 21 12C21 7.02944 16.9706 3 12 3C7.02944 3 3 7.02944 3 12C3 16.9706 7.02944 21 12 21ZM22 12C22 17.5228 17.5228 22 12 22C6.47715 22 2 17.5228 2 12C2 6.47715 6.47715 2 12 2C17.5228 2 22 6.47715 22 12Z" fill="#60666B"/>
<path fill-rule="evenodd" clip-rule="evenodd" d="M12 6C8.68627 6 6 8.68627 6 12C6 15.3136 8.68627 17.9999 12 17.9999C15.3136 17.9999 17.9999 15.3136 17.9999 12C17.9999 8.68627 15.3136 6 12 6ZM5 12C5 8.13399 8.13399 5 12 5C15.8659 5 18.9999 8.13399 18.9999 12C18.9999 15.8659 15.8659 18.9999 12 18.9999C8.13399 18.9999 5 15.8659 5 12Z" fill="#60666B"/>
<path fill-rule="evenodd" clip-rule="evenodd" d="M12 16.918C12.2761 16.918 12.5 17.1418 12.5 17.418V18.5013C12.5 18.7774 12.2761 19.0013 12 19.0013C11.7239 19.0013 11.5 18.7774 11.5 18.5013V17.418C11.5 17.1418 11.7239 16.918 12 16.918Z" fill="#60666B"/>
<path fill-rule="evenodd" clip-rule="evenodd" d="M16.9167 12C16.9167 11.7239 17.1406 11.5 17.4167 11.5H18.5001C18.7762 11.5 19.0001 11.7239 19.0001 12C19.0001 12.2761 18.7762 12.5 18.5001 12.5H17.4167C17.1406 12.5 16.9167 12.2761 16.9167 12Z" fill="#60666B"/>
<path fill-rule="evenodd" clip-rule="evenodd" d="M5 12C5 11.7239 5.22386 11.5 5.5 11.5H6.58333C6.85947 11.5 7.08333 11.7239 7.08333 12C7.08333 12.2761 6.85947 12.5 6.58333 12.5H5.5C5.22386 12.5 5 12.2761 5 12Z" fill="#60666B"/>
<path fill-rule="evenodd" clip-rule="evenodd" d="M12 5C12.2761 5 12.5 5.22386 12.5 5.5V6.58333C12.5 6.85947 12.2761 7.08333 12 7.08333C11.7239 7.08333 11.5 6.85947 11.5 6.58333V5.5C11.5 5.22386 11.7239 5 12 5Z" fill="#60666B"/>
<path fill-rule="evenodd" clip-rule="evenodd" d="M9.54166 16.2578C9.7808 16.3959 9.86274 16.7017 9.72467 16.9408L9.183 17.879C9.04493 18.1182 8.73914 18.2001 8.49999 18.062C8.26085 17.924 8.17891 17.6182 8.31698 17.379L8.85864 16.4408C8.99671 16.2017 9.30251 16.1197 9.54166 16.2578Z" fill="#60666B"/>
<path fill-rule="evenodd" clip-rule="evenodd" d="M16.2578 14.4565C16.3959 14.2173 16.7017 14.1354 16.9408 14.2734L17.879 14.8151C18.1182 14.9532 18.2001 15.259 18.062 15.4981C17.924 15.7373 17.6182 15.8192 17.379 15.6811L16.4408 15.1395C16.2017 15.0014 16.1197 14.6956 16.2578 14.4565Z" fill="#60666B"/>
<path fill-rule="evenodd" clip-rule="evenodd" d="M5.93799 8.49942C6.07606 8.26027 6.38185 8.17834 6.621 8.31641L7.55919 8.85807C7.79834 8.99614 7.88027 9.30194 7.7422 9.54108C7.60413 9.78023 7.29834 9.86217 7.05919 9.7241L6.121 9.18243C5.88185 9.04436 5.79992 8.73857 5.93799 8.49942Z" fill="#60666B"/>
<path fill-rule="evenodd" clip-rule="evenodd" d="M15.4999 5.9375C15.7391 6.07557 15.821 6.38137 15.6829 6.62051L15.1413 7.5587C15.0032 7.79785 14.6974 7.87979 14.4582 7.74171C14.2191 7.60364 14.1372 7.29785 14.2752 7.0587L14.8169 6.12051C14.955 5.88137 15.2608 5.79943 15.4999 5.9375Z" fill="#60666B"/>
<path fill-rule="evenodd" clip-rule="evenodd" d="M7.74194 14.4565C7.88001 14.6956 7.79808 15.0014 7.55893 15.1395L6.62074 15.6811C6.3816 15.8192 6.0758 15.7373 5.93773 15.4981C5.79966 15.259 5.8816 14.9532 6.12074 14.8151L7.05893 14.2734C7.29808 14.1354 7.60387 14.2173 7.74194 14.4565Z" fill="#60666B"/>
<path fill-rule="evenodd" clip-rule="evenodd" d="M14.4593 16.2578C14.6985 16.1197 15.0043 16.2017 15.1423 16.4408L15.684 17.379C15.8221 17.6182 15.7401 17.924 15.501 18.062C15.2618 18.2001 14.956 18.1182 14.818 17.879L14.2763 16.9408C14.1382 16.7017 14.2202 16.3959 14.4593 16.2578Z" fill="#60666B"/>
<path fill-rule="evenodd" clip-rule="evenodd" d="M8.50083 5.9375C8.73997 5.79943 9.04577 5.88137 9.18384 6.12051L9.7255 7.0587C9.86357 7.29785 9.78163 7.60364 9.54249 7.74171C9.30334 7.87979 8.99755 7.79785 8.85948 7.5587L8.31781 6.62051C8.17974 6.38137 8.26168 6.07557 8.50083 5.9375Z" fill="#60666B"/>
<path fill-rule="evenodd" clip-rule="evenodd" d="M18.0625 8.49942C18.2006 8.73857 18.1186 9.04436 17.8795 9.18243L16.9413 9.72409C16.7022 9.86217 16.3964 9.78023 16.2583 9.54108C16.1202 9.30194 16.2022 8.99614 16.4413 8.85807L17.3795 8.31641C17.6186 8.17834 17.9244 8.26027 18.0625 8.49942Z" fill="#60666B"/>
<path fill-rule="evenodd" clip-rule="evenodd" d="M12.0031 7.59766C12.2793 7.59768 12.5031 7.82156 12.5031 8.09771L12.5027 11.7934L15.112 14.4027C15.3073 14.598 15.3073 14.9146 15.112 15.1098C14.9168 15.3051 14.6002 15.3051 14.4049 15.1098L11.6491 12.354C11.5554 12.2603 11.5027 12.1331 11.5027 12.0004L11.5031 8.09761C11.5031 7.82146 11.727 7.59763 12.0031 7.59766Z" fill="#60666B"/>
</svg>
