<svg width="24" height="24" viewBox="0 0 24 24" fill="none" xmlns="http://www.w3.org/2000/svg">
<path fill-rule="evenodd" clip-rule="evenodd" d="M12 21C16.9706 21 21 16.9706 21 12C21 7.02944 16.9706 3 12 3C7.02944 3 3 7.02944 3 12C3 16.9706 7.02944 21 12 21ZM22 12C22 17.5228 17.5228 22 12 22C6.47715 22 2 17.5228 2 12C2 6.47715 6.47715 2 12 2C17.5228 2 22 6.47715 22 12Z" fill="#60666B"/>
<path fill-rule="evenodd" clip-rule="evenodd" d="M11.5441 8.2277C11.6982 8.31716 11.7931 8.48192 11.7931 8.66016V15.3495C11.7931 15.5285 11.6974 15.6939 11.5421 15.783C11.3869 15.8722 11.1958 15.8716 11.0412 15.7814L5.24808 12.4024C5.09378 12.3124 4.99921 12.1469 5 11.9683C5.0008 11.7896 5.09683 11.625 5.25193 11.5364L11.045 8.22603C11.1998 8.13761 11.3899 8.13824 11.5441 8.2277ZM6.50001 11.9749L10.7931 14.479V9.52175L6.50001 11.9749Z" fill="#60666B"/>
<path fill-rule="evenodd" clip-rule="evenodd" d="M17.7509 8.2277C17.905 8.31716 17.9999 8.48192 17.9999 8.66016V15.3495C17.9999 15.5285 17.9042 15.6939 17.7489 15.783C17.5937 15.8722 17.4026 15.8716 17.248 15.7814L11.4549 12.4024C11.3006 12.3124 11.206 12.1469 11.2068 11.9683C11.2076 11.7896 11.3036 11.625 11.4587 11.5364L17.2518 8.22603C17.4066 8.13761 17.5967 8.13824 17.7509 8.2277ZM12.7068 11.9749L16.9999 14.479V9.52175L12.7068 11.9749Z" fill="#60666B"/>
</svg>
