<svg width="24" height="24" viewBox="0 0 24 24" fill="none" xmlns="http://www.w3.org/2000/svg">
<path fill-rule="evenodd" clip-rule="evenodd" d="M12 21C16.9706 21 21 16.9706 21 12C21 7.02944 16.9706 3 12 3C7.02944 3 3 7.02944 3 12C3 16.9706 7.02944 21 12 21ZM22 12C22 17.5228 17.5228 22 12 22C6.47715 22 2 17.5228 2 12C2 6.47715 6.47715 2 12 2C17.5228 2 22 6.47715 22 12Z" fill="#60666B"/>
<path fill-rule="evenodd" clip-rule="evenodd" d="M6.37688 17.4188C6.58123 17.5521 6.8519 17.5184 7.01736 17.3391L10.8897 13.1441L13.3884 16.5798C13.4962 16.728 13.6764 16.8053 13.858 16.7814C14.0397 16.7575 14.1937 16.6362 14.2595 16.4652L17.8309 7.17947C17.9215 6.94401 17.8224 6.67797 17.6 6.55904C17.3775 6.4401 17.1012 6.50554 16.9558 6.71164L13.0903 12.1877L10.6374 8.50835C10.5359 8.35607 10.3593 8.27142 10.177 8.28768C9.99468 8.30393 9.83583 8.41849 9.76285 8.58634L6.19142 16.8006C6.09416 17.0243 6.17253 17.2856 6.37688 17.4188ZM8.28652 14.4899L10.3142 9.82627L12.6625 13.3488C12.7539 13.4859 12.9071 13.5692 13.0719 13.5714C13.2367 13.5736 13.392 13.4944 13.487 13.3598L15.4545 10.5725L13.6563 15.2479L11.34 12.063C11.252 11.942 11.1143 11.8667 10.9648 11.858C10.8153 11.8493 10.6698 11.908 10.5683 12.018L8.28652 14.4899Z" fill="#60666B"/>
</svg>
