<svg width="24" height="24" viewBox="0 0 24 24" fill="none" xmlns="http://www.w3.org/2000/svg">
<g id="Frame">
<path id="Vector" d="M12 22C17.5229 22 22 17.5229 22 12C22 6.47715 17.5229 2 12 2C6.47715 2 2 6.47715 2 12C2 17.5229 6.47715 22 12 22Z" stroke="#60666B" stroke-linecap="round" stroke-linejoin="round"/>
<path id="Vector_2" d="M13.0608 10.9395L10.9395 13.0608" stroke="#60666B" stroke-linecap="round" stroke-linejoin="round"/>
<path id="Vector_3" d="M16.2425 13.4141L16.9496 12.707C17.7307 11.926 17.7307 10.6596 16.9496 9.87859L14.1212 7.05014C13.3402 6.26909 12.0738 6.26909 11.2928 7.05014L10.5857 7.75729" stroke="#60666B" stroke-linecap="round" stroke-linejoin="round"/>
<path id="Vector_4" d="M13.4141 16.2425L12.707 16.9496C11.9259 17.7307 10.6596 17.7307 9.87859 16.9496L7.05014 14.1212C6.26909 13.3402 6.26909 12.0738 7.05014 11.2928L7.75724 10.5857" stroke="#60666B" stroke-linecap="round" stroke-linejoin="round"/>
</g>
</svg>
