<svg width="24" height="24" viewBox="0 0 24 24" fill="none" xmlns="http://www.w3.org/2000/svg">
<g id="Frame">
<path id="Vector" d="M5 14V17.5H9" stroke="#60666B" stroke-linecap="round" stroke-linejoin="round"/>
<path id="Vector_2" d="M9 14H21V21H9V17.5V14Z" stroke="#60666B" stroke-linecap="round" stroke-linejoin="round"/>
<path id="Vector_3" d="M3 6.75V6.25" stroke="#60666B" stroke-linecap="round" stroke-linejoin="round"/>
<path id="Vector_4" d="M3 10V9.5" stroke="#60666B" stroke-linecap="round" stroke-linejoin="round"/>
<path id="Vector_5" d="M3 3.5V3" stroke="#60666B" stroke-linecap="round" stroke-linejoin="round"/>
<path id="Vector_6" d="M16 6.75V6.25" stroke="#60666B" stroke-linecap="round" stroke-linejoin="round"/>
<path id="Vector_7" d="M16 10V9.5" stroke="#60666B" stroke-linecap="round" stroke-linejoin="round"/>
<path id="Vector_8" d="M16 3.5V3" stroke="#60666B" stroke-linecap="round" stroke-linejoin="round"/>
<path id="Vector_9" d="M16 10H15.5" stroke="#60666B" stroke-linecap="round" stroke-linejoin="round"/>
<path id="Vector_10" d="M3.5 10H3" stroke="#60666B" stroke-linecap="round" stroke-linejoin="round"/>
<path id="Vector_11" d="M3.5 3H3" stroke="#60666B" stroke-linecap="round" stroke-linejoin="round"/>
<path id="Vector_12" d="M6.5 3H6" stroke="#60666B" stroke-linecap="round" stroke-linejoin="round"/>
<path id="Vector_13" d="M9.75 3H9.25" stroke="#60666B" stroke-linecap="round" stroke-linejoin="round"/>
<path id="Vector_14" d="M9.75 10H9.25" stroke="#60666B" stroke-linecap="round" stroke-linejoin="round"/>
<path id="Vector_15" d="M13 3H12.5" stroke="#60666B" stroke-linecap="round" stroke-linejoin="round"/>
<path id="Vector_16" d="M6.5 10H6" stroke="#60666B" stroke-linecap="round" stroke-linejoin="round"/>
<path id="Vector_17" d="M13 10H12.5" stroke="#60666B" stroke-linecap="round" stroke-linejoin="round"/>
<path id="Vector_18" d="M16 3H15.5" stroke="#60666B" stroke-linecap="round" stroke-linejoin="round"/>
</g>
</svg>
