<svg width="24" height="24" viewBox="0 0 24 24" fill="none" xmlns="http://www.w3.org/2000/svg">
<g id="Frame">
<path id="Vector" d="M22 12V20.4091C22 21.0116 21.5523 21.5 21 21.5H3C2.44771 21.5 2 21.0116 2 20.4091V12L12 18.5L22 12Z" stroke="#60666B" stroke-linejoin="round"/>
<path id="Vector_2" d="M2 11.892L7 8.44604M22 11.892L17 8.44604" stroke="#60666B" stroke-linecap="round" stroke-linejoin="round"/>
<path id="Vector_3" d="M17 2.5H7V14.7073C7 15.0458 7.1712 15.3613 7.455 15.5458L11.455 18.1458C11.7864 18.3612 12.2136 18.3612 12.545 18.1458L16.545 15.5458C16.8288 15.3613 17 15.0458 17 14.7073V2.5Z" stroke="#60666B" stroke-linejoin="round"/>
<path id="Vector_4" d="M10 6.5H12" stroke="#60666B" stroke-linecap="round" stroke-linejoin="round"/>
<path id="Vector_5" d="M10 9.5H14" stroke="#60666B" stroke-linecap="round" stroke-linejoin="round"/>
</g>
</svg>
