<svg width="24" height="24" viewBox="0 0 24 24" fill="none" xmlns="http://www.w3.org/2000/svg">
<path fill-rule="evenodd" clip-rule="evenodd" d="M3.5 3C3.5 2.17157 4.17157 1.5 5 1.5H15C15.2761 1.5 15.5 1.72386 15.5 2V6.5H20C20.2761 6.5 20.5 6.72386 20.5 7V21C20.5 21.8284 19.8284 22.5 19 22.5H5C4.17158 22.5 3.5 21.8284 3.5 21V3ZM5 2.5C4.72386 2.5 4.5 2.72386 4.5 3V21C4.5 21.2762 4.72385 21.5 5 21.5H19C19.2762 21.5 19.5 21.2762 19.5 21V7.5H15C14.7239 7.5 14.5 7.27614 14.5 7V2.5H5Z" fill="#60666B"/>
<path fill-rule="evenodd" clip-rule="evenodd" d="M14.6464 1.64645C14.8417 1.45118 15.1583 1.45118 15.3536 1.64645L20.3536 6.64645C20.5488 6.84171 20.5488 7.15829 20.3536 7.35355C20.1583 7.54882 19.8417 7.54882 19.6464 7.35355L14.6464 2.35355C14.4512 2.15829 14.4512 1.84171 14.6464 1.64645Z" fill="#60666B"/>
<path fill-rule="evenodd" clip-rule="evenodd" d="M12 22.3516C11.5858 22.3516 11.25 22.0158 11.25 21.6016L11.25 16.6016C11.25 16.1873 11.5858 15.8516 12 15.8516C12.4142 15.8516 12.75 16.1873 12.75 16.6016L12.75 21.6016C12.75 22.0158 12.4142 22.3516 12 22.3516Z" fill="#60666B"/>
<path fill-rule="evenodd" clip-rule="evenodd" d="M14 22.3516C13.5858 22.3516 13.25 22.0158 13.25 21.6016L13.25 16.6016C13.25 16.1873 13.5858 15.8516 14 15.8516C14.4142 15.8516 14.75 16.1873 14.75 16.6016L14.75 21.6016C14.75 22.0158 14.4142 22.3516 14 22.3516Z" fill="#60666B"/>
<path fill-rule="evenodd" clip-rule="evenodd" d="M10 22.3516C9.58579 22.3516 9.25 22.0158 9.25 21.6016L9.25 16.6016C9.25 16.1873 9.58579 15.8516 10 15.8516C10.4142 15.8516 10.75 16.1873 10.75 16.6016L10.75 21.6016C10.75 22.0158 10.4142 22.3516 10 22.3516Z" fill="#60666B"/>
</svg>
