<svg width="24" height="24" viewBox="0 0 24 24" fill="none" xmlns="http://www.w3.org/2000/svg">
<path fill-rule="evenodd" clip-rule="evenodd" d="M3.5 3C3.5 2.17157 4.17157 1.5 5 1.5H15C15.2761 1.5 15.5 1.72386 15.5 2V6.5H20C20.2761 6.5 20.5 6.72386 20.5 7V21C20.5 21.8284 19.8284 22.5 19 22.5H5C4.17158 22.5 3.5 21.8284 3.5 21V3ZM5 2.5C4.72386 2.5 4.5 2.72386 4.5 3V21C4.5 21.2762 4.72385 21.5 5 21.5H19C19.2762 21.5 19.5 21.2762 19.5 21V7.5H15C14.7239 7.5 14.5 7.27614 14.5 7V2.5H5Z" fill="#60666B"/>
<path fill-rule="evenodd" clip-rule="evenodd" d="M14.6464 1.64645C14.8417 1.45118 15.1583 1.45118 15.3536 1.64645L20.3536 6.64645C20.5488 6.84171 20.5488 7.15829 20.3536 7.35355C20.1583 7.54882 19.8417 7.54882 19.6464 7.35355L14.6464 2.35355C14.4512 2.15829 14.4512 1.84171 14.6464 1.64645Z" fill="#60666B"/>
<path fill-rule="evenodd" clip-rule="evenodd" d="M9.50716 3.15428C9.63177 3.08306 9.78499 3.08406 9.90866 3.15691L12.7031 4.803C12.8252 4.8749 12.9001 5.00599 12.9001 5.14765C12.9001 5.28931 12.8252 5.4204 12.7031 5.4923L9.90866 7.13839C9.78499 7.21124 9.63177 7.21225 9.50716 7.14102C9.38254 7.0698 9.30564 6.93727 9.30564 6.79374V6.15411H6.5001C6.27918 6.15411 6.1001 5.97502 6.1001 5.75411V4.5412C6.1001 4.32028 6.27918 4.1412 6.5001 4.1412H9.30564V3.50156C9.30564 3.35803 9.38254 3.2255 9.50716 3.15428ZM10.1056 4.20142V4.5412C10.1056 4.76211 9.92656 4.9412 9.70564 4.9412H6.9001V5.35411H9.70564C9.92656 5.35411 10.1056 5.53319 10.1056 5.75411V6.09388L11.712 5.14765L10.1056 4.20142Z" fill="#60666B"/>
</svg>
