<svg width="24" height="24" viewBox="0 0 24 24" fill="none" xmlns="http://www.w3.org/2000/svg">
<path fill-rule="evenodd" clip-rule="evenodd" d="M3.5 3C3.5 2.17157 4.17157 1.5 5 1.5H15C15.2761 1.5 15.5 1.72386 15.5 2V6.5H20C20.2761 6.5 20.5 6.72386 20.5 7V21C20.5 21.8284 19.8284 22.5 19 22.5H5C4.17158 22.5 3.5 21.8284 3.5 21V3ZM5 2.5C4.72386 2.5 4.5 2.72386 4.5 3V21C4.5 21.2762 4.72385 21.5 5 21.5H19C19.2762 21.5 19.5 21.2762 19.5 21V7.5H15C14.7239 7.5 14.5 7.27614 14.5 7V2.5H5Z" fill="#60666B"/>
<path fill-rule="evenodd" clip-rule="evenodd" d="M14.6464 1.64645C14.8417 1.45118 15.1583 1.45118 15.3536 1.64645L20.3536 6.64645C20.5488 6.84171 20.5488 7.15829 20.3536 7.35355C20.1583 7.54882 19.8417 7.54882 19.6464 7.35355L14.6464 2.35355C14.4512 2.15829 14.4512 1.84171 14.6464 1.64645Z" fill="#60666B"/>
<path d="M9.70554 6.79218L12.5 5.14609L9.70554 3.5V4.53964H6.5V5.75255H9.70554V6.79218Z" fill="#60666B"/>
<path fill-rule="evenodd" clip-rule="evenodd" d="M9.58149 3.28295C9.65937 3.23844 9.75514 3.23906 9.83243 3.28459L12.6269 4.93068C12.7032 4.97562 12.75 5.05755 12.75 5.14609C12.75 5.23463 12.7032 5.31656 12.6269 5.3615L9.83243 7.00759C9.75514 7.05312 9.65937 7.05375 9.58149 7.00923C9.50361 6.96472 9.45554 6.88189 9.45554 6.79218V6.00255H6.5C6.36193 6.00255 6.25 5.89062 6.25 5.75255V4.53964C6.25 4.40156 6.36193 4.28964 6.5 4.28964H9.45554V3.5C9.45554 3.41029 9.50361 3.32746 9.58149 3.28295ZM9.95554 3.93741V4.53964C9.95554 4.67771 9.84362 4.78964 9.70554 4.78964H6.75V5.50255H9.70554C9.84362 5.50255 9.95554 5.61447 9.95554 5.75255V6.35477L12.0074 5.14609L9.95554 3.93741Z" fill="#60666B"/>
</svg>
