<svg width="24" height="24" viewBox="0 0 24 24" fill="none" xmlns="http://www.w3.org/2000/svg">
<path fill-rule="evenodd" clip-rule="evenodd" d="M3.99653 5.05687C3.59024 5.34504 3.5 5.56961 3.5 5.7C3.5 5.83038 3.59024 6.05496 3.99653 6.34313C4.38983 6.62209 4.99137 6.89377 5.77971 7.13027C7.35003 7.60137 9.54936 7.9 12 7.9C14.4506 7.9 16.65 7.60137 18.2203 7.13027C19.0086 6.89377 19.6102 6.62209 20.0035 6.34313C20.4098 6.05496 20.5 5.83038 20.5 5.7C20.5 5.56961 20.4098 5.34504 20.0035 5.05687C19.6102 4.77791 19.0086 4.50623 18.2203 4.26972C16.65 3.79863 14.4506 3.5 12 3.5C9.54936 3.5 7.35003 3.79863 5.77971 4.26972C4.99137 4.50623 4.38983 4.77791 3.99653 5.05687ZM5.49236 3.3119C7.17941 2.80578 9.48008 2.5 12 2.5C14.5199 2.5 16.8206 2.80578 18.5076 3.3119C19.348 3.564 20.0644 3.87412 20.582 4.24121C21.0866 4.59908 21.5 5.0848 21.5 5.7C21.5 6.3152 21.0866 6.80091 20.582 7.15879C20.0644 7.52588 19.348 7.836 18.5076 8.0881C16.8206 8.59421 14.5199 8.9 12 8.9C9.48008 8.9 7.17941 8.59421 5.49236 8.0881C4.65202 7.836 3.93555 7.52588 3.418 7.15879C2.91344 6.80091 2.5 6.3152 2.5 5.7C2.5 5.0848 2.91344 4.59908 3.418 4.24121C3.93555 3.87412 4.65203 3.564 5.49236 3.3119Z" fill="#60666B"/>
<path fill-rule="evenodd" clip-rule="evenodd" d="M3 7.22656C3.27614 7.22656 3.5 7.45042 3.5 7.72656C3.5 7.85695 3.59024 8.08152 3.99653 8.36969C4.38983 8.64865 4.99137 8.92033 5.77971 9.15684C7.35003 9.62793 9.54936 9.92656 12 9.92656C14.4506 9.92656 16.65 9.62793 18.2203 9.15684C19.0086 8.92033 19.6102 8.64865 20.0035 8.36969C20.4098 8.08152 20.5 7.85695 20.5 7.72656C20.5 7.45042 20.7239 7.22656 21 7.22656C21.2761 7.22656 21.5 7.45042 21.5 7.72656C21.5 8.34176 21.0866 8.82748 20.582 9.18535C20.0644 9.55244 19.348 9.86256 18.5076 10.1147C16.8206 10.6208 14.5199 10.9266 12 10.9266C9.48008 10.9266 7.17941 10.6208 5.49236 10.1147C4.65203 9.86256 3.93555 9.55244 3.418 9.18535C2.91344 8.82748 2.5 8.34176 2.5 7.72656C2.5 7.45042 2.72386 7.22656 3 7.22656Z" fill="#60666B"/>
<path fill-rule="evenodd" clip-rule="evenodd" d="M3 9.25C3.27614 9.25 3.5 9.47386 3.5 9.75C3.5 9.88038 3.59024 10.105 3.99653 10.3931C4.38983 10.6721 4.99137 10.9438 5.77971 11.1803C7.35003 11.6514 9.54936 11.95 12 11.95C14.4506 11.95 16.65 11.6514 18.2203 11.1803C19.0086 10.9438 19.6102 10.6721 20.0035 10.3931C20.4098 10.105 20.5 9.88038 20.5 9.75C20.5 9.47386 20.7239 9.25 21 9.25C21.2761 9.25 21.5 9.47386 21.5 9.75C21.5 10.3652 21.0866 10.8509 20.582 11.2088C20.0644 11.5759 19.348 11.886 18.5076 12.1381C16.8206 12.6442 14.5199 12.95 12 12.95C9.48008 12.95 7.17941 12.6442 5.49236 12.1381C4.65203 11.886 3.93555 11.5759 3.418 11.2088C2.91344 10.8509 2.5 10.3652 2.5 9.75C2.5 9.47386 2.72386 9.25 3 9.25Z" fill="#60666B"/>
<path fill-rule="evenodd" clip-rule="evenodd" d="M3 5.19922C3.27614 5.19922 3.5 5.42308 3.5 5.69922V18.3027C3.5 18.4331 3.59024 18.6577 3.99653 18.9459C4.38983 19.2248 4.99137 19.4965 5.77971 19.733C7.35003 20.2041 9.54936 20.5027 12 20.5027C14.4506 20.5027 16.65 20.2041 18.2203 19.733C19.0086 19.4965 19.6102 19.2248 20.0035 18.9459C20.4098 18.6577 20.5 18.4331 20.5 18.3027V5.69922C20.5 5.42308 20.7239 5.19922 21 5.19922C21.2761 5.19922 21.5 5.42308 21.5 5.69922V18.3027C21.5 18.9179 21.0866 19.4036 20.582 19.7615C20.0644 20.1286 19.348 20.4387 18.5076 20.6908C16.8206 21.1969 14.5199 21.5027 12 21.5027C9.48008 21.5027 7.17941 21.1969 5.49236 20.6908C4.65203 20.4387 3.93555 20.1286 3.418 19.7615C2.91344 19.4036 2.5 18.9179 2.5 18.3027V5.69922C2.5 5.42308 2.72386 5.19922 3 5.19922Z" fill="#60666B"/>
</svg>
