<svg width="24" height="24" viewBox="0 0 24 24" fill="none" xmlns="http://www.w3.org/2000/svg">
<path fill-rule="evenodd" clip-rule="evenodd" d="M12 21C16.9706 21 21 16.9706 21 12C21 7.02944 16.9706 3 12 3C7.02944 3 3 7.02944 3 12C3 16.9706 7.02944 21 12 21ZM22 12C22 17.5228 17.5228 22 12 22C6.47715 22 2 17.5228 2 12C2 6.47715 6.47715 2 12 2C17.5228 2 22 6.47715 22 12Z" fill="#60666B"/>
<path fill-rule="evenodd" clip-rule="evenodd" d="M11.5613 8.46989C11.7155 8.55935 11.8103 8.72411 11.8103 8.90234V15.0342C11.8103 15.2133 11.7146 15.3786 11.5594 15.4678C11.4041 15.557 11.2131 15.5563 11.0584 15.4661L5.74808 12.3687C5.59378 12.2787 5.49921 12.1132 5.5 11.9346C5.5008 11.756 5.59683 11.5913 5.75193 11.5027L11.0623 8.46822C11.217 8.37979 11.4072 8.38043 11.5613 8.46989ZM7.00001 11.9413L10.8103 14.1637V9.76393L7.00001 11.9413Z" fill="#60666B"/>
<path fill-rule="evenodd" clip-rule="evenodd" d="M17.2508 8.46989C17.4049 8.55935 17.4998 8.72411 17.4998 8.90234V15.0342C17.4998 15.2133 17.4041 15.3786 17.2488 15.4678C17.0936 15.557 16.9025 15.5563 16.7479 15.4661L11.4375 12.3687C11.2832 12.2787 11.1887 12.1132 11.1895 11.9346C11.1903 11.756 11.2863 11.5913 11.4414 11.5027L16.7517 8.46822C16.9065 8.37979 17.0966 8.38043 17.2508 8.46989ZM12.6895 11.9413L16.4998 14.1637V9.76393L12.6895 11.9413Z" fill="#60666B"/>
<path fill-rule="evenodd" clip-rule="evenodd" d="M12 19.5C16.1421 19.5 19.5 16.1421 19.5 12C19.5 7.85786 16.1421 4.5 12 4.5C7.85786 4.5 4.5 7.85786 4.5 12C4.5 16.1421 7.85786 19.5 12 19.5ZM20.5 12C20.5 16.6944 16.6944 20.5 12 20.5C7.30558 20.5 3.5 16.6944 3.5 12C3.5 7.30558 7.30558 3.5 12 3.5C16.6944 3.5 20.5 7.30558 20.5 12Z" fill="#60666B"/>
</svg>
