<svg width="24" height="24" viewBox="0 0 24 24" fill="none" xmlns="http://www.w3.org/2000/svg">
<path fill-rule="evenodd" clip-rule="evenodd" d="M12 21C16.9706 21 21 16.9706 21 12C21 7.02944 16.9706 3 12 3C7.02944 3 3 7.02944 3 12C3 16.9706 7.02944 21 12 21ZM22 12C22 17.5228 17.5228 22 12 22C6.47715 22 2 17.5228 2 12C2 6.47715 6.47715 2 12 2C17.5228 2 22 6.47715 22 12Z" fill="#60666B"/>
<path fill-rule="evenodd" clip-rule="evenodd" d="M12 19.5C16.1421 19.5 19.5 16.1421 19.5 12C19.5 7.85786 16.1421 4.5 12 4.5C7.85786 4.5 4.5 7.85786 4.5 12C4.5 16.1421 7.85786 19.5 12 19.5ZM20.5 12C20.5 16.6944 16.6944 20.5 12 20.5C7.30558 20.5 3.5 16.6944 3.5 12C3.5 7.30558 7.30558 3.5 12 3.5C16.6944 3.5 20.5 7.30558 20.5 12Z" fill="#60666B"/>
<path fill-rule="evenodd" clip-rule="evenodd" d="M6.5 8.59766C6.5 8.32151 6.72386 8.09766 7 8.09766H17C17.2761 8.09766 17.5 8.32151 17.5 8.59766V15.2643C17.5 15.5405 17.2761 15.7643 17 15.7643H7C6.72386 15.7643 6.5 15.5405 6.5 15.2643V8.59766ZM7.5 9.09766V14.7643H16.5V9.09766H7.5Z" fill="#60666B"/>
<path fill-rule="evenodd" clip-rule="evenodd" d="M6.58403 8.32036C6.7372 8.09059 7.04764 8.02851 7.2774 8.18168L12.0001 11.3301L16.7227 8.18168C16.9525 8.02851 17.2629 8.09059 17.4161 8.32036C17.5693 8.55012 17.5072 8.86056 17.2774 9.01373L12.2774 12.3471C12.1095 12.459 11.8907 12.459 11.7227 12.3471L6.7227 9.01373C6.49294 8.86056 6.43085 8.55012 6.58403 8.32036Z" fill="#60666B"/>
</svg>
