<svg width="24" height="24" viewBox="0 0 24 24" fill="none" xmlns="http://www.w3.org/2000/svg">
<path fill-rule="evenodd" clip-rule="evenodd" d="M21.946 13.0456L20.9513 12.9422C20.9835 12.6329 21 12.3185 21 12C21 11.6815 20.9835 11.3671 20.9513 11.0578L21.946 10.9544C21.9817 11.2981 22 11.6469 22 12C22 12.3531 21.9817 12.7019 21.946 13.0456ZM21.7834 9.92014L20.8051 10.1271C20.6734 9.50481 20.4774 8.90633 20.2244 8.33878L21.1377 7.93152C21.4191 8.56258 21.637 9.22816 21.7834 9.92014ZM20.6617 6.9992L19.7962 7.50001C19.4803 6.95403 19.1085 6.44408 18.6886 5.97804L19.4315 5.30868C19.8978 5.82613 20.3107 6.39251 20.6617 6.9992ZM18.6913 4.56845L18.022 5.31138C17.5559 4.8915 17.046 4.51974 16.5 4.20384L17.0008 3.33828C17.6075 3.68931 18.1739 4.10224 18.6913 4.56845ZM16.0685 2.86231L15.6612 3.77563C15.0937 3.52255 14.4952 3.32658 13.8729 3.19494L14.0799 2.21659C14.7718 2.36297 15.4374 2.58092 16.0685 2.86231ZM13.0456 2.05401L12.9422 3.04865C12.6329 3.01651 12.3185 3 12 3C11.6815 3 11.3671 3.01651 11.0578 3.04865L10.9544 2.05401C11.2981 2.0183 11.6469 2 12 2C12.3531 2 12.7019 2.0183 13.0456 2.05401ZM9.92014 2.21659L10.1271 3.19494C9.50481 3.32658 8.90633 3.52255 8.33878 3.77563L7.93152 2.86231C8.56258 2.58092 9.22816 2.36297 9.92014 2.21659ZM6.9992 3.33828L7.50001 4.20384C6.95403 4.51974 6.44408 4.8915 5.97804 5.31138L5.30868 4.56845C5.82613 4.10224 6.39251 3.68931 6.9992 3.33828ZM4.56845 5.30868L5.31138 5.97804C4.8915 6.44408 4.51974 6.95403 4.20384 7.50001L3.33828 6.9992C3.68931 6.39251 4.10224 5.82613 4.56845 5.30868ZM2.86231 7.93153L3.77563 8.33878C3.52255 8.90633 3.32658 9.50481 3.19494 10.1271L2.21659 9.92014C2.36297 9.22816 2.58092 8.56258 2.86231 7.93153ZM2.05401 10.9544C2.0183 11.2981 2 11.6469 2 12C2 12.3531 2.0183 12.7019 2.05401 13.0456L3.04865 12.9422C3.01651 12.6329 3 12.3185 3 12C3 11.6815 3.01651 11.3671 3.04865 11.0578L2.05401 10.9544ZM2.21659 14.0799L3.19494 13.8729C3.32658 14.4952 3.52255 15.0937 3.77563 15.6612L2.86231 16.0685C2.58092 15.4374 2.36297 14.7718 2.21659 14.0799ZM3.33828 17.0008L4.20384 16.5C4.51974 17.046 4.8915 17.5559 5.31138 18.022L4.56845 18.6913C4.10224 18.1739 3.68931 17.6075 3.33828 17.0008ZM5.30868 19.4316L5.97804 18.6886C6.44408 19.1085 6.95403 19.4803 7.50001 19.7962L6.9992 20.6617C6.39251 20.3107 5.82613 19.8978 5.30868 19.4316ZM7.93152 21.1377L8.33878 20.2244C8.90633 20.4774 9.50481 20.6734 10.1271 20.8051L9.92014 21.7834C9.22816 21.637 8.56258 21.4191 7.93152 21.1377ZM10.9544 21.946L11.0578 20.9513C11.3671 20.9835 11.6815 21 12 21C12.3185 21 12.6329 20.9835 12.9422 20.9513L13.0456 21.946C12.7019 21.9817 12.3531 22 12 22C11.6469 22 11.2981 21.9817 10.9544 21.946ZM14.0799 21.7834L13.8729 20.8051C14.4952 20.6734 15.0937 20.4774 15.6612 20.2244L16.0685 21.1377C15.4374 21.4191 14.7718 21.637 14.0799 21.7834ZM17.0008 20.6617L16.5 19.7962C17.046 19.4803 17.5559 19.1085 18.022 18.6886L18.6913 19.4315C18.1739 19.8978 17.6075 20.3107 17.0008 20.6617ZM19.4315 18.6913L18.6886 18.022C19.1085 17.5559 19.4803 17.046 19.7962 16.5L20.6617 17.0008C20.3107 17.6075 19.8978 18.1739 19.4315 18.6913ZM21.1377 16.0685L20.2244 15.6612C20.4774 15.0937 20.6734 14.4952 20.8051 13.8729L21.7834 14.0799C21.637 14.7718 21.4191 15.4374 21.1377 16.0685Z" fill="#60666B"/>
<path fill-rule="evenodd" clip-rule="evenodd" d="M20.4282 13.1102L19.4366 12.9808C19.4784 12.6603 19.5 12.3329 19.5 12C19.5 11.6671 19.4784 11.3397 19.4366 11.0192L20.4282 10.8898C20.4756 11.2532 20.5 11.6237 20.5 12C20.5 12.3763 20.4756 12.7468 20.4282 13.1102ZM20.2123 9.79924L19.2463 10.0575C19.0752 9.41748 18.8214 8.81102 18.4969 8.25013L19.3625 7.74932C19.7303 8.38514 20.0182 9.07303 20.2123 9.79924ZM18.7439 6.82534L17.951 7.43466C17.5514 6.91474 17.0853 6.44857 16.5653 6.04902L17.1747 5.25611C17.7635 5.70861 18.2914 6.23649 18.7439 6.82534ZM16.2507 4.63754L15.7499 5.5031C15.189 5.17857 14.5825 4.92482 13.9425 4.75374L14.2008 3.78766C14.927 3.98178 15.6149 4.26966 16.2507 4.63754ZM13.1102 3.57184L12.9808 4.56344C12.6603 4.52163 12.3329 4.5 12 4.5C11.6671 4.5 11.3397 4.52163 11.0192 4.56344L10.8898 3.57184C11.2532 3.52445 11.6237 3.5 12 3.5C12.3763 3.5 12.7468 3.52445 13.1102 3.57184ZM9.79924 3.78766L10.0575 4.75374C9.41748 4.92482 8.81102 5.17857 8.25013 5.5031L7.74932 4.63754C8.38514 4.26966 9.07303 3.98178 9.79924 3.78766ZM6.82533 5.2561L7.43466 6.04902C6.91474 6.44857 6.44857 6.91474 6.04902 7.43466L5.25611 6.82533C5.70861 6.23649 6.23649 5.70861 6.82533 5.2561ZM4.63754 7.74932L5.5031 8.25013C5.17857 8.81102 4.92482 9.41748 4.75374 10.0575L3.78766 9.79924C3.98178 9.07303 4.26966 8.38514 4.63754 7.74932ZM3.57184 10.8898C3.52445 11.2532 3.5 11.6237 3.5 12C3.5 12.3763 3.52445 12.7468 3.57184 13.1102L4.56344 12.9808C4.52163 12.6603 4.5 12.3329 4.5 12C4.5 11.6671 4.52163 11.3397 4.56344 11.0192L3.57184 10.8898ZM3.78766 14.2008L4.75374 13.9425C4.92482 14.5825 5.17857 15.189 5.5031 15.7499L4.63754 16.2507C4.26966 15.6149 3.98178 14.927 3.78766 14.2008ZM5.2561 17.1747L6.04902 16.5653C6.44857 17.0853 6.91474 17.5514 7.43466 17.951L6.82533 18.7439C6.23649 18.2914 5.70861 17.7635 5.2561 17.1747ZM7.74932 19.3625L8.25013 18.4969C8.81102 18.8214 9.41748 19.0752 10.0575 19.2463L9.79924 20.2123C9.07303 20.0182 8.38514 19.7303 7.74932 19.3625ZM10.8898 20.4282L11.0192 19.4366C11.3397 19.4784 11.6671 19.5 12 19.5C12.3329 19.5 12.6603 19.4784 12.9808 19.4366L13.1102 20.4282C12.7468 20.4756 12.3763 20.5 12 20.5C11.6237 20.5 11.2532 20.4756 10.8898 20.4282ZM14.2008 20.2123L13.9425 19.2463C14.5825 19.0752 15.189 18.8214 15.7499 18.4969L16.2507 19.3625C15.6149 19.7303 14.927 20.0182 14.2008 20.2123ZM17.1747 18.7439L16.5653 17.951C17.0853 17.5514 17.5514 17.0853 17.951 16.5653L18.7439 17.1747C18.2914 17.7635 17.7635 18.2914 17.1747 18.7439ZM19.3625 16.2507L18.4969 15.7499C18.8214 15.189 19.0752 14.5825 19.2463 13.9425L20.2123 14.2008C20.0182 14.927 19.7303 15.6149 19.3625 16.2507Z" fill="#60666B"/>
<path fill-rule="evenodd" clip-rule="evenodd" d="M11.9999 7C9.23851 7 7 9.23851 7 11.9999C7 14.7612 9.23851 16.9997 11.9999 16.9997C14.7612 16.9997 16.9997 14.7612 16.9997 11.9999C16.9997 9.23851 14.7612 7 11.9999 7ZM6 11.9999C6 8.68623 8.68623 6 11.9999 6C15.3135 6 17.9997 8.68623 17.9997 11.9999C17.9997 15.3135 15.3135 17.9997 11.9999 17.9997C8.68623 17.9997 6 15.3135 6 11.9999Z" fill="#60666B"/>
<path fill-rule="evenodd" clip-rule="evenodd" d="M12 16.0859C12.2761 16.0859 12.5 16.3098 12.5 16.5859V17.5026C12.5 17.7787 12.2761 18.0026 12 18.0026C11.7239 18.0026 11.5 17.7787 11.5 17.5026V16.5859C11.5 16.3098 11.7239 16.0859 12 16.0859Z" fill="#60666B"/>
<path fill-rule="evenodd" clip-rule="evenodd" d="M16.0833 12C16.0833 11.7239 16.3071 11.5 16.5833 11.5H17.4999C17.776 11.5 17.9999 11.7239 17.9999 12C17.9999 12.2761 17.776 12.5 17.4999 12.5H16.5833C16.3071 12.5 16.0833 12.2761 16.0833 12Z" fill="#60666B"/>
<path fill-rule="evenodd" clip-rule="evenodd" d="M6 12C6 11.7239 6.22386 11.5 6.5 11.5H7.41664C7.69278 11.5 7.91664 11.7239 7.91664 12C7.91664 12.2761 7.69278 12.5 7.41664 12.5H6.5C6.22386 12.5 6 12.2761 6 12Z" fill="#60666B"/>
<path fill-rule="evenodd" clip-rule="evenodd" d="M12 6C12.2761 6 12.5 6.22386 12.5 6.5V7.41664C12.5 7.69278 12.2761 7.91664 12 7.91664C11.7239 7.91664 11.5 7.69278 11.5 7.41664V6.5C11.5 6.22386 11.7239 6 12 6Z" fill="#60666B"/>
<path fill-rule="evenodd" clip-rule="evenodd" d="M9.9584 15.5352C10.1975 15.6732 10.2795 15.979 10.1414 16.2182L9.68309 17.012C9.54502 17.2512 9.23923 17.3331 9.00008 17.195C8.76094 17.0569 8.679 16.7512 8.81707 16.512L9.27539 15.7182C9.41346 15.479 9.71926 15.3971 9.9584 15.5352Z" fill="#60666B"/>
<path fill-rule="evenodd" clip-rule="evenodd" d="M15.5361 14.0385C15.6742 13.7993 15.98 13.7174 16.2191 13.8555L17.013 14.3138C17.2521 14.4519 17.3341 14.7577 17.196 14.9968C17.0579 15.2359 16.7521 15.3179 16.513 15.1798L15.7191 14.7215C15.48 14.5834 15.3981 14.2776 15.5361 14.0385Z" fill="#60666B"/>
<path fill-rule="evenodd" clip-rule="evenodd" d="M6.80371 8.99942C6.94178 8.76027 7.24758 8.67834 7.48672 8.81641L8.28056 9.27473C8.51971 9.4128 8.60164 9.71859 8.46357 9.95774C8.3255 10.1969 8.01971 10.2788 7.78056 10.1408L6.98672 9.68243C6.74758 9.54436 6.66564 9.23857 6.80371 8.99942Z" fill="#60666B"/>
<path fill-rule="evenodd" clip-rule="evenodd" d="M14.9999 6.80469C15.2391 6.94276 15.321 7.24855 15.1829 7.4877L14.7246 8.28154C14.5865 8.52068 14.2807 8.60262 14.0416 8.46455C13.8024 8.32648 13.7205 8.02068 13.8586 7.78154L14.3169 6.9877C14.455 6.74855 14.7608 6.66662 14.9999 6.80469Z" fill="#60666B"/>
<path fill-rule="evenodd" clip-rule="evenodd" d="M8.46362 14.0385C8.60169 14.2776 8.51976 14.5834 8.28061 14.7215L7.48677 15.1798C7.24763 15.3179 6.94183 15.2359 6.80376 14.9968C6.66569 14.7577 6.74763 14.4519 6.98677 14.3138L7.78061 13.8555C8.01976 13.7174 8.32555 13.7993 8.46362 14.0385Z" fill="#60666B"/>
<path fill-rule="evenodd" clip-rule="evenodd" d="M14.0423 15.5352C14.2815 15.3971 14.5873 15.479 14.7253 15.7182L15.1837 16.512C15.3217 16.7512 15.2398 17.0569 15.0007 17.195C14.7615 17.3331 14.4557 17.2512 14.3176 17.012L13.8593 16.2182C13.7212 15.979 13.8032 15.6732 14.0423 15.5352Z" fill="#60666B"/>
<path fill-rule="evenodd" clip-rule="evenodd" d="M9.00058 6.80469C9.23973 6.66662 9.54552 6.74855 9.68359 6.9877L10.1419 7.78154C10.28 8.02068 10.198 8.32648 9.9589 8.46455C9.71976 8.60262 9.41396 8.52068 9.27589 8.28154L8.81757 7.4877C8.6795 7.24855 8.76143 6.94276 9.00058 6.80469Z" fill="#60666B"/>
<path fill-rule="evenodd" clip-rule="evenodd" d="M17.1963 8.99942C17.3344 9.23857 17.2524 9.54436 17.0133 9.68243L16.2194 10.1408C15.9803 10.2788 15.6745 10.1969 15.5364 9.95774C15.3984 9.71859 15.4803 9.4128 15.7194 9.27473L16.5133 8.81641C16.7524 8.67834 17.0582 8.76027 17.1963 8.99942Z" fill="#60666B"/>
<path fill-rule="evenodd" clip-rule="evenodd" d="M12.0026 8.19922C12.2787 8.19925 12.5026 8.42313 12.5025 8.69927L12.5022 11.7945L14.6875 13.9798C14.8828 14.175 14.8828 14.4916 14.6875 14.6869C14.4923 14.8821 14.1757 14.8821 13.9804 14.6869L11.6486 12.3551C11.5549 12.2613 11.5022 12.1341 11.5022 12.0015L11.5025 8.69917C11.5026 8.42303 11.7264 8.19919 12.0026 8.19922Z" fill="#60666B"/>
</svg>
