<svg width="24" height="24" viewBox="0 0 24 24" fill="none" xmlns="http://www.w3.org/2000/svg">
<path fill-rule="evenodd" clip-rule="evenodd" d="M4.5 2.5C3.99597 2.5 3.5 2.97148 3.5 3.66667V20.3333C3.5 21.0285 3.99597 21.5 4.5 21.5H19.5C20.004 21.5 20.5 21.0285 20.5 20.3333V3.66667C20.5 2.97148 20.004 2.5 19.5 2.5H4.5ZM2.5 3.66667C2.5 2.52091 3.34718 1.5 4.5 1.5H19.5C20.6528 1.5 21.5 2.52091 21.5 3.66667V20.3333C21.5 21.4791 20.6528 22.5 19.5 22.5H4.5C3.34718 22.5 2.5 21.4791 2.5 20.3333V3.66667Z" fill="#60666B"/>
<path fill-rule="evenodd" clip-rule="evenodd" d="M2.5 17C2.5 16.7239 2.72386 16.5 3 16.5H21C21.2761 16.5 21.5 16.7239 21.5 17C21.5 17.2761 21.2761 17.5 21 17.5H3C2.72386 17.5 2.5 17.2761 2.5 17Z" fill="#60666B"/>
<path d="M19.5 2H4.5C3.67157 2 3 2.67157 3 3.5V4.5H21V3.5C21 2.67157 20.3284 2 19.5 2Z" fill="#D7DBE0"/>
<path fill-rule="evenodd" clip-rule="evenodd" d="M4.5 2.5C3.94772 2.5 3.5 2.94772 3.5 3.5V4H20.5V3.5C20.5 2.94772 20.0523 2.5 19.5 2.5H4.5ZM2.5 3.5C2.5 2.39543 3.39543 1.5 4.5 1.5H19.5C20.6046 1.5 21.5 2.39543 21.5 3.5V4.5C21.5 4.77614 21.2761 5 21 5H3C2.72386 5 2.5 4.77614 2.5 4.5V3.5Z" fill="#60666B"/>
<path d="M19.5 22H4.5C3.67157 22 3 21.3284 3 20.5V19.5H21V20.5C21 21.3284 20.3284 22 19.5 22Z" fill="#D7DBE0"/>
<path fill-rule="evenodd" clip-rule="evenodd" d="M4.5 21.5C3.94772 21.5 3.5 21.0523 3.5 20.5V20H20.5V20.5C20.5 21.0523 20.0523 21.5 19.5 21.5H4.5ZM2.5 20.5C2.5 21.6046 3.39543 22.5 4.5 22.5H19.5C20.6046 22.5 21.5 21.6046 21.5 20.5V19.5C21.5 19.2239 21.2761 19 21 19H3C2.72386 19 2.5 19.2239 2.5 19.5V20.5Z" fill="#60666B"/>
</svg>
