<svg width="24" height="24" viewBox="0 0 24 24" fill="none" xmlns="http://www.w3.org/2000/svg">
<path fill-rule="evenodd" clip-rule="evenodd" d="M4.5 3.5C3.94772 3.5 3.5 3.94772 3.5 4.5V19.5C3.5 20.0523 3.94772 20.5 4.5 20.5H19.5C20.0523 20.5 20.5 20.0523 20.5 19.5V4.5C20.5 3.94772 20.0523 3.5 19.5 3.5H4.5ZM2.5 4.5C2.5 3.39543 3.39543 2.5 4.5 2.5H19.5C20.6046 2.5 21.5 3.39543 21.5 4.5V19.5C21.5 20.6046 20.6046 21.5 19.5 21.5H4.5C3.39543 21.5 2.5 20.6046 2.5 19.5V4.5Z" fill="#60666B"/>
<path d="M19.5 3H4.5C3.67157 3 3 3.67157 3 4.5V5.5H21V4.5C21 3.67157 20.3284 3 19.5 3Z" fill="#D7DBE0"/>
<path fill-rule="evenodd" clip-rule="evenodd" d="M4.5 3.5C3.94772 3.5 3.5 3.94772 3.5 4.5V5H20.5V4.5C20.5 3.94772 20.0523 3.5 19.5 3.5H4.5ZM2.5 4.5C2.5 3.39543 3.39543 2.5 4.5 2.5H19.5C20.6046 2.5 21.5 3.39543 21.5 4.5V5.5C21.5 5.77614 21.2761 6 21 6H3C2.72386 6 2.5 5.77614 2.5 5.5V4.5Z" fill="#60666B"/>
<path fill-rule="evenodd" clip-rule="evenodd" d="M2.5 18.5C2.5 18.2239 2.72386 18 3 18H21C21.2761 18 21.5 18.2239 21.5 18.5C21.5 18.7761 21.2761 19 21 19H3C2.72386 19 2.5 18.7761 2.5 18.5Z" fill="#60666B"/>
</svg>
