<svg width="24" height="24" viewBox="0 0 24 24" fill="none" xmlns="http://www.w3.org/2000/svg">
<path fill-rule="evenodd" clip-rule="evenodd" d="M8.51712 4.92969L3.80283 12.0011L8.51712 19.0725H15.483L20.1973 12.0011L15.483 4.92969H8.51712ZM21.6303 12.5558L16.5826 20.1272C16.3972 20.4054 16.0849 20.5725 15.7506 20.5725H8.24952C7.91517 20.5725 7.60294 20.4054 7.41747 20.1272L2.36985 12.5558C2.14592 12.2199 2.14592 11.7823 2.36985 11.4464L7.41747 3.87499C7.60294 3.59679 7.91517 3.42969 8.24952 3.42969H15.7506C16.0849 3.42969 16.3972 3.59679 16.5826 3.87499L21.6303 11.4464C21.8542 11.7823 21.8542 12.2199 21.6303 12.5558Z" fill="#60666B"/>
</svg>
