<svg width="24" height="24" viewBox="0 0 24 24" fill="none" xmlns="http://www.w3.org/2000/svg">
<path fill-rule="evenodd" clip-rule="evenodd" d="M11.4061 5.56754C11.5603 5.65701 11.6552 5.82176 11.6552 6V17.1489C11.6552 17.3279 11.5595 17.4933 11.4042 17.5824C11.249 17.6716 11.0579 17.671 10.9033 17.5808L1.24808 11.9491C1.09378 11.8591 0.999211 11.6937 1 11.515C1.0008 11.3364 1.09683 11.1717 1.25193 11.0831L10.9071 5.56588C11.0619 5.47745 11.252 5.47808 11.4061 5.56754ZM2.50001 11.5217L10.6552 16.2784V6.86159L2.50001 11.5217Z" fill="#60666B"/>
<path fill-rule="evenodd" clip-rule="evenodd" d="M21.7506 5.56754C21.9048 5.65701 21.9997 5.82176 21.9997 6V17.1489C21.9997 17.3279 21.9039 17.4933 21.7487 17.5824C21.5935 17.6716 21.4024 17.671 21.2477 17.5808L11.5926 11.9491C11.4383 11.8591 11.3437 11.6937 11.3445 11.515C11.3453 11.3364 11.4413 11.1717 11.5964 11.0831L21.2516 5.56588C21.4063 5.47745 21.5965 5.47808 21.7506 5.56754ZM12.8445 11.5217L20.9997 16.2784V6.86159L12.8445 11.5217Z" fill="#60666B"/>
</svg>
