<svg width="24" height="24" viewBox="0 0 24 24" fill="none" xmlns="http://www.w3.org/2000/svg">
<path fill-rule="evenodd" clip-rule="evenodd" d="M2.94835 12.3173C2.94752 12.3198 2.94667 12.3223 2.94582 12.3248C2.94619 12.3238 2.94682 12.3221 2.94771 12.3197C2.95113 12.3107 2.9584 12.292 2.96995 12.265C2.99312 12.211 3.03304 12.1247 3.09293 12.0169C3.21331 11.8002 3.41007 11.5042 3.70713 11.2071C4.28222 10.632 5.28258 10 7.00003 10C8.79508 10 9.6552 10.4965 10.1221 10.9421C10.3706 11.1793 10.5489 11.4413 10.7008 11.7087C10.7676 11.8264 10.8251 11.9372 10.8865 12.0556C10.8971 12.0759 10.9077 12.0964 10.9185 12.1172C10.9848 12.2445 11.0708 12.409 11.168 12.5547C11.7082 13.3651 13.4692 16 17.5 16C19.5767 16 20.9566 15.0955 21.7997 14.1757C22.2135 13.7242 22.4946 13.2744 22.6735 12.9355C22.7634 12.7652 22.8288 12.6203 22.8733 12.5135C22.8956 12.46 22.9127 12.4159 22.9251 12.3825C22.9313 12.3659 22.9364 12.3519 22.9403 12.3408L22.9453 12.3263L22.9472 12.3207L22.948 12.3183L22.9484 12.3172C22.9485 12.3167 22.9487 12.3162 22.0237 12.0079L22.9487 12.3162C23.1234 11.7923 22.8402 11.226 22.3163 11.0513C21.7946 10.8774 21.2309 11.1574 21.0536 11.6769L21.0508 11.6849C21.0468 11.6955 21.039 11.7157 21.0271 11.7443C21.0033 11.8016 20.9633 11.891 20.9047 12.002C20.7867 12.2256 20.599 12.5258 20.3254 12.8243C19.7935 13.4045 18.9233 14 17.5 14C14.5352 14 13.2954 12.1403 12.8341 11.4483L12.8321 11.4453C12.8042 11.4035 12.7653 11.3336 12.6929 11.1943C12.6839 11.177 12.6744 11.1588 12.6646 11.1398C12.6037 11.0223 12.5271 10.8747 12.4399 10.721C12.2324 10.3556 11.942 9.91441 11.503 9.49539C10.5949 8.62853 9.20498 8 7.00003 8C4.71747 8 3.21783 8.86798 2.29292 9.79289C1.83999 10.2458 1.53674 10.6998 1.34462 11.0456C1.24827 11.219 1.17881 11.3672 1.13166 11.4772C1.10806 11.5323 1.08994 11.578 1.07676 11.6129C1.07017 11.6304 1.0648 11.6451 1.06059 11.657L1.05513 11.6726L1.05303 11.6788L1.05214 11.6814L1.05173 11.6826C1.05153 11.6832 1.05134 11.6838 2.00003 12L1.05134 11.6838C0.876696 12.2077 1.15986 12.774 1.6838 12.9487C2.20489 13.1224 2.76789 12.8432 2.94582 12.3248M21.0538 11.6765C21.0538 11.6764 21.0538 11.6764 21.0538 11.6764Z" fill="#60666B"/>
</svg>
