<svg width="24" height="24" viewBox="0 0 24 24" fill="none" xmlns="http://www.w3.org/2000/svg">
<path fill-rule="evenodd" clip-rule="evenodd" d="M4 4.83203C4.27614 4.83203 4.5 5.05589 4.5 5.33203V8.38757H7.55554C7.83168 8.38757 8.05554 8.61143 8.05554 8.88757C8.05554 9.16371 7.83168 9.38757 7.55554 9.38757H4C3.72386 9.38757 3.5 9.16371 3.5 8.88757V5.33203C3.5 5.05589 3.72386 4.83203 4 4.83203Z" fill="#60666B"/>
<path fill-rule="evenodd" clip-rule="evenodd" d="M12 4.5C8.97394 4.5 6.36539 6.29219 5.17987 8.87521C5.06469 9.12618 4.76786 9.23626 4.51689 9.12107C4.26591 9.00588 4.15584 8.70905 4.27103 8.45808C5.61352 5.53304 8.56883 3.5 12 3.5C16.6944 3.5 20.5 7.30556 20.5 12C20.5 16.6944 16.6944 20.4999 12 20.4999C7.78781 20.4999 4.29207 17.4365 3.61757 13.416C3.57188 13.1437 3.75561 12.8859 4.02795 12.8402C4.30028 12.7945 4.55809 12.9782 4.60378 13.2506C5.19881 16.7973 8.2843 19.4999 12 19.4999C16.1421 19.4999 19.5 16.1421 19.5 12C19.5 7.85785 16.1421 4.5 12 4.5Z" fill="#60666B"/>
</svg>
