<svg width="24" height="24" viewBox="0 0 24 24" fill="none" xmlns="http://www.w3.org/2000/svg">
<path d="M7.66667 4H4.33333C4.14924 4 4 4.59695 4 5.33333V18.6667C4 19.403 4.14924 20 4.33333 20H7.66667C7.85076 20 8 19.403 8 18.6667V5.33333C8 4.59695 7.85076 4 7.66667 4Z" fill="#60666B"/>
<path d="M19.6667 4H16.3333C16.1492 4 16 4.59695 16 5.33333V18.6667C16 19.403 16.1492 20 16.3333 20H19.6667C19.8508 20 20 19.403 20 18.6667V5.33333C20 4.59695 19.8508 4 19.6667 4Z" fill="#60666B"/>
<path d="M13.6667 4H10.3333C10.1492 4 10 4.59695 10 5.33333V18.6667C10 19.403 10.1492 20 10.3333 20H13.6667C13.8508 20 14 19.403 14 18.6667V5.33333C14 4.59695 13.8508 4 13.6667 4Z" fill="#60666B"/>
</svg>
