<svg width="24" height="24" viewBox="0 0 24 24" fill="none" xmlns="http://www.w3.org/2000/svg">
<path fill-rule="evenodd" clip-rule="evenodd" d="M19.5 4H4.5C4.22386 4 4 4.22386 4 4.5V19.5C4 19.7761 4.22386 20 4.5 20H19.5C19.7761 20 20 19.7761 20 19.5V4.5C20 4.22386 19.7761 4 19.5 4ZM4.5 3H19.5C20.3284 3 21 3.67157 21 4.5V19.5C21 20.3284 20.3284 21 19.5 21H4.5C3.67157 21 3 20.3284 3 19.5V4.5C3 3.67157 3.67157 3 4.5 3Z" fill="#60666B"/>
<path fill-rule="evenodd" clip-rule="evenodd" d="M11.9451 7C12.2212 7 12.4451 7.24873 12.4451 7.55556V16.4444C12.4451 16.7513 12.2212 17 11.9451 17C11.6689 17 11.4451 16.7513 11.4451 16.4444V7.55556C11.4451 7.24873 11.6689 7 11.9451 7Z" fill="#60666B"/>
<path fill-rule="evenodd" clip-rule="evenodd" d="M7 11.9531C7 11.677 7.24873 11.4531 7.55556 11.4531H16.4444C16.7513 11.4531 17 11.677 17 11.9531C17 12.2293 16.7513 12.4531 16.4444 12.4531H7.55556C7.24873 12.4531 7 12.2293 7 11.9531Z" fill="#60666B"/>
</svg>
