<svg width="24" height="24" viewBox="0 0 24 24" fill="none" xmlns="http://www.w3.org/2000/svg">
<path d="M4 16.3333V19.6667C4 19.8508 4.59695 20 5.33333 20H18.6667C19.403 20 20 19.8508 20 19.6667V16.3333C20 16.1492 19.403 16 18.6667 16H5.33333C4.59695 16 4 16.1492 4 16.3333Z" fill="#60666B"/>
<path d="M4 4.33333V7.66667C4 7.85076 4.59695 8 5.33333 8L18.6667 8C19.403 8 20 7.85076 20 7.66667V4.33333C20 4.14924 19.403 4 18.6667 4L5.33333 4C4.59695 4 4 4.14924 4 4.33333Z" fill="#60666B"/>
<path d="M4 10.3333V13.6667C4 13.8508 4.59695 14 5.33333 14L18.6667 14C19.403 14 20 13.8508 20 13.6667V10.3333C20 10.1492 19.403 10 18.6667 10H5.33333C4.59695 10 4 10.1492 4 10.3333Z" fill="#60666B"/>
</svg>
