<svg width="24" height="24" viewBox="0 0 24 24" fill="none" xmlns="http://www.w3.org/2000/svg">
<path fill-rule="evenodd" clip-rule="evenodd" d="M15.7506 4.42969H8.24952L3.2019 12.0011L8.24952 19.5725H15.7506L20.7982 12.0011L15.7506 4.42969ZM8.24952 3.42969H15.7506C16.0849 3.42969 16.3972 3.59679 16.5826 3.87499L21.6303 11.4464C21.8542 11.7823 21.8542 12.2199 21.6303 12.5558L16.5826 20.1272C16.3972 20.4054 16.0849 20.5725 15.7506 20.5725H8.24952C7.91517 20.5725 7.60294 20.4054 7.41747 20.1272L2.36985 12.5558C2.14592 12.2199 2.14592 11.7823 2.36985 11.4464L7.41747 3.87499C7.60294 3.59679 7.91517 3.42969 8.24952 3.42969Z" fill="#60666B"/>
<path fill-rule="evenodd" clip-rule="evenodd" d="M8.5 12C8.5 11.4477 8.94772 11 9.5 11H14.5C15.0523 11 15.5 11.4477 15.5 12V17C15.5 17.5523 15.0523 18 14.5 18H9.5C8.94772 18 8.5 17.5523 8.5 17V12ZM14.5 12H9.5V17H14.5V12Z" fill="#60666B"/>
<path fill-rule="evenodd" clip-rule="evenodd" d="M12 12.6641C12.2761 12.6641 12.5 12.8879 12.5 13.1641V15.8307C12.5 16.1069 12.2761 16.3307 12 16.3307C11.7239 16.3307 11.5 16.1069 11.5 15.8307V13.1641C11.5 12.8879 11.7239 12.6641 12 12.6641Z" fill="#60666B"/>
<path fill-rule="evenodd" clip-rule="evenodd" d="M10.1665 14.5C10.1665 14.2239 10.3904 14 10.6665 14H13.3332C13.6093 14 13.8332 14.2239 13.8332 14.5C13.8332 14.7761 13.6093 15 13.3332 15H10.6665C10.3904 15 10.1665 14.7761 10.1665 14.5Z" fill="#60666B"/>
</svg>
