<svg width="55" height="20" viewBox="0 0 55 20" fill="none" xmlns="http://www.w3.org/2000/svg">
<path d="M3 0H47C51.4183 0 55 3.58172 55 8V20H11C6.58172 20 3 16.4183 3 12V0Z" fill="url(#paint0_linear_1727_1450)"/>
<path d="M0 3L3 1.07284e-07L3 3L0 3Z" fill="#0AA407"/>
<path d="M21.968 12.056C21.944 12.44 21.9 12.832 21.836 13.232C21.748 13.696 21.64 14.044 21.512 14.276C21.392 14.508 21.2 14.672 20.936 14.768C20.68 14.864 20.3 14.924 19.796 14.948C18.796 14.988 17.896 15.008 17.096 15.008C16.36 15.008 15.532 14.988 14.612 14.948C14.092 14.924 13.696 14.852 13.424 14.732C13.152 14.62 12.956 14.428 12.836 14.156C12.716 13.884 12.656 13.488 12.656 12.968V7.304L13.82 7.352V8.828H19.736V6.176H12.356V5.036H20.888V9.932H13.82V12.668C13.82 12.996 13.848 13.236 13.904 13.388C13.968 13.54 14.076 13.648 14.228 13.712C14.388 13.768 14.64 13.804 14.984 13.82C15.808 13.86 16.552 13.88 17.216 13.88C17.88 13.88 18.624 13.86 19.448 13.82C19.792 13.796 20.04 13.76 20.192 13.712C20.352 13.664 20.468 13.576 20.54 13.448C20.612 13.312 20.672 13.1 20.72 12.812C20.776 12.452 20.812 12.072 20.828 11.672L21.968 12.056ZM24.9845 6.572V8.12H23.9045V5.564H28.2125C28.1165 5.164 28.0125 4.812 27.9005 4.508L29.0645 4.328C29.1525 4.576 29.2805 4.988 29.4485 5.564H33.4445V8.108H32.3765V6.572H24.9845ZM32.0765 7.892V8.888H25.2845V7.892H32.0765ZM33.8645 12.788C33.8405 13.22 33.7925 13.58 33.7205 13.868C33.6565 14.148 33.5725 14.364 33.4685 14.516C33.3645 14.676 33.2045 14.792 32.9885 14.864C32.7725 14.936 32.4685 14.984 32.0765 15.008C31.9485 15.016 31.7525 15.02 31.4885 15.02C31.2325 15.02 31.0365 15.016 30.9005 15.008C30.3485 14.984 29.9485 14.86 29.7005 14.636C29.4605 14.412 29.3405 14.028 29.3405 13.484V11.24H27.6485L27.6365 11.444C27.5965 12.124 27.4565 12.708 27.2165 13.196C26.9765 13.676 26.6045 14.092 26.1005 14.444C25.5965 14.804 24.9245 15.132 24.0845 15.428L23.5325 14.408C24.2925 14.168 24.8765 13.916 25.2845 13.652C25.6925 13.38 25.9805 13.068 26.1485 12.716C26.3245 12.364 26.4365 11.908 26.4845 11.348C26.4845 11.308 26.4885 11.272 26.4965 11.24H23.7725V10.232H33.6245V11.24H30.4445V13.268C30.4445 13.548 30.4965 13.736 30.6005 13.832C30.7045 13.928 30.8965 13.984 31.1765 14C31.3525 14.016 31.4765 14.024 31.5485 14.024C31.6365 14.024 31.7605 14.016 31.9205 14C32.2245 13.976 32.4285 13.932 32.5325 13.868C32.6365 13.796 32.7045 13.656 32.7365 13.448C32.7925 13.152 32.8285 12.82 32.8445 12.452L33.8645 12.788ZM45.929 12.56C45.785 13.152 45.673 13.568 45.593 13.808C45.425 14.304 45.237 14.64 45.029 14.816C44.829 15 44.569 15.092 44.249 15.092C43.937 15.092 43.641 14.984 43.361 14.768C43.089 14.552 42.801 14.196 42.497 13.7C42.425 13.588 42.325 13.404 42.197 13.148C41.661 13.724 41.021 14.288 40.277 14.84L39.569 14.048C40.489 13.376 41.225 12.72 41.777 12.08C41.369 10.832 41.069 9.204 40.877 7.196H37.301V8.708H40.229C40.229 8.94 40.205 9.564 40.157 10.58C40.109 11.588 40.073 12.212 40.049 12.452C40.009 12.844 39.945 13.14 39.857 13.34C39.769 13.532 39.621 13.68 39.413 13.784C39.213 13.88 38.897 13.952 38.465 14L37.829 14.06L37.505 13.016L38.117 12.944C38.381 12.912 38.569 12.876 38.681 12.836C38.793 12.796 38.869 12.732 38.909 12.644C38.949 12.548 38.981 12.388 39.005 12.164C39.021 11.996 39.041 11.628 39.065 11.06C39.089 10.492 39.105 10.056 39.113 9.752H37.301C37.277 10.96 37.157 11.972 36.941 12.788C36.733 13.596 36.389 14.408 35.909 15.224L34.853 14.72C35.213 14.176 35.489 13.668 35.681 13.196C35.881 12.716 36.025 12.176 36.113 11.576C36.201 10.968 36.245 10.212 36.245 9.308V6.128H40.793C40.753 5.744 40.717 5.364 40.685 4.988C40.661 4.612 40.649 4.4 40.649 4.352L41.729 4.388L41.861 6.128H43.637C43.245 5.688 42.845 5.28 42.437 4.904L43.133 4.196C43.357 4.396 43.609 4.636 43.889 4.916C44.169 5.188 44.393 5.428 44.561 5.636L44.117 6.128H45.569V7.196H41.945C42.089 8.716 42.293 10 42.557 11.048C42.853 10.6 43.113 10.12 43.337 9.608C43.569 9.088 43.789 8.504 43.997 7.856L44.957 8.24C44.669 9.072 44.365 9.812 44.045 10.46C43.733 11.1 43.365 11.7 42.941 12.26C43.133 12.716 43.313 13.076 43.481 13.34C43.729 13.732 43.985 13.928 44.249 13.928C44.369 13.928 44.461 13.88 44.525 13.784C44.597 13.68 44.677 13.488 44.765 13.208C44.829 13.024 44.885 12.812 44.933 12.572C44.981 12.324 45.013 12.168 45.029 12.104L45.929 12.56Z" fill="white"/>
<defs>
<linearGradient id="paint0_linear_1727_1450" x1="57.5" y1="20" x2="7.5" y2="-5.40167e-07" gradientUnits="userSpaceOnUse">
<stop stop-color="#0EC320"/>
<stop offset="1" stop-color="#6EE38F"/>
</linearGradient>
</defs>
</svg>
