<svg width="36" height="36" viewBox="0 0 36 36" fill="none" xmlns="http://www.w3.org/2000/svg">
<g id="Frame">
<g id="Group 532">
<path id="Vector" d="M9.21045 3.81006H26.9163C27.9397 3.81006 28.7693 4.75026 28.7693 5.91006L30.0703 23.3101C30.0703 23.3101 29.7578 22.8101 29.0703 22.8101H6.57031C5.97031 22.8101 5.57031 23.3101 5.57031 23.3101L7.35751 5.91006C7.35751 4.75026 8.1871 3.81006 9.21045 3.81006Z" fill="#FFC32A"/>
<path id="Vector_2" d="M5.71094 31.1924V25.1924C5.71094 24.6401 6.15865 24.1924 6.71094 24.1924H29.4168C29.9691 24.1924 30.4168 24.6401 30.4168 25.1924V31.1924C30.4168 31.7447 29.9691 32.1924 29.4168 32.1924H6.71094C6.15865 32.1924 5.71094 31.7447 5.71094 31.1924Z" fill="#FFC32A"/>
<g id="Group 533">
<path id="Vector_3" d="M10.4609 28.1899H11.1609" stroke="#FFF8E7" stroke-width="2" stroke-linecap="round" stroke-linejoin="round"/>
<path id="Vector_4" d="M17.2734 28.1899H25.6734" stroke="#FFF8E7" stroke-width="2" stroke-linecap="round" stroke-linejoin="round"/>
</g>
<g id="Group 527">
<path id="Vector_5" d="M21.4883 12.5222L18.4947 9.57483L15.5935 12.5222" stroke="#FFF8E7" stroke-width="2" stroke-linecap="round" stroke-linejoin="round"/>
<path id="Arrow 22" d="M18.5078 9.57489L18.5078 17.8102" stroke="#FFF8E7" stroke-width="2" stroke-linecap="round"/>
</g>
</g>
</g>
</svg>
