<svg width="80" height="80" viewBox="0 0 80 80" fill="none" xmlns="http://www.w3.org/2000/svg">
<path d="M37.78 8.91957L8.91956 37.78C7.69349 39.006 7.69347 40.994 8.91956 42.22L37.78 71.0805C39.006 72.3065 40.994 72.3065 42.22 71.0805L71.0805 42.22C72.3065 40.994 72.3065 39.006 71.0805 37.78L42.22 8.91957C40.994 7.69348 39.006 7.69348 37.78 8.91957Z" fill="white" stroke="#C5CFD1" stroke-opacity="0.4" stroke-linejoin="round"/>
<path d="M46.5324 28.3184L42.7432 32.1049C42.3538 32.4755 42.3404 33.0904 42.7137 33.4798C42.9017 33.6759 43.1621 33.7833 43.4334 33.7779L46.1349 33.7779L46.1349 36.7158C46.1349 37.3952 45.8691 38.037 45.3884 38.5177L41.2152 42.6882C40.7963 43.1071 40.7963 43.7865 41.2152 44.2081C41.6341 44.627 42.3136 44.627 42.7352 44.2081L46.9083 40.035C47.7945 39.1488 48.2833 37.9699 48.2833 36.7131L48.2833 33.7779L51.0278 33.7779C51.5729 33.7699 52.0079 33.3241 51.9999 32.7789C51.9972 32.5265 51.8952 32.2848 51.7179 32.1049L47.9288 28.3157C47.5421 27.9344 46.9191 27.9344 46.5324 28.3184ZM37.367 40.564L34.1499 37.4731C33.9484 37.2797 33.833 37.0085 33.833 36.7292L33.833 33.7779L36.5829 33.7779C37.128 33.7699 37.563 33.3241 37.555 32.7789C37.5523 32.5265 37.4502 32.2848 37.273 32.1049L33.4839 28.3157C33.0999 27.9317 32.4741 27.9317 32.0901 28.3158L28.301 32.1049C27.9116 32.4755 27.8982 33.0904 28.2715 33.4798C28.4594 33.6759 28.7199 33.7833 28.9911 33.7779L31.6873 33.7779L31.6873 36.7319C31.6873 37.5939 32.0445 38.4291 32.6648 39.0252L35.8793 42.1135C36.462 42.672 36.795 43.4589 36.795 44.2645L36.795 50.8868C36.795 51.4802 37.2757 51.9609 37.8692 51.9609C38.4627 51.9609 38.9433 51.4802 38.9433 50.8868L38.9433 44.2672C38.9433 42.8761 38.3687 41.5281 37.367 40.564Z" fill="#60666B"/>
</svg>
