<svg width="20" height="20" viewBox="0 0 20 20" fill="none" xmlns="http://www.w3.org/2000/svg">
<path d="M2 10C2 7.87827 2.84285 5.84344 4.34315 4.34315C5.84344 2.84285 7.87827 2 10 2C12.1217 2 14.1566 2.84285 15.6569 4.34315C17.1571 5.84344 18 7.87827 18 10C18 12.1217 17.1571 14.1566 15.6569 15.6569C14.1566 17.1571 12.1217 18 10 18C7.87827 18 5.84344 17.1571 4.34315 15.6569C2.84285 14.1566 2 12.1217 2 10ZM3.14286 10C3.14497 11.818 3.8681 13.5609 5.15361 14.8464C6.43911 16.1319 8.18202 16.855 10 16.8571C11.818 16.855 13.5609 16.1319 14.8464 14.8464C16.1319 13.5609 16.855 11.818 16.8571 10C16.855 8.18202 16.1319 6.43911 14.8464 5.15361C13.5609 3.8681 11.818 3.14497 10 3.14286C8.18202 3.14497 6.43911 3.8681 5.15361 5.15361C3.8681 6.43911 3.14497 8.18202 3.14286 10Z" fill="#389E0D"/>
<path d="M7.71423 6.49377V13.5018C7.71423 13.5769 7.72905 13.6513 7.75784 13.7207C7.78663 13.7901 7.82882 13.8532 7.882 13.9062C7.93519 13.9593 7.99832 14.0014 8.06778 14.03C8.13724 14.0587 8.21167 14.0733 8.2868 14.0732C8.3996 14.0728 8.50975 14.039 8.60338 13.9761L13.8605 10.4732C13.9389 10.4211 14.0031 10.3504 14.0476 10.2675C14.092 10.1845 14.1153 10.0919 14.1154 9.99777C14.1153 9.90367 14.092 9.81103 14.0476 9.72809C14.0031 9.64515 13.9389 9.57448 13.8605 9.52234L8.60338 6.01834C8.51731 5.96077 8.41722 5.92767 8.31381 5.92257C8.21039 5.91747 8.10753 5.94057 8.01622 5.98939C7.92491 6.03821 7.84858 6.11093 7.79539 6.19977C7.7422 6.28861 7.71415 6.39023 7.71423 6.49377Z" fill="#389E0D"/>
</svg>
