<svg width="52" height="52" viewBox="0 0 52 52" fill="none" xmlns="http://www.w3.org/2000/svg">
<path d="M0 8C0 3.58172 3.58172 0 8 0H44C48.4183 0 52 3.58172 52 8V44C52 48.4183 48.4183 52 44 52H8C3.58172 52 0 48.4183 0 44V8Z" fill="#FFF1F2"/>
<path d="M35.8182 38.0273C36.0135 38.0273 36.2008 38.1049 36.3389 38.2429C36.477 38.381 36.5545 38.5683 36.5545 38.7636C36.5545 38.9589 36.477 39.1462 36.3389 39.2843C36.2008 39.4224 36.0135 39.5 35.8182 39.5H16.1818C15.9865 39.5 15.7992 39.4224 15.6611 39.2843C15.523 39.1462 15.4455 38.9589 15.4455 38.7636C15.4455 38.5683 15.523 38.381 15.6611 38.2429C15.7992 38.1049 15.9865 38.0273 16.1818 38.0273H35.8182ZM37.7818 29.6818C38.7293 29.6818 39.5 30.4525 39.5 31.4V34.3455C39.5 35.2929 38.7293 36.0636 37.7818 36.0636H14.2182C13.2707 36.0636 12.5 35.2929 12.5 34.3455V31.4C12.5 30.4525 13.2707 29.6818 14.2182 29.6818H22.8091V27.9995C20.7733 25.7516 19.3727 21.5916 19.3727 19.1273C19.3727 15.4729 22.3457 12.5 26 12.5C29.6543 12.5 32.6273 15.4729 32.6273 19.1273C32.6273 21.5916 31.2267 25.7516 29.1909 27.9995V29.6818H37.7818Z" fill="#FB7A81"/>
</svg>
