<svg width="20" height="20" viewBox="0 0 20 20" fill="none" xmlns="http://www.w3.org/2000/svg">
<path d="M2 10C2 7.87827 2.84285 5.84344 4.34315 4.34315C5.84344 2.84285 7.87827 2 10 2C12.1217 2 14.1566 2.84285 15.6569 4.34315C17.1571 5.84344 18 7.87827 18 10C18 12.1217 17.1571 14.1566 15.6569 15.6569C14.1566 17.1571 12.1217 18 10 18C7.87827 18 5.84344 17.1571 4.34315 15.6569C2.84285 14.1566 2 12.1217 2 10ZM3.14286 10C3.14497 11.818 3.8681 13.5609 5.15361 14.8464C6.43911 16.1319 8.18202 16.855 10 16.8571C11.818 16.855 13.5609 16.1319 14.8464 14.8464C16.1319 13.5609 16.855 11.818 16.8571 10C16.855 8.18202 16.1319 6.43911 14.8464 5.15361C13.5609 3.8681 11.818 3.14497 10 3.14286C8.18202 3.14497 6.43911 3.8681 5.15361 5.15361C3.8681 6.43911 3.14497 8.18202 3.14286 10Z" fill="#CF1322"/>
<path d="M6.90615 13.0927C7.12047 13.307 7.41116 13.4275 7.71427 13.4275H12.2857C12.5888 13.4275 12.8795 13.307 13.0938 13.0927C13.3081 12.8784 13.4286 12.5877 13.4286 12.2846V7.71317C13.4286 7.41007 13.3081 7.11937 13.0938 6.90505C12.8795 6.69072 12.5888 6.57031 12.2857 6.57031H7.71427C7.41116 6.57031 7.12047 6.69072 6.90615 6.90505C6.69182 7.11937 6.57141 7.41007 6.57141 7.71317V12.2846C6.57141 12.5877 6.69182 12.8784 6.90615 13.0927Z" fill="#CF1322"/>
</svg>
