<svg width="52" height="52" viewBox="0 0 52 52" fill="none" xmlns="http://www.w3.org/2000/svg">
<path d="M0 8C0 3.58172 3.58172 0 8 0H44C48.4183 0 52 3.58172 52 8V44C52 48.4183 48.4183 52 44 52H8C3.58172 52 0 48.4183 0 44V8Z" fill="#EFF9FF"/>
<path fill-rule="evenodd" clip-rule="evenodd" d="M12.5 13.4643C12.5 12.9317 12.9317 12.5 13.4643 12.5H14.1607C14.6933 12.5 15.125 12.9317 15.125 13.4643C15.125 13.9146 14.8163 14.2929 14.3989 14.3989C14.2929 14.8163 13.9146 15.125 13.4643 15.125C12.9317 15.125 12.5 14.6933 12.5 14.1607V13.4643ZM16.6786 13.4643C16.6786 12.9317 17.1103 12.5 17.6429 12.5H18.3393C18.8718 12.5 19.3036 12.9317 19.3036 13.4643C19.3036 13.9968 18.8718 14.4286 18.3393 14.4286H17.6429C17.1103 14.4286 16.6786 13.9968 16.6786 13.4643ZM21.2054 13.4643C21.2054 12.9317 21.6371 12.5 22.1696 12.5H22.8661C23.3986 12.5 23.8304 12.9317 23.8304 13.4643C23.8304 13.9968 23.3986 14.4286 22.8661 14.4286H22.1696C21.6371 14.4286 21.2054 13.9968 21.2054 13.4643ZM25.7321 13.4643C25.7321 12.9317 26.1639 12.5 26.6964 12.5H27.3929C27.9254 12.5 28.3571 12.9317 28.3571 13.4643C28.3571 13.9968 27.9254 14.4286 27.3929 14.4286H26.6964C26.1639 14.4286 25.7321 13.9968 25.7321 13.4643ZM29.9103 13.4643C29.9103 12.9317 30.342 12.5 30.8745 12.5H31.5714C32.104 12.5 32.5357 12.9317 32.5357 13.4643V14.1607C32.5357 14.6933 32.104 15.125 31.5714 15.125C31.1211 15.125 30.7429 14.8163 30.6368 14.399C30.2192 14.2932 29.9103 13.9148 29.9103 13.4643ZM13.4643 17.0267C13.9968 17.0267 14.4286 17.4585 14.4286 17.991V18.6874C14.4286 19.22 13.9968 19.6517 13.4643 19.6517C12.9317 19.6517 12.5 19.22 12.5 18.6874V17.991C12.5 17.4585 12.9317 17.0267 13.4643 17.0267ZM31.5714 17.0267C32.104 17.0267 32.5357 17.4585 32.5357 17.991V18.6874C32.5357 19.22 32.104 19.6517 31.5714 19.6517C31.0389 19.6517 30.6071 19.22 30.6071 18.6874V17.991C30.6071 17.4585 31.0389 17.0267 31.5714 17.0267ZM14.3989 22.2796C14.2928 21.8623 13.9146 21.5536 13.4643 21.5536C12.9317 21.5536 12.5 21.9854 12.5 22.5179V23.2143C12.5 23.4701 12.6016 23.7154 12.7825 23.8962C12.9633 24.0771 13.2086 24.1786 13.4644 24.1786L14.1608 24.1786C14.6934 24.1785 15.125 23.7468 15.125 23.2142C15.125 22.7639 14.8162 22.3857 14.3989 22.2796ZM31.5714 21.5536C32.104 21.5536 32.5357 21.9854 32.5357 22.5179V23.2143C32.5357 23.4701 32.4341 23.7154 32.2533 23.8962C32.0724 24.0771 31.8271 24.1786 31.5713 24.1786L30.8745 24.1786C30.3419 24.1785 29.9102 23.7468 29.9103 23.2142C29.9103 22.7637 30.2193 22.3854 30.6368 22.2795C30.7429 21.8623 31.1211 21.5536 31.5714 21.5536ZM16.6786 23.2143C16.6786 22.6817 17.1103 22.25 17.6429 22.25H18.3393C18.8718 22.25 19.3036 22.6817 19.3036 23.2143C19.3036 23.7468 18.8718 24.1786 18.3393 24.1786H17.6429C17.1103 24.1786 16.6786 23.7468 16.6786 23.2143ZM21.2054 23.2143C21.2054 22.6817 21.6371 22.25 22.1696 22.25H22.8661C23.3986 22.25 23.8304 22.6817 23.8304 23.2143C23.8304 23.7468 23.3986 24.1786 22.8661 24.1786H22.1696C21.6371 24.1786 21.2054 23.7468 21.2054 23.2143ZM25.7321 23.2143C25.7321 22.6817 26.1639 22.25 26.6964 22.25H27.3929C27.9254 22.25 28.3571 22.6817 28.3571 23.2143C28.3571 23.7468 27.9254 24.1786 27.3929 24.1786H26.6964C26.1639 24.1786 25.7321 23.7468 25.7321 23.2143ZM16.25 27.8215C16.7826 27.8215 17.2143 28.2532 17.2143 28.7858V32.6965H20.8571V28.7858C20.8571 28.2532 21.2889 27.8215 21.8214 27.8215H38.5357C39.0683 27.8215 39.5 28.2532 39.5 28.7858V38.5358C39.5 39.0683 39.0683 39.5001 38.5357 39.5001H21.8214C21.2889 39.5001 20.8571 39.0683 20.8571 38.5358V34.6251H16.25C15.7174 34.6251 15.2857 34.1933 15.2857 33.6608V28.7858C15.2857 28.2532 15.7174 27.8215 16.25 27.8215Z" fill="#63BCF7"/>
</svg>
