<svg width="36" height="36" viewBox="0 0 36 36" fill="none" xmlns="http://www.w3.org/2000/svg">
<g id="&#232;&#135;&#170;&#229;&#174;&#154;&#228;&#185;&#137;&#230;&#180;&#187;&#229;&#138;&#168;">
<g id="Group 530">
<path id="Vector" d="M9.36156 24.48H4.60156C4.04928 24.48 3.60156 24.0323 3.60156 23.48V6.76001C3.60156 6.20773 4.04928 5.76001 4.60156 5.76001H31.4016C31.9538 5.76001 32.4016 6.20773 32.4016 6.76001V23.48C32.4016 24.0323 31.9538 24.48 31.4016 24.48H26.6416H9.36156Z" fill="#D789E8"/>
<path id="Vector_2" d="M18 24.48V28.8" stroke="#D789E8" stroke-width="2" stroke-linecap="round" stroke-linejoin="round"/>
<path id="Vector_3" d="M9.35938 30.24H26.6394" stroke="#D789E8" stroke-width="2" stroke-linecap="round" stroke-linejoin="round"/>
<g id="shell">
<path id="Vector_4" d="M26.4219 18.6538V11.46H27.8369V18.6538H26.4219Z" fill="#FDF2FF"/>
<path id="Vector_5" d="M23.7617 18.6538V11.46H25.1768V18.6538H23.7617Z" fill="#FDF2FF"/>
<path id="Vector_6" d="M22.8594 16.6235H19.6602C19.71 17.3765 20.1641 17.7529 21.0225 17.7529C21.5586 17.7529 22.0317 17.6211 22.4419 17.3574V18.3989C21.9995 18.6479 21.4194 18.7725 20.7017 18.7725C19.9282 18.7725 19.3262 18.5542 18.8955 18.1177C18.4678 17.6812 18.2539 17.0732 18.2539 16.2939C18.2539 15.5176 18.4824 14.8877 18.9395 14.4043C19.3965 13.918 19.9707 13.6748 20.6621 13.6748C21.3506 13.6748 21.8882 13.8843 22.2749 14.3032C22.6646 14.7192 22.8594 15.292 22.8594 16.0215V16.6235ZM21.5366 15.7358C21.5366 15.0093 21.2422 14.646 20.6533 14.646C20.4102 14.646 20.1948 14.7456 20.0073 14.9448C19.8198 15.144 19.7026 15.4077 19.6558 15.7358H21.5366Z" fill="#FDF2FF"/>
<path id="Vector_7" d="M17.3267 18.6538H15.9116V15.8853C15.9116 15.1382 15.6392 14.7646 15.0942 14.7646C14.8218 14.7646 14.5962 14.8687 14.4175 15.0767C14.2417 15.2847 14.1538 15.5542 14.1538 15.8853V18.6538H12.7344V11.46H14.1538V14.5229H14.1714C14.5435 13.9575 15.0444 13.6748 15.6743 13.6748C16.7759 13.6748 17.3267 14.3398 17.3267 15.6699V18.6538Z" fill="#FDF2FF"/>
<path id="Vector_8" d="M8.16016 17.3486C8.64648 17.6445 9.12256 17.7925 9.58838 17.7925C10.1743 17.7925 10.4673 17.6357 10.4673 17.3223C10.4673 17.0996 10.2256 16.9136 9.74219 16.7642C9.13867 16.5767 8.72412 16.3687 8.49854 16.1401C8.27295 15.9087 8.16016 15.5967 8.16016 15.2041C8.16016 14.7266 8.35352 14.353 8.74023 14.0835C9.12695 13.811 9.63379 13.6748 10.2607 13.6748C10.7061 13.6748 11.1353 13.7407 11.5483 13.8726V14.9888C11.1704 14.7661 10.7544 14.6548 10.3003 14.6548C10.0747 14.6548 9.89307 14.6958 9.75537 14.7778C9.61768 14.8569 9.54883 14.9624 9.54883 15.0942C9.54883 15.3169 9.75391 15.4971 10.1641 15.6348C10.6035 15.7812 10.9331 15.9146 11.1528 16.0347C11.3755 16.1548 11.5439 16.313 11.6582 16.5093C11.7754 16.7056 11.834 16.9326 11.834 17.1904C11.834 17.6914 11.6333 18.0811 11.2319 18.3594C10.8306 18.6348 10.2944 18.7725 9.62354 18.7725C9.09619 18.7725 8.6084 18.689 8.16016 18.522V17.3486Z" fill="#FDF2FF"/>
</g>
</g>
</g>
</svg>
