<svg width="20" height="20" viewBox="0 0 20 20" fill="none" xmlns="http://www.w3.org/2000/svg">
<path fill-rule="evenodd" clip-rule="evenodd" d="M9.44501 2.22989L2.22989 9.445C1.92337 9.7515 1.92337 10.2485 2.22989 10.555L9.44501 17.7701C9.75151 18.0766 10.2485 18.0766 10.555 17.7701L17.7701 10.555C18.0766 10.2485 18.0766 9.7515 17.7701 9.445L10.555 2.22989C10.2485 1.92337 9.75151 1.92337 9.44501 2.22989ZM9.9333 6.0625C10.2732 6.0625 10.5487 6.33802 10.5487 6.67789V8.51435L11.8492 7.21387C12.0895 6.97354 12.4791 6.97354 12.7194 7.21387C12.9598 7.45419 12.9598 7.84383 12.7194 8.08415L11.4164 9.38721H13.258C13.5979 9.38721 13.8734 9.66273 13.8734 10.0026C13.8734 10.3425 13.5979 10.618 13.258 10.618H11.4217L12.7195 11.9158C12.9599 12.1561 12.9599 12.5457 12.7195 12.7861C12.4792 13.0264 12.0896 13.0264 11.8492 12.7861L10.5487 11.4855V13.3274C10.5487 13.6673 10.2732 13.9428 9.9333 13.9428C9.59343 13.9428 9.31791 13.6673 9.31791 13.3274V11.4857L8.01753 12.7861C7.77721 13.0264 7.38757 13.0264 7.14725 12.7861C6.90692 12.5457 6.90692 12.1561 7.14725 11.9158L8.44505 10.618H6.60848C6.26861 10.618 5.99309 10.3425 5.99309 10.0026C5.99309 9.66273 6.26861 9.38721 6.60848 9.38721H8.45039L7.14733 8.08414C6.907 7.84382 6.907 7.45418 7.14733 7.21386C7.38765 6.97353 7.77729 6.97353 8.01761 7.21386L9.31791 8.51416V6.67789C9.31791 6.33802 9.59343 6.0625 9.9333 6.0625Z" fill="white"/>
</svg>
