<svg width="52" height="52" viewBox="0 0 52 52" fill="none" xmlns="http://www.w3.org/2000/svg">
<path d="M0 8C0 3.58172 3.58172 0 8 0H44C48.4183 0 52 3.58172 52 8V44C52 48.4183 48.4183 52 44 52H8C3.58172 52 0 48.4183 0 44V8Z" fill="#EBFFEB"/>
<path d="M15 12H37.4" stroke="#78E366" stroke-width="2" stroke-linecap="round" stroke-linejoin="round"/>
<path d="M15 40H37.4" stroke="#78E366" stroke-width="2" stroke-linecap="round" stroke-linejoin="round"/>
<path d="M34.5969 39.9984V29.8484L28.2969 23.8984" stroke="#78E366" stroke-width="2" stroke-linecap="round" stroke-linejoin="round"/>
<path d="M17.7969 39.9984V30.1984L22.3469 25.6484" stroke="#78E366" stroke-width="2" stroke-linecap="round" stroke-linejoin="round"/>
<path d="M24.0969 27.4L17.7969 20.4V15.5H34.5969V20.4L30.0469 25.65L28.5 24L24.0969 27.4Z" fill="#78E366" stroke="#78E366" stroke-width="2" stroke-linecap="round" stroke-linejoin="round"/>
<path d="M17.7969 12V15.1M34.5969 12V15.1" stroke="#78E366" stroke-width="2" stroke-linecap="round" stroke-linejoin="round"/>
<path d="M22 32.2988H22.7" stroke="#78E366" stroke-width="2" stroke-linecap="round" stroke-linejoin="round"/>
<path d="M29.8047 32.0527L30.2997 32.5477" stroke="#78E366" stroke-width="2" stroke-linecap="round" stroke-linejoin="round"/>
<path d="M26.2031 35.7988H26.9031" stroke="#78E366" stroke-width="2" stroke-linecap="round" stroke-linejoin="round"/>
</svg>
