<svg width="36" height="36" viewBox="0 0 36 36" fill="none" xmlns="http://www.w3.org/2000/svg">
<g id="Frame">
<g id="Group 527">
<g id="Group 526">
<path id="Vector" d="M11.7973 9.66296H30.2708C31.448 9.66296 32.4023 10.6173 32.4023 11.7945V30.268C32.4023 31.4453 31.448 32.3996 30.2708 32.3996H11.7973C10.62 32.3996 9.66571 31.4453 9.66571 30.268V11.7945C9.66571 10.6173 10.62 9.66296 11.7973 9.66296Z" fill="#43DFC4"/>
<g id="Group 525">
<path id="Vector_2" d="M24.0625 20.2737L20.9834 17.2422L17.9994 20.2737" stroke="#EAFBF8" stroke-width="2" stroke-linecap="round" stroke-linejoin="round"/>
<path id="Arrow 22" d="M21.0313 17.2424L21.0312 26.337" stroke="#EAFBF8" stroke-width="2" stroke-linecap="round"/>
</g>
</g>
<path id="Vector_3" d="M26.3398 5.73153V7.59998H10.431C8.93104 7.59998 7.60303 8.96766 7.60303 10.4677V26.3366H5.73477C4.55754 26.3366 3.60321 25.3823 3.60321 24.205V5.73153C3.60321 4.55431 4.55754 3.59998 5.73477 3.59998H24.2083C25.3855 3.59998 26.3398 4.55431 26.3398 5.73153Z" fill="#43DFC4"/>
</g>
</g>
</svg>
