<svg width="52" height="52" viewBox="0 0 52 52" fill="none" xmlns="http://www.w3.org/2000/svg">
<path d="M0 8C0 3.58172 3.58172 0 8 0H44C48.4183 0 52 3.58172 52 8V44C52 48.4183 48.4183 52 44 52H8C3.58172 52 0 48.4183 0 44V8Z" fill="#F0F4FE"/>
<path d="M22.6957 31.6138C22.464 31.8964 22.5239 32.3167 22.8253 32.5233L32.524 39.1704C32.8778 39.4129 33.365 39.234 33.4779 38.8203L40.377 13.5233C40.5162 13.013 39.9967 12.5722 39.5159 12.7926L11.9636 25.4207C11.4921 25.6368 11.4754 26.3006 11.9354 26.5402L19.9597 30.7201C20.0824 30.784 20.2321 30.763 20.3325 30.6677L34.4939 17.2242L22.6957 31.6138Z" fill="#88A6FB"/>
<path d="M20.7495 37.5535L23.2529 34.4575C23.3587 34.3266 23.3076 34.1307 23.1514 34.0682L20.648 33.0668C20.4837 33.0011 20.3051 33.1221 20.3051 33.2989V37.3963C20.3051 37.632 20.6013 37.7367 20.7495 37.5535Z" fill="#88A6FB"/>
</svg>
