<svg width="52" height="52" viewBox="0 0 52 52" fill="none" xmlns="http://www.w3.org/2000/svg">
<path d="M0 8C0 3.58172 3.58172 0 8 0H44C48.4183 0 52 3.58172 52 8V44C52 48.4183 48.4183 52 44 52H8C3.58172 52 0 48.4183 0 44V8Z" fill="#FDF2FF"/>
<path fill-rule="evenodd" clip-rule="evenodd" d="M26.2571 11.6016C26.5299 11.6016 26.7915 11.7099 26.9844 11.9028L32.3844 17.3028C32.7861 17.7045 32.7861 18.3558 32.3844 18.7574L26.9844 24.1574C26.7915 24.3503 26.5299 24.4587 26.2571 24.4587C25.9843 24.4587 25.7227 24.3503 25.5298 24.1574L20.1298 18.7574C19.7281 18.3558 19.7281 17.7045 20.1298 17.3028L25.5298 11.9028C25.7227 11.7099 25.9843 11.6016 26.2571 11.6016ZM22.3117 18.0301L26.2571 21.9755L30.2025 18.0301L26.2571 14.0848L22.3117 18.0301ZM17.3012 20.1314C17.7029 19.7297 18.3542 19.7297 18.7559 20.1314L24.1559 25.5314C24.3488 25.7243 24.4571 25.9859 24.4571 26.2587C24.4571 26.5315 24.3488 26.7931 24.1559 26.986L18.7559 32.386C18.3542 32.7877 17.7029 32.7877 17.3012 32.386L11.9012 26.986C11.7083 26.7931 11.6 26.5315 11.6 26.2587C11.6 25.9859 11.7083 25.7243 11.9012 25.5314L17.3012 20.1314ZM33.2441 20.1314C33.6458 19.7297 34.297 19.7297 34.6987 20.1314L40.0987 25.5314C40.5004 25.9331 40.5004 26.5843 40.0987 26.986L34.6987 32.386C34.297 32.7877 33.6458 32.7877 33.2441 32.386L27.8441 26.986C27.4424 26.5843 27.4424 25.9331 27.8441 25.5314L33.2441 20.1314ZM22.3117 33.973L26.2571 37.9184L30.2025 33.973L26.2571 30.0276L22.3117 33.973ZM25.5298 27.8457C25.9315 27.444 26.5827 27.444 26.9844 27.8457L32.3844 33.2457C32.7861 33.6474 32.7861 34.2986 32.3844 34.7003L26.9844 40.1003C26.5827 40.502 25.9315 40.502 25.5298 40.1003L20.1298 34.7003C19.7281 34.2986 19.7281 33.6474 20.1298 33.2457L25.5298 27.8457Z" fill="#D789E8"/>
</svg>
