<svg width="52" height="52" viewBox="0 0 52 52" fill="none" xmlns="http://www.w3.org/2000/svg">
<path d="M0 8C0 3.58172 3.58172 0 8 0H44C48.4183 0 52 3.58172 52 8V44C52 48.4183 48.4183 52 44 52H8C3.58172 52 0 48.4183 0 44V8Z" fill="#EAFBF8"/>
<path fill-rule="evenodd" clip-rule="evenodd" d="M37.1967 13.1182C37.503 12.8166 37.9958 12.8205 38.2974 13.1268L40.0361 14.8928C40.2547 15.0306 40.4 15.2742 40.4 15.5518C40.4 15.5567 40.3999 15.5616 40.3998 15.5666C40.4 15.5735 40.4 15.5804 40.4 15.5874C40.3983 15.7938 40.3148 15.9912 40.1676 16.136L38.2888 17.9853C37.9824 18.2869 37.4896 18.283 37.188 17.9766C36.8865 17.6703 36.8904 17.1774 37.1967 16.8759L37.7512 16.3301H32.5891C32.3128 16.3301 31.8912 16.4145 31.5621 16.647C31.2745 16.8502 31.0058 17.1975 31.0058 17.8846C31.0058 18.5729 31.2757 18.9295 31.5679 19.1399C31.8996 19.3787 32.3207 19.4662 32.5891 19.4662H36.8966C37.413 19.4662 38.1636 19.6115 38.807 20.0824C39.4897 20.582 39.986 21.4033 39.986 22.5903C39.986 23.7769 39.4901 24.5998 38.8091 25.1016C38.1667 25.5751 37.416 25.7244 36.8966 25.7244H32.0978L32.6522 26.2701C32.9586 26.5717 32.9625 27.0645 32.6609 27.3708C32.3594 27.6772 31.8666 27.6811 31.5602 27.3796L29.6813 25.5302C29.5342 25.3853 29.4506 25.188 29.449 24.9816C29.4474 24.7751 29.5279 24.5765 29.6727 24.4294L31.5516 22.521C31.8532 22.2147 32.346 22.2109 32.6523 22.5125C32.9586 22.8141 32.9625 23.3069 32.6609 23.6132L32.1151 24.1676H36.8966C37.1645 24.1676 37.5692 24.0816 37.8855 23.8485C38.1632 23.6438 38.4292 23.2888 38.4292 22.5903C38.4292 21.8922 38.1636 21.5406 37.8876 21.3386C37.5723 21.1079 37.1675 21.0229 36.8966 21.0229H32.5891C32.0702 21.0229 31.3105 20.8729 30.6581 20.4031C29.9662 19.9049 29.449 19.0815 29.449 17.8846C29.449 16.6867 29.9675 15.8675 30.6639 15.3755C31.3188 14.9129 32.0781 14.7734 32.5891 14.7734H37.7339L37.1881 14.219C36.8865 13.9127 36.8903 13.4198 37.1967 13.1182ZM16.7104 19.798C16.7104 16.8985 19.0609 14.5479 21.9604 14.5479C24.86 14.5479 27.2105 16.8985 27.2105 19.798C27.2105 22.6975 24.86 25.048 21.9604 25.048C19.0609 25.048 16.7104 22.6975 16.7104 19.798ZM20.5204 28.6018H23.4007C24.8023 28.6018 25.9019 28.6017 26.7858 28.674C27.6861 28.7475 28.431 28.8999 29.1056 29.2436C30.2137 29.8082 31.1146 30.7091 31.6792 31.8171C32.0229 32.4918 32.1753 33.2367 32.2488 34.137C32.3211 35.0209 32.3211 36.1205 32.321 37.522V38.3235C32.321 38.7534 31.9726 39.1019 31.5427 39.1019H12.3784C11.9485 39.1019 11.6 38.7534 11.6 38.3235L11.6 37.5221C11.6 36.1205 11.6 35.0209 11.6722 34.137C11.7457 33.2367 11.8981 32.4918 12.2418 31.8171C12.8064 30.7091 13.7073 29.8082 14.8153 29.2436C15.49 28.8999 16.2349 28.7475 17.1352 28.674C18.0191 28.6017 19.1187 28.6018 20.5204 28.6018Z" fill="#43DFC4"/>
</svg>
