<svg width="36" height="36" viewBox="0 0 36 36" fill="none" xmlns="http://www.w3.org/2000/svg">
<g id="Frame">
<path id="Vector" d="M18 33C26.2843 33 33 26.2843 33 18C33 9.71572 26.2843 3 18 3C9.71572 3 3 9.71572 3 18C3 26.2843 9.71572 33 18 33Z" fill="#78E366"/>
<g id="Group 524">
<path id="Vector_2" d="M22.777 9.83479L22.7425 9.74397C21.5986 9.88695 20.4087 10.1327 19.4626 10.6161C18.515 11.1002 17.8072 11.8256 17.6406 12.9272C17.4861 13.9491 17.95 14.6247 18.3578 15.2184C18.3903 15.2658 18.4225 15.3126 18.4539 15.3591C18.6683 15.6755 18.8483 15.9709 18.9025 16.293C18.956 16.6114 18.8872 16.9629 18.5876 17.3928C18.5597 17.4297 18.5217 17.4678 18.4793 17.5083C18.4702 17.517 18.4609 17.5257 18.4516 17.5346C18.4178 17.5666 18.3826 17.5998 18.3517 17.6329C18.3124 17.675 18.2756 17.7211 18.2551 17.7703C18.2337 17.8216 18.2293 17.8781 18.258 17.9346L18.2801 17.9779L18.324 17.9571C18.3972 17.9224 18.4691 17.8887 18.5397 17.8557C19.2094 17.542 19.7572 17.2855 20.0979 16.7554C20.3487 16.3689 20.4205 16.0058 20.3863 15.6604C20.3522 15.3166 20.2133 14.9936 20.0491 14.6859C19.9779 14.5524 19.9014 14.4209 19.8262 14.2916C19.8147 14.2717 19.8031 14.2519 19.7916 14.2321C19.7052 14.0833 19.6218 13.9373 19.5499 13.7923C19.4059 13.5018 19.311 13.2208 19.3305 12.9381L19.3305 12.9375C19.3501 12.5903 19.5829 12.2652 19.8868 11.9714C20.1218 11.7442 20.3926 11.5418 20.6271 11.3666C20.6951 11.3158 20.76 11.2673 20.8201 11.2211C21.403 10.775 21.9281 10.4157 22.4691 10.0457C22.571 9.97598 22.6735 9.9059 22.777 9.83479Z" fill="#EBFFEB" stroke="#EBFFEB" stroke-width="0.1"/>
<path id="Vector_3" d="M19.1524 5.96464L19.0745 6.02618C19.2294 6.27826 19.2599 6.5715 19.2203 6.85966C19.1806 7.14794 19.0711 7.42767 18.9504 7.6479L18.9504 7.64799C18.4668 8.53471 17.5487 9.23223 16.6288 9.92225C16.6131 9.93405 16.5973 9.94584 16.5816 9.95763C15.6827 10.6317 14.7882 11.3026 14.3414 12.1358L14.3854 12.1594L14.3413 12.1358C14.027 12.7221 14.049 13.3386 14.2303 13.9083C14.4114 14.4771 14.752 15.0023 15.0803 15.4118L15.0802 15.4118L15.082 15.4138C15.7802 16.1953 16.7224 16.892 17.4574 17.3824L17.6087 17.4834L17.5302 17.3192C17.4166 17.0815 17.2544 16.8215 17.0766 16.5486C17.0279 16.4738 16.978 16.3981 16.9276 16.3215C16.7933 16.1175 16.6549 15.9074 16.5237 15.6929C16.162 15.1017 15.8632 14.4901 15.8632 13.9142C15.8632 13.4014 16.1784 12.9252 16.4241 12.598C16.6966 12.2446 17.0432 11.9028 17.412 11.5537C17.4842 11.4854 17.5572 11.4168 17.6306 11.3478C17.9318 11.0649 18.2402 10.7751 18.5262 10.4707C19.2377 9.71311 19.8196 8.85486 19.8196 7.75473C19.8196 7.04958 19.5301 6.34229 19.1524 5.96464Z" fill="#EBFFEB" stroke="#EBFFEB" stroke-width="0.1"/>
<path id="Vector_4" d="M15.0574 17.0202L15.042 16.9243C14.8282 16.9062 14.6129 16.9125 14.4004 16.9431C14.2956 16.9546 14.2076 16.9641 14.1397 16.9641V16.964L14.1359 16.9643L13.9118 16.9814L13.9118 16.9814L13.9005 16.9823C13.3374 17.025 12.4993 17.0887 11.8044 17.2553C11.455 17.3391 11.1373 17.45 10.9082 17.6002C10.6789 17.7506 10.5305 17.9463 10.5403 18.1988C10.5407 18.4267 10.6872 18.6053 10.9025 18.7442C11.1183 18.8836 11.4126 18.9897 11.7307 19.0718C12.3677 19.236 13.1162 19.3077 13.5641 19.3483L13.5641 19.3484L13.5656 19.3485C14.9145 19.4307 16.5696 19.4103 18.0463 19.2519C18.7846 19.1727 19.4794 19.0588 20.0694 18.9056C20.6572 18.753 21.1456 18.5603 21.4692 18.3207C21.5717 18.259 21.7167 18.1658 21.8268 18.0664C21.882 18.0165 21.9314 17.9625 21.9615 17.9076C21.9916 17.8526 22.0065 17.7884 21.9758 17.7271L21.959 17.6935L21.9221 17.7002C19.9271 18.0665 17.0354 18.2704 14.6735 18.1478L14.6735 18.1477H14.6709C14.3846 18.1477 14.0925 18.1476 13.8212 18.1074C13.5678 18.0698 13.3368 17.9977 13.1487 17.8612C13.2836 17.6915 13.4757 17.5674 13.6963 17.4686C13.9334 17.3624 14.1988 17.2874 14.4543 17.2151L14.4546 17.215L14.4676 17.2113C14.6792 17.1515 14.886 17.093 15.0574 17.0202ZM20.7363 20.3431C20.5125 20.1621 20.2701 19.966 19.9797 19.9428C19.89 19.9282 19.7978 19.9385 19.7049 19.9602C19.6117 19.9819 19.5143 20.016 19.4152 20.0507L19.4146 20.0509L19.414 20.0511C19.3127 20.088 19.2099 20.1203 19.1058 20.1479C18.3736 20.2901 17.2664 20.4321 16.226 20.422C15.7054 20.4169 15.2033 20.3738 14.7739 20.2742C14.3481 20.1755 13.9993 20.0225 13.7738 19.8013C13.769 19.7859 13.7726 19.7673 13.7908 19.7401C13.8121 19.7082 13.8458 19.6766 13.8818 19.6428L13.8824 19.6423C13.8825 19.6422 13.8825 19.6422 13.8826 19.6421C13.9007 19.6253 13.9197 19.6077 13.9352 19.591C13.9496 19.5753 13.9664 19.5546 13.9739 19.5311C13.978 19.5183 13.9801 19.5023 13.9754 19.4853C13.9706 19.468 13.9602 19.4546 13.9481 19.4449C13.9262 19.4273 13.8951 19.4186 13.862 19.4134L13.852 19.4118L13.8422 19.4142C13.5977 19.4748 13.1951 19.5776 12.8582 19.7434C12.6898 19.8263 12.5345 19.9265 12.4233 20.0478C12.3114 20.1698 12.2426 20.3153 12.2537 20.4854L12.2537 20.4854L12.2538 20.4864C12.2657 20.6269 12.3501 20.75 12.4698 20.8556C12.5898 20.9615 12.7503 21.0543 12.9259 21.1343C13.2774 21.2944 13.6994 21.4074 14.007 21.4692C15.2167 21.7153 16.6396 21.7459 17.969 21.6181C19.2979 21.4904 20.538 21.204 21.381 20.8131L21.5278 20.745L21.3682 20.7184C21.1527 20.6825 20.9592 20.5259 20.7492 20.3536L20.7489 20.3533L20.7363 20.3431ZM20.4195 22.4482C20.1947 22.2375 19.9482 22.0063 19.5708 21.983C19.3821 21.9531 19.1949 22.0328 19.0259 22.1049L19.0219 22.1066C19.0219 22.1066 19.0219 22.1066 19.0218 22.1066C19.0121 22.1107 19.0024 22.1148 18.9929 22.1188C18.9324 22.1444 18.8757 22.1683 18.8181 22.1872C18.1877 22.3294 17.2444 22.4814 16.3987 22.4866C15.9752 22.4891 15.5789 22.4548 15.2596 22.3654C14.9457 22.2776 14.7146 22.139 14.5991 21.9387C14.6 21.9376 14.601 21.9364 14.602 21.9352L14.6244 21.9114L14.6255 21.9103C14.6367 21.8985 14.6499 21.8844 14.6612 21.8702C14.6723 21.8562 14.6852 21.8375 14.6913 21.8162C14.6983 21.7917 14.6962 21.7622 14.6742 21.7375C14.6557 21.7166 14.6282 21.7055 14.5999 21.6986L14.5876 21.6956L14.5754 21.6988L14.3358 21.7616L14.3355 21.7616L14.3322 21.7625C14.0065 21.8457 13.6727 21.9309 13.4357 22.1136C13.3152 22.2065 13.219 22.3248 13.1606 22.4805C13.1023 22.6357 13.0828 22.8249 13.1106 23.0581L13.1131 23.079L13.1299 23.0918C14.022 23.7763 15.5469 23.9996 17.0642 23.9229C18.5832 23.8461 20.1116 23.4678 21.0185 22.9325L21.1257 22.8692L21.0045 22.8407C20.7828 22.7887 20.6125 22.6308 20.4249 22.4533L20.4247 22.4532L20.4195 22.4482Z" fill="#EBFFEB" stroke="#EBFFEB" stroke-width="0.1"/>
<path id="Vector_5" d="M22.7201 24.6619C21.9415 24.9703 20.9478 25.1229 20.255 25.205C18.7483 25.3675 17.0886 25.4284 15.5821 25.3621C14.0742 25.2958 12.7244 25.1022 11.8348 24.7583L11.8348 24.7583L11.8342 24.758C11.6756 24.6992 11.4765 24.5899 11.3232 24.4612C11.2465 24.3969 11.1831 24.3294 11.1417 24.2627C11.1001 24.1959 11.0829 24.1339 11.091 24.0782L11.0912 24.0769C11.1176 23.8525 11.2929 23.723 11.5552 23.6447C11.817 23.5666 12.1467 23.5456 12.4481 23.527L12.495 23.5241V23.5228C12.6924 23.511 12.8759 23.4988 13.0104 23.4672L13.1055 23.4449L13.0318 23.3808C12.787 23.168 12.4115 23.036 11.9916 22.9748C11.5706 22.9135 11.0988 22.9226 10.6556 22.9973C10.2128 23.0719 9.79506 23.2125 9.48399 23.4169C9.1731 23.6212 8.96257 23.8937 8.95128 24.2316C8.93024 24.623 9.16981 24.9531 9.50141 25.2121C9.83392 25.4719 10.268 25.668 10.659 25.7919C13.0754 26.6106 16.9189 26.651 20.0218 26.3238L20.0222 26.3238C20.7374 26.2422 21.9758 26.0479 23.016 25.6787C23.5358 25.4942 24.0101 25.2648 24.3449 24.9811C24.6805 24.6967 24.8813 24.3529 24.8379 23.943L24.8381 23.943L24.8372 23.9384C24.7508 23.5066 24.3631 23.2079 23.9365 23.1646L23.8672 23.1576L23.8827 23.2255C23.9604 23.5648 23.8646 23.8442 23.6536 24.079C23.4406 24.316 23.1098 24.5075 22.7201 24.6619Z" fill="#EBFFEB" stroke="#EBFFEB" stroke-width="0.1"/>
<path id="Vector_6" d="M17.6841 28.0788L17.6841 28.0784C15.6046 27.8329 13.5985 27.5468 11.9174 26.8096L11.9492 26.7152C14.1472 27.2444 16.855 27.4888 19.3997 27.3209C21.9458 27.1528 24.3209 26.5723 25.8601 25.4584C25.9013 25.4279 25.9448 25.3872 25.9886 25.3435L25.9896 25.3424L25.9897 25.3424L25.995 25.3374C26.0533 25.2825 26.1173 25.2222 26.1855 25.1796C26.2567 25.135 26.3385 25.1057 26.4294 25.1242L26.4847 25.1355L26.4668 25.189C26.1158 26.2429 25.3192 26.8584 24.3224 27.2522C23.3274 27.6452 22.1262 27.82 20.957 27.9897M17.6841 28.0788L20.9496 27.9403M17.6841 28.0788H17.69M17.6841 28.0788H17.69M20.957 27.9897C20.9569 27.9897 20.9569 27.9897 20.9568 27.9897L20.9496 27.9403M20.957 27.9897C20.957 27.9897 20.957 27.9897 20.957 27.9897L20.9496 27.9403M20.957 27.9897C20.874 28.0022 20.7911 28.0145 20.7083 28.0268C20.5059 28.0568 20.3044 28.0868 20.105 28.1181L20.0472 28.1272V28.1095M20.9496 27.9403C20.8668 27.9527 20.7839 27.965 20.7012 27.9773C20.5154 28.0049 20.3302 28.0324 20.1467 28.061C20.147 28.0635 20.1472 28.066 20.1472 28.0688H20.0972C20.0972 28.0686 20.0972 28.0685 20.0972 28.0684C20.0847 28.0288 17.69 28.0288 17.69 28.0288M20.0472 28.1095C20.0536 28.1101 20.0592 28.1107 20.064 28.1113C20.0723 28.1124 20.0765 28.1132 20.0779 28.1135C20.0782 28.1136 20.0782 28.1136 20.0779 28.1136C20.0773 28.1134 20.0751 28.1127 20.0723 28.1112C20.0704 28.1102 20.0655 28.1075 20.0605 28.1022C20.0553 28.0967 20.0472 28.0853 20.0472 28.0688V28.1095ZM20.0472 28.1095C20.0325 28.1082 20.0137 28.1068 19.9909 28.1055C19.9259 28.1017 19.8326 28.0984 19.7199 28.0956C19.4946 28.09 19.194 28.0863 18.8932 28.0838C18.5924 28.0813 18.2916 28.08 18.066 28.0794L17.7934 28.0789L17.717 28.0788L17.6969 28.0788L17.6917 28.0788H17.6904H17.6901H17.69L17.69 28.0288M17.69 28.0288V28.0788M17.69 28.0288V28.0788M26.4194 25.1732L26.4094 25.2222C26.4073 25.2218 26.4052 25.2214 26.4031 25.221C26.4086 25.2052 26.4141 25.1893 26.4194 25.1732ZM26.4194 25.1732L26.372 25.1574C26.3707 25.1612 26.3695 25.1649 26.3682 25.1687C26.385 25.1683 26.4021 25.1697 26.4194 25.1732ZM11.9375 26.7638C12.033 26.7868 12.1295 26.8092 12.2269 26.8311C12.1362 26.7946 12.0464 26.7569 11.9576 26.718L11.9375 26.7638ZM11.9375 26.7638C12.0281 26.8035 12.1196 26.8419 12.212 26.879C12.1157 26.8574 12.0203 26.8351 11.9258 26.8124L11.9375 26.7638ZM22.3891 17.5067L22.4327 17.5934C23.3139 17.3931 24.0548 17.7959 24.2091 18.3714C24.338 19.0019 24.1117 19.5556 23.7455 20.0382C23.3784 20.5221 22.8751 20.9289 22.4602 21.2636L22.4602 21.2636C22.4509 21.2712 22.4416 21.2786 22.4324 21.2861C22.2585 21.4265 22.1013 21.5534 21.9802 21.669L21.8826 21.7622L22.0174 21.7551C22.8012 21.7139 23.7182 21.4149 24.4301 20.8834C25.1427 20.3514 25.6541 19.5826 25.6127 18.6038C25.592 17.7436 25.0757 17.216 24.419 17.0321C23.7653 16.8491 22.9728 17.0062 22.3891 17.5067Z" fill="#EBFFEB" stroke="#EBFFEB" stroke-width="0.1"/>
</g>
</g>
</svg>
