<svg width="80" height="80" viewBox="0 0 80 80" fill="none" xmlns="http://www.w3.org/2000/svg">
<path d="M37.78 8.91957L8.91956 37.78C7.69349 39.006 7.69347 40.994 8.91956 42.22L37.78 71.0805C39.006 72.3065 40.994 72.3065 42.2201 71.0805L71.0805 42.22C72.3065 40.994 72.3065 39.006 71.0805 37.78L42.2201 8.91957C40.994 7.69348 39.006 7.69348 37.78 8.91957Z" fill="white" stroke="#C5CFD1" stroke-opacity="0.4" stroke-linejoin="round"/>
<path fill-rule="evenodd" clip-rule="evenodd" d="M40.0002 28C41.0353 28 41.8744 28.8391 41.8744 29.8742V38.1256H50.1258C51.1609 38.1256 52 38.9648 52 39.9998C52 41.0349 51.1609 41.874 50.1258 41.874H41.8744V50.1258C41.8744 51.1609 41.0353 52 40.0002 52C38.9651 52 38.126 51.1609 38.126 50.1258V41.874H29.8742C28.8391 41.874 28 41.0349 28 39.9998C28 38.9648 28.8391 38.1256 29.8742 38.1256H38.126V29.8742C38.126 28.8391 38.9651 28 40.0002 28Z" fill="#4C8DFF"/>
</svg>
