<svg width="52" height="52" viewBox="0 0 52 52" fill="none" xmlns="http://www.w3.org/2000/svg">
<path d="M0 8C0 3.58172 3.58172 0 8 0H44C48.4183 0 52 3.58172 52 8V44C52 48.4183 48.4183 52 44 52H8C3.58172 52 0 48.4183 0 44V8Z" fill="#FFF8E7"/>
<path fill-rule="evenodd" clip-rule="evenodd" d="M25.9962 16.4258C21.0547 16.4258 17.0489 20.4316 17.0489 25.3731V26.7228V33.4709V34.8205C17.0489 35.0967 16.825 35.3205 16.5489 35.3205H13.8496C12.8281 35.3205 12 34.4924 12 33.4709V28.0724C12 27.0508 12.8281 26.2228 13.8496 26.2228H16.0489V25.3731C16.0489 19.8794 20.5024 15.4258 25.9962 15.4258C31.49 15.4258 35.9436 19.8794 35.9436 25.3731V26.2228H38.1428C39.1644 26.2228 39.9925 27.0509 39.9925 28.0724V33.4709C39.9925 34.4924 39.1644 35.3205 38.1428 35.3205H35.4436C35.1675 35.3205 34.9436 35.0967 34.9436 34.8205V33.4709V26.7228V25.3731C34.9436 20.4316 30.9377 16.4258 25.9962 16.4258ZM38.5928 27.3516V34.1917C38.8328 34.0416 38.9925 33.7749 38.9925 33.4709V28.0724C38.9925 27.7684 38.8328 27.5017 38.5928 27.3516ZM13.3996 27.3516V34.1917C13.1596 34.0415 13 33.7748 13 33.4709V28.0724C13 27.7684 13.1596 27.5018 13.3996 27.3516Z" fill="#FFC32A"/>
<path d="M20.6941 25.4141H31.2983C31.554 25.4141 31.7992 25.5156 31.98 25.6964C32.1608 25.8772 32.2623 26.1224 32.2623 26.3781V34.0902C32.2623 34.3459 32.1608 34.5911 31.98 34.7719C31.7992 34.9527 31.554 35.0542 31.2983 35.0542H27.9242L25.9962 36.9823L24.0682 35.0542H20.6941C20.4384 35.0542 20.1932 34.9527 20.0125 34.7719C19.8317 34.5911 19.7301 34.3459 19.7301 34.0902V26.3781C19.7301 26.1224 19.8317 25.8772 20.0125 25.6964C20.1932 25.5156 20.4384 25.4141 20.6941 25.4141ZM22.6222 30.7162C22.8778 30.7162 23.123 30.6146 23.3038 30.4338C23.4846 30.253 23.5862 30.0078 23.5862 29.7521C23.5862 29.4965 23.4846 29.2513 23.3038 29.0705C23.123 28.8897 22.8778 28.7881 22.6222 28.7881C22.3665 28.7881 22.1213 28.8897 21.9405 29.0705C21.7597 29.2513 21.6581 29.4965 21.6581 29.7521C21.6581 30.0078 21.7597 30.253 21.9405 30.4338C22.1213 30.6146 22.3665 30.7162 22.6222 30.7162ZM25.9962 30.7162C26.2519 30.7162 26.4971 30.6146 26.6779 30.4338C26.8587 30.253 26.9602 30.0078 26.9602 29.7521C26.9602 29.4965 26.8587 29.2513 26.6779 29.0705C26.4971 28.8897 26.2519 28.7881 25.9962 28.7881C25.7405 28.7881 25.4953 28.8897 25.3145 29.0705C25.1338 29.2513 25.0322 29.4965 25.0322 29.7521C25.0322 30.0078 25.1338 30.253 25.3145 30.4338C25.4953 30.6146 25.7405 30.7162 25.9962 30.7162ZM29.3703 30.7162C29.6259 30.7162 29.8711 30.6146 30.0519 30.4338C30.2327 30.253 30.3343 30.0078 30.3343 29.7521C30.3343 29.4965 30.2327 29.2513 30.0519 29.0705C29.8711 28.8897 29.6259 28.7881 29.3703 28.7881C29.1146 28.7881 28.8694 28.8897 28.6886 29.0705C28.5078 29.2513 28.4063 29.4965 28.4063 29.7521C28.4063 30.0078 28.5078 30.253 28.6886 30.4338C28.8694 30.6146 29.1146 30.7162 29.3703 30.7162Z" fill="#FFC32A"/>
</svg>
