<svg width="55" height="20" viewBox="0 0 55 20" fill="none" xmlns="http://www.w3.org/2000/svg">
<path d="M3 0H47C51.4183 0 55 3.58172 55 8V20H11C6.58172 20 3 16.4183 3 12V0Z" fill="url(#paint0_linear_1727_1456)"/>
<path d="M0 3L3 1.07284e-07L3 3L0 3Z" fill="#A42307"/>
<path d="M21.968 12.056C21.944 12.44 21.9 12.832 21.836 13.232C21.748 13.696 21.64 14.044 21.512 14.276C21.392 14.508 21.2 14.672 20.936 14.768C20.68 14.864 20.3 14.924 19.796 14.948C18.796 14.988 17.896 15.008 17.096 15.008C16.36 15.008 15.532 14.988 14.612 14.948C14.092 14.924 13.696 14.852 13.424 14.732C13.152 14.62 12.956 14.428 12.836 14.156C12.716 13.884 12.656 13.488 12.656 12.968V7.304L13.82 7.352V8.828H19.736V6.176H12.356V5.036H20.888V9.932H13.82V12.668C13.82 12.996 13.848 13.236 13.904 13.388C13.968 13.54 14.076 13.648 14.228 13.712C14.388 13.768 14.64 13.804 14.984 13.82C15.808 13.86 16.552 13.88 17.216 13.88C17.88 13.88 18.624 13.86 19.448 13.82C19.792 13.796 20.04 13.76 20.192 13.712C20.352 13.664 20.468 13.576 20.54 13.448C20.612 13.312 20.672 13.1 20.72 12.812C20.776 12.452 20.812 12.072 20.828 11.672L21.968 12.056ZM25.9565 4.436V6.5H27.2165V7.532H25.9565V9.428C26.2125 9.34 26.5925 9.204 27.0965 9.02L27.1565 9.608L27.2165 10.136C26.8805 10.272 26.4605 10.42 25.9565 10.58V13.796C25.9565 14.132 25.9165 14.38 25.8365 14.54C25.7645 14.7 25.6365 14.816 25.4525 14.888C25.2685 14.96 24.9845 15.016 24.6005 15.056L24.0245 15.116L23.7005 14.084L24.3125 14.036C24.5685 14.012 24.7325 13.968 24.8045 13.904C24.8845 13.84 24.9245 13.692 24.9245 13.46V10.916C24.2365 11.132 23.7245 11.284 23.3885 11.372L23.1485 10.268C23.7165 10.124 24.3085 9.956 24.9245 9.764V7.532H23.5445V6.5H24.9245V4.4L25.9565 4.436ZM28.6685 11.888V13.748H33.8165V14.792H27.5765V4.976H33.6725V6.032H28.6685V7.652H33.0725V11.888H28.6685ZM32.0045 10.856V8.696H28.6685V10.856H32.0045ZM45.665 12.86C45.633 13.196 45.593 13.46 45.545 13.652C45.465 13.964 45.365 14.204 45.245 14.372C45.133 14.548 44.961 14.68 44.729 14.768C44.497 14.856 44.173 14.908 43.757 14.924C43.453 14.94 42.989 14.948 42.365 14.948C41.749 14.948 41.285 14.94 40.973 14.924C40.389 14.9 39.977 14.764 39.737 14.516C39.505 14.276 39.389 13.852 39.389 13.244V8.48L38.741 7.976C39.677 6.888 40.457 5.608 41.081 4.136L42.053 4.4C41.949 4.632 41.785 4.972 41.561 5.42H44.465V6.296L43.397 7.748H44.921V11.648H40.349V13.076C40.349 13.404 40.413 13.628 40.541 13.748C40.677 13.86 40.917 13.924 41.261 13.94C41.805 13.956 42.213 13.964 42.485 13.964C42.749 13.964 43.153 13.956 43.697 13.94C43.945 13.924 44.125 13.9 44.237 13.868C44.357 13.828 44.441 13.764 44.489 13.676C44.537 13.588 44.573 13.448 44.597 13.256C44.653 12.944 44.685 12.684 44.693 12.476L45.665 12.86ZM35.381 8.864L35.117 7.808C35.237 7.76 35.321 7.72 35.369 7.688C35.417 7.648 35.477 7.58 35.549 7.484C35.717 7.268 35.981 6.804 36.341 6.092C36.701 5.38 36.985 4.768 37.193 4.256L38.105 4.64C37.841 5.232 37.553 5.824 37.241 6.416C36.929 7.008 36.669 7.448 36.461 7.736C36.925 7.712 37.337 7.684 37.697 7.652L38.453 6.212L39.245 6.656C38.901 7.344 38.505 8.084 38.057 8.876C37.617 9.66 37.257 10.248 36.977 10.64C37.209 10.608 37.817 10.512 38.801 10.352L38.813 11.372C37.573 11.548 36.741 11.688 36.317 11.792C36.085 11.84 35.865 11.896 35.657 11.96L35.357 10.856C35.517 10.816 35.645 10.768 35.741 10.712C35.845 10.656 35.937 10.572 36.017 10.46C36.313 10.052 36.685 9.456 37.133 8.672L36.605 8.708L35.897 8.768C35.713 8.784 35.541 8.816 35.381 8.864ZM43.301 6.32H41.069C40.813 6.768 40.513 7.244 40.169 7.748H42.233L43.301 6.32ZM40.349 8.696V10.712H41.681V8.696H40.349ZM42.617 10.712H43.997V8.696H42.617V10.712ZM38.969 13.124L38.993 13.616C38.457 13.736 37.809 13.872 37.049 14.024C36.289 14.176 35.641 14.304 35.105 14.408L34.949 13.388C35.325 13.332 36.001 13.204 36.977 13.004C37.961 12.804 38.621 12.656 38.957 12.56L38.969 13.124Z" fill="white"/>
<defs>
<linearGradient id="paint0_linear_1727_1456" x1="57.5" y1="20" x2="7.5" y2="-5.40167e-07" gradientUnits="userSpaceOnUse">
<stop stop-color="#DD2B12"/>
<stop offset="1" stop-color="#F56D5B"/>
</linearGradient>
</defs>
</svg>
