<svg width="55" height="20" viewBox="0 0 55 20" fill="none" xmlns="http://www.w3.org/2000/svg">
<path d="M3 0H47C51.4183 0 55 3.58172 55 8V20H11C6.58172 20 3 16.4183 3 12V0Z" fill="url(#paint0_linear_1727_1451)"/>
<path d="M0 3L3 1.07284e-07L3 3L0 3Z" fill="#0762A4"/>
<path d="M15.02 12.968C15.452 12.456 15.748 12.052 15.908 11.756C16.076 11.452 16.184 11.084 16.232 10.652H14.72V9.608H16.28V8.972V7.412H15.068V6.38H16.28V4.496L17.336 4.532V6.38H19.28V4.484L20.336 4.52V6.38H21.74V7.412H20.336V9.608H22.052V10.652H20.336V13.52H19.28V10.652H17.276C17.236 11.092 17.164 11.464 17.06 11.768C16.964 12.072 16.828 12.36 16.652 12.632C16.476 12.896 16.22 13.228 15.884 13.628L15.02 12.968ZM13.724 7.616C13.556 7.296 13.296 6.892 12.944 6.404C12.592 5.916 12.292 5.544 12.044 5.288L12.836 4.652C13.092 4.916 13.396 5.272 13.748 5.72C14.108 6.16 14.384 6.528 14.576 6.824L13.724 7.616ZM17.336 8.888C17.336 9.224 17.332 9.464 17.324 9.608H19.28V7.412H17.336V8.888ZM18.884 13.916C19.964 13.916 21.092 13.884 22.268 13.82L21.992 14.876C21.064 14.924 20.104 14.948 19.112 14.948C18.304 14.948 17.708 14.94 17.324 14.924C16.644 14.908 16.096 14.864 15.68 14.792C15.272 14.72 14.9 14.588 14.564 14.396C14.228 14.204 13.892 13.912 13.556 13.52C13.02 14.096 12.544 14.588 12.128 14.996L11.408 14.132L13.04 12.536V9.476H11.756V8.384H14.096V12.596C14.376 12.948 14.66 13.216 14.948 13.4C15.244 13.576 15.572 13.7 15.932 13.772C16.3 13.836 16.784 13.876 17.384 13.892C18.056 13.908 18.556 13.916 18.884 13.916ZM27.1085 5.132C26.7485 5.62 26.2845 6.14 25.7165 6.692C25.1485 7.236 24.6005 7.708 24.0725 8.108L23.4605 7.208C23.9405 6.84 24.4445 6.392 24.9725 5.864C25.5085 5.336 25.9445 4.844 26.2805 4.388L27.1085 5.132ZM27.9605 5.072H33.3725V6.104H27.9605V5.072ZM27.1565 8.024C26.9005 8.456 26.5405 8.94 26.0765 9.476V15.08H24.9965V10.64C24.5565 11.088 24.1285 11.484 23.7125 11.828L23.1365 10.952C23.7205 10.456 24.3125 9.876 24.9125 9.212C25.5125 8.54 25.9805 7.924 26.3165 7.364L27.1565 8.024ZM33.9605 8.48V9.536H32.1005V13.532C32.1005 13.908 32.0445 14.2 31.9325 14.408C31.8205 14.616 31.6445 14.768 31.4045 14.864C31.1645 14.968 30.8285 15.04 30.3965 15.08L29.4725 15.164L29.1365 14.048L30.1565 13.964C30.3805 13.94 30.5445 13.908 30.6485 13.868C30.7605 13.828 30.8365 13.76 30.8765 13.664C30.9245 13.56 30.9485 13.404 30.9485 13.196V9.536H27.2765V8.48H33.9605ZM41.093 6.512H45.065V11.756H41.093V15.188H39.941V11.756H35.933V6.512H39.941V4.304L41.093 4.352V6.512ZM37.085 7.616V10.676H39.941V7.616H37.085ZM41.093 10.676H43.925V7.616H41.093V10.676Z" fill="white"/>
<defs>
<linearGradient id="paint0_linear_1727_1451" x1="57.5" y1="20" x2="7.5" y2="-5.40167e-07" gradientUnits="userSpaceOnUse">
<stop stop-color="#0A78DE"/>
<stop offset="1" stop-color="#3EADEC"/>
</linearGradient>
</defs>
</svg>
