<svg width="24" height="24" viewBox="0 0 24 24" fill="none" xmlns="http://www.w3.org/2000/svg">
<path fill-rule="evenodd" clip-rule="evenodd" d="M12.0001 3.41406L3.41431 11.9999L12.0001 20.5856L20.5859 11.9998L12.0001 3.41406ZM11.293 2.70696L2.7072 11.2927C2.31668 11.6833 2.31668 12.3164 2.7072 12.707L11.293 21.2927C11.6835 21.6833 12.3167 21.6833 12.7072 21.2927L21.293 12.707C21.6835 12.3164 21.6835 11.6833 21.293 11.2927L12.7072 2.70696C12.3167 2.31643 11.6835 2.31643 11.293 2.70696Z" fill="#60666B"/>
<path fill-rule="evenodd" clip-rule="evenodd" d="M12 16C14.2091 16 16 14.2091 16 12C16 9.79086 14.2091 8 12 8C9.79086 8 8 9.79086 8 12C8 14.2091 9.79086 16 12 16ZM17 12C17 14.7614 14.7614 17 12 17C9.23858 17 7 14.7614 7 12C7 9.23858 9.23858 7 12 7C14.7614 7 17 9.23858 17 12Z" fill="#60666B"/>
<path fill-rule="evenodd" clip-rule="evenodd" d="M13.1314 9.59549C13.2876 9.43928 13.5408 9.43928 13.6971 9.59549L14.4042 10.3026C14.5604 10.4588 14.5604 10.7121 14.4042 10.8683L13.2728 11.9997L14.4042 13.131C14.5604 13.2872 14.5604 13.5405 14.4042 13.6967L13.6971 14.4038C13.5408 14.56 13.2876 14.56 13.1314 14.4038L12 13.2724L10.8686 14.4038C10.7124 14.56 10.4592 14.56 10.3029 14.4038L9.59584 13.6967C9.43963 13.5405 9.43963 13.2872 9.59584 13.131L10.7272 11.9997L9.59584 10.8683C9.43963 10.7121 9.43963 10.4588 9.59584 10.3026L10.3029 9.59549C10.4592 9.43928 10.7124 9.43928 10.8686 9.59549L12 10.7269L13.1314 9.59549ZM13.4142 10.444L12.2828 11.5754C12.1266 11.7316 11.8734 11.7316 11.7172 11.5754L10.5858 10.444L10.4444 10.5854L11.5757 11.7168C11.7319 11.873 11.7319 12.1263 11.5757 12.2825L10.4444 13.4139L10.5858 13.5553L11.7172 12.4239C11.8734 12.2677 12.1266 12.2677 12.2828 12.4239L13.4142 13.5553L13.5556 13.4139L12.4243 12.2825C12.2681 12.1263 12.2681 11.873 12.4243 11.7168L13.5556 10.5854L13.4142 10.444Z" fill="#60666B"/>
</svg>
