<svg width="24" height="24" viewBox="0 0 24 24" fill="none" xmlns="http://www.w3.org/2000/svg">
<path fill-rule="evenodd" clip-rule="evenodd" d="M12.0001 3.41406L3.41431 11.9999L12.0001 20.5856L20.5859 11.9998L12.0001 3.41406ZM11.293 2.70696L2.7072 11.2927C2.31668 11.6833 2.31668 12.3164 2.7072 12.707L11.293 21.2927C11.6835 21.6833 12.3167 21.6833 12.7072 21.2927L21.293 12.707C21.6835 12.3164 21.6835 11.6833 21.293 11.2927L12.7072 2.70696C12.3167 2.31643 11.6835 2.31643 11.293 2.70696Z" fill="#60666B"/>
<path fill-rule="evenodd" clip-rule="evenodd" d="M12 16C14.2091 16 16 14.2091 16 12C16 9.79086 14.2091 8 12 8C9.79086 8 8 9.79086 8 12C8 14.2091 9.79086 16 12 16ZM17 12C17 14.7614 14.7614 17 12 17C9.23858 17 7 14.7614 7 12C7 9.23858 9.23858 7 12 7C14.7614 7 17 9.23858 17 12Z" fill="#60666B"/>
<path fill-rule="evenodd" clip-rule="evenodd" d="M11.8474 9.98763C11.9707 10.0592 12.0466 10.191 12.0466 10.3336V13.6783C12.0466 13.8215 11.9701 13.9538 11.8459 14.0251C11.7217 14.0964 11.5688 14.0959 11.4451 14.0238L8.54856 12.3343C8.42512 12.2623 8.34947 12.1299 8.3501 11.987C8.35074 11.8441 8.42756 11.7124 8.55164 11.6415L11.4482 9.9863C11.572 9.91555 11.7241 9.91606 11.8474 9.98763ZM9.5501 11.9923L11.2466 12.9819V11.0229L9.5501 11.9923Z" fill="#60666B"/>
<path fill-rule="evenodd" clip-rule="evenodd" d="M14.9509 9.98763C15.0743 10.0592 15.1502 10.191 15.1502 10.3336V13.6783C15.1502 13.8215 15.0736 13.9538 14.9494 14.0251C14.8252 14.0964 14.6723 14.0959 14.5486 14.0238L11.6521 12.3343C11.5286 12.2623 11.453 12.1299 11.4536 11.987C11.4543 11.8441 11.5311 11.7124 11.6552 11.6415L14.5517 9.9863C14.6755 9.91555 14.8276 9.91606 14.9509 9.98763ZM12.6536 11.9923L14.3502 12.9819V11.0229L12.6536 11.9923Z" fill="#60666B"/>
</svg>
