<svg width="24" height="24" viewBox="0 0 24 24" fill="none" xmlns="http://www.w3.org/2000/svg">
<path fill-rule="evenodd" clip-rule="evenodd" d="M12.0001 3.41406L3.41431 11.9999L12.0001 20.5856L20.5859 11.9998L12.0001 3.41406ZM11.293 2.70696L2.7072 11.2927C2.31668 11.6833 2.31668 12.3164 2.7072 12.707L11.293 21.2927C11.6835 21.6833 12.3167 21.6833 12.7072 21.2927L21.293 12.707C21.6835 12.3164 21.6835 11.6833 21.293 11.2927L12.7072 2.70696C12.3167 2.31643 11.6835 2.31643 11.293 2.70696Z" fill="#60666B"/>
<path fill-rule="evenodd" clip-rule="evenodd" d="M7 13V11H11V7H13V11H17V13H13V17H11V13H7Z" fill="#60666B"/>
<path fill-rule="evenodd" clip-rule="evenodd" d="M7.75736 9.17233L9.17157 7.75811L12 10.5865L14.8284 7.75811L16.2426 9.17233L13.4142 12.0008L16.2426 14.8292L14.8284 16.2434L12 13.415L9.17157 16.2434L7.75736 14.8292L10.5858 12.0008L7.75736 9.17233Z" fill="#60666B"/>
</svg>
