<svg width="24" height="24" viewBox="0 0 24 24" fill="none" xmlns="http://www.w3.org/2000/svg">
<path fill-rule="evenodd" clip-rule="evenodd" d="M12.0001 3.41406L3.41431 11.9999L12.0001 20.5856L20.5859 11.9998L12.0001 3.41406ZM11.293 2.70696L2.7072 11.2927C2.31668 11.6833 2.31668 12.3164 2.7072 12.707L11.293 21.2927C11.6835 21.6833 12.3167 21.6833 12.7072 21.2927L21.293 12.707C21.6835 12.3164 21.6835 11.6833 21.293 11.2927L12.7072 2.70696C12.3167 2.31643 11.6835 2.31643 11.293 2.70696Z" fill="#60666B"/>
<path fill-rule="evenodd" clip-rule="evenodd" d="M12 16C14.2091 16 16 14.2091 16 12C16 9.79086 14.2091 8 12 8C9.79086 8 8 9.79086 8 12C8 14.2091 9.79086 16 12 16ZM17 12C17 14.7614 14.7614 17 12 17C9.23858 17 7 14.7614 7 12C7 9.23858 9.23858 7 12 7C14.7614 7 17 9.23858 17 12Z" fill="#60666B"/>
<path fill-rule="evenodd" clip-rule="evenodd" d="M14.0001 9.10156C14.2211 9.10156 14.4001 9.28065 14.4001 9.50156L14.4001 14.5016C14.4001 14.7225 14.2211 14.9016 14.0001 14.9016L10.0001 14.9016C9.77923 14.9016 9.60015 14.7225 9.60015 14.5016L9.60015 9.50156C9.60015 9.28065 9.77923 9.10156 10.0001 9.10156L14.0001 9.10156ZM13.6001 9.90156L10.4001 9.90156L10.4001 14.1016L13.6001 14.1016L13.6001 9.90156Z" fill="#60666B"/>
<path fill-rule="evenodd" clip-rule="evenodd" d="M10.5996 11.5016C10.5996 11.2806 10.7787 11.1016 10.9996 11.1016H11.9996C12.2205 11.1016 12.3996 11.2806 12.3996 11.5016C12.3996 11.7225 12.2205 11.9016 11.9996 11.9016H10.9996C10.7787 11.9016 10.5996 11.7225 10.5996 11.5016Z" fill="#60666B"/>
<path fill-rule="evenodd" clip-rule="evenodd" d="M10.5996 12.5016C10.5996 12.2806 10.7787 12.1016 10.9996 12.1016H12.4996C12.7205 12.1016 12.8996 12.2806 12.8996 12.5016C12.8996 12.7225 12.7205 12.9016 12.4996 12.9016H10.9996C10.7787 12.9016 10.5996 12.7225 10.5996 12.5016Z" fill="#60666B"/>
<path fill-rule="evenodd" clip-rule="evenodd" d="M10.5996 13.5016C10.5996 13.2806 10.7787 13.1016 10.9996 13.1016H11.9996C12.2205 13.1016 12.3996 13.2806 12.3996 13.5016C12.3996 13.7225 12.2205 13.9016 11.9996 13.9016H10.9996C10.7787 13.9016 10.5996 13.7225 10.5996 13.5016Z" fill="#60666B"/>
<path fill-rule="evenodd" clip-rule="evenodd" d="M10.5996 10.5016C10.5996 10.2806 10.7787 10.1016 10.9996 10.1016H12.9996C13.2205 10.1016 13.3996 10.2806 13.3996 10.5016C13.3996 10.7225 13.2205 10.9016 12.9996 10.9016H10.9996C10.7787 10.9016 10.5996 10.7225 10.5996 10.5016Z" fill="#60666B"/>
</svg>
