<svg width="24" height="24" viewBox="0 0 24 24" fill="none" xmlns="http://www.w3.org/2000/svg">
<path fill-rule="evenodd" clip-rule="evenodd" d="M12.0001 3.41406L3.41431 11.9999L12.0001 20.5856L20.5859 11.9998L12.0001 3.41406ZM11.293 2.70696L2.7072 11.2927C2.31668 11.6833 2.31668 12.3164 2.7072 12.707L11.293 21.2927C11.6835 21.6833 12.3167 21.6833 12.7072 21.2927L21.293 12.707C21.6835 12.3164 21.6835 11.6833 21.293 11.2927L12.7072 2.70696C12.3167 2.31643 11.6835 2.31643 11.293 2.70696Z" fill="#60666B"/>
<path fill-rule="evenodd" clip-rule="evenodd" d="M12 16C14.2091 16 16 14.2091 16 12C16 9.79086 14.2091 8 12 8C9.79086 8 8 9.79086 8 12C8 14.2091 9.79086 16 12 16ZM17 12C17 14.7614 14.7614 17 12 17C9.23858 17 7 14.7614 7 12C7 9.23858 9.23858 7 12 7C14.7614 7 17 9.23858 17 12Z" fill="#60666B"/>
<path fill-rule="evenodd" clip-rule="evenodd" d="M12.0072 10.0098C12.1318 9.93853 12.285 9.93953 12.4087 10.0124L15.2031 11.6585C15.3252 11.7304 15.4001 11.8615 15.4001 12.0031C15.4001 12.1448 15.3252 12.2759 15.2031 12.3478L12.4087 13.9939C12.285 14.0667 12.1318 14.0677 12.0072 13.9965C11.8825 13.9253 11.8056 13.7927 11.8056 13.6492V13.0096H9.0001C8.77918 13.0096 8.6001 12.8305 8.6001 12.6096V11.3967C8.6001 11.1758 8.77918 10.9967 9.0001 10.9967H11.8056V10.357C11.8056 10.2135 11.8825 10.081 12.0072 10.0098ZM12.6056 11.0569V11.3967C12.6056 11.6176 12.4266 11.7967 12.2056 11.7967H9.4001V12.2096H12.2056C12.4266 12.2096 12.6056 12.3887 12.6056 12.6096V12.9494L14.212 12.0031L12.6056 11.0569Z" fill="#60666B"/>
</svg>
