<svg width="24" height="24" viewBox="0 0 24 24" fill="none" xmlns="http://www.w3.org/2000/svg">
<path fill-rule="evenodd" clip-rule="evenodd" d="M12.0001 3.41406L3.41431 11.9999L12.0001 20.5856L20.5859 11.9998L12.0001 3.41406ZM11.293 2.70696L2.7072 11.2927C2.31668 11.6833 2.31668 12.3164 2.7072 12.707L11.293 21.2927C11.6835 21.6833 12.3167 21.6833 12.7072 21.2927L21.293 12.707C21.6835 12.3164 21.6835 11.6833 21.293 11.2927L12.7072 2.70696C12.3167 2.31643 11.6835 2.31643 11.293 2.70696Z" fill="#60666B"/>
<path fill-rule="evenodd" clip-rule="evenodd" d="M12 16C14.2091 16 16 14.2091 16 12C16 9.79086 14.2091 8 12 8C9.79086 8 8 9.79086 8 12C8 14.2091 9.79086 16 12 16ZM17 12C17 14.7614 14.7614 17 12 17C9.23858 17 7 14.7614 7 12C7 9.23858 9.23858 7 12 7C14.7614 7 17 9.23858 17 12Z" fill="#60666B"/>
<path fill-rule="evenodd" clip-rule="evenodd" d="M9.10639 14.8335C9.26987 14.9401 9.4864 14.9131 9.61877 14.7697L11.431 12.8065L12.5728 14.3766C12.659 14.4951 12.8031 14.557 12.9485 14.5379C13.0938 14.5187 13.217 14.4217 13.2696 14.2849L15.0553 9.64202C15.1278 9.45365 15.0486 9.24081 14.8706 9.14567C14.6926 9.05052 14.4716 9.10287 14.3552 9.26775L12.5486 11.8272L11.4434 10.1694C11.3622 10.0476 11.2209 9.97986 11.075 9.99286C10.9292 10.0059 10.8021 10.0975 10.7437 10.2318L8.95802 14.3389C8.88021 14.5179 8.94291 14.7269 9.10639 14.8335ZM10.6341 12.4903L11.1848 11.2237L11.561 11.788C11.5382 11.7826 11.5148 11.7791 11.491 11.7777C11.3714 11.7707 11.255 11.8177 11.1738 11.9057L10.6341 12.4903ZM12.5123 12.9332C12.5194 12.9337 12.5266 12.934 12.5338 12.9341C12.6656 12.9359 12.7899 12.8725 12.8659 12.7648L13.1542 12.3564L12.787 13.311L12.5123 12.9332Z" fill="#60666B"/>
</svg>
