<svg width="24" height="24" viewBox="0 0 24 24" fill="none" xmlns="http://www.w3.org/2000/svg">
<path fill-rule="evenodd" clip-rule="evenodd" d="M12.0001 3.41406L3.41431 11.9999L12.0001 20.5856L20.5859 11.9998L12.0001 3.41406ZM11.293 2.70696L2.7072 11.2927C2.31668 11.6833 2.31668 12.3164 2.7072 12.707L11.293 21.2927C11.6835 21.6833 12.3167 21.6833 12.7072 21.2927L21.293 12.707C21.6835 12.3164 21.6835 11.6833 21.293 11.2927L12.7072 2.70696C12.3167 2.31643 11.6835 2.31643 11.293 2.70696Z" fill="#60666B"/>
<path fill-rule="evenodd" clip-rule="evenodd" d="M12 16C14.2091 16 16 14.2091 16 12C16 9.79086 14.2091 8 12 8C9.79086 8 8 9.79086 8 12C8 14.2091 9.79086 16 12 16ZM17 12C17 14.7614 14.7614 17 12 17C9.23858 17 7 14.7614 7 12C7 9.23858 9.23858 7 12 7C14.7614 7 17 9.23858 17 12Z" fill="#60666B"/>
<path fill-rule="evenodd" clip-rule="evenodd" d="M11.7502 8.98609C11.8963 8.86922 12.1039 8.86922 12.25 8.98609L14.75 10.9861C14.8809 11.0908 14.9326 11.2659 14.8796 11.4249L13.8796 14.4249C13.8251 14.5883 13.6723 14.6984 13.5001 14.6984H10.5001C10.3279 14.6984 10.1751 14.5883 10.1206 14.4249L9.12065 11.4249C9.06765 11.2659 9.11938 11.0908 9.25024 10.9861L11.7502 8.98609ZM9.96779 11.4365L10.7884 13.8984H13.2118L14.0324 11.4365L12.0001 9.81069L9.96779 11.4365Z" fill="#60666B"/>
</svg>
