<svg width="20" height="20" viewBox="0 0 20 20" fill="none" xmlns="http://www.w3.org/2000/svg">
<path d="M13.5403 3.67411L11.4878 5.72511C11.2769 5.92584 11.2696 6.25895 11.4718 6.46987C11.5737 6.57605 11.7148 6.63424 11.8617 6.63133L13.325 6.63133L13.325 8.22267C13.325 8.59068 13.181 8.93833 12.9206 9.19871L10.6602 11.4577C10.4332 11.6846 10.4332 12.0526 10.6602 12.281C10.8871 12.5079 11.2551 12.5079 11.4835 12.281L13.7439 10.0206C14.2239 9.54054 14.4887 8.90197 14.4887 8.22121L14.4887 6.63133L15.9753 6.63133C16.2706 6.62696 16.5062 6.3855 16.5019 6.09021C16.5004 5.95348 16.4451 5.82257 16.3491 5.72511L14.2967 3.67266C14.0872 3.46611 13.7497 3.4661 13.5403 3.67411ZM8.57571 10.3071L6.83309 8.63287C6.724 8.52814 6.66145 8.38122 6.66145 8.22994L6.66145 6.63133L8.15097 6.63133C8.44625 6.62696 8.6819 6.3855 8.67753 6.09021C8.67608 5.95348 8.6208 5.82257 8.5248 5.72511L6.47235 3.67266C6.26434 3.46465 5.92542 3.46465 5.71741 3.67266L3.66496 5.72511C3.45404 5.92584 3.44677 6.25895 3.64896 6.46987C3.75078 6.57605 3.89188 6.63424 4.03879 6.63133L5.49922 6.63133L5.49922 8.2314C5.49922 8.69832 5.69268 9.15071 6.0287 9.47363L7.76986 11.1464C8.08551 11.449 8.26588 11.8752 8.26588 12.3116L8.26588 15.8986C8.26588 16.2201 8.52626 16.4805 8.84772 16.4805C9.16919 16.4805 9.42957 16.2201 9.42957 15.8986L9.42957 12.313C9.42957 11.5595 9.11828 10.8293 8.57571 10.3071Z" fill="#60666B"/>
</svg>
