<svg width="24" height="24" viewBox="0 0 24 24" fill="none" xmlns="http://www.w3.org/2000/svg">
<path fill-rule="evenodd" clip-rule="evenodd" d="M12.0001 3.41406L3.41431 11.9999L12.0001 20.5856L20.5859 11.9998L12.0001 3.41406ZM11.293 2.70696L2.7072 11.2927C2.31668 11.6833 2.31668 12.3164 2.7072 12.707L11.293 21.2927C11.6835 21.6833 12.3167 21.6833 12.7072 21.2927L21.293 12.707C21.6835 12.3164 21.6835 11.6833 21.293 11.2927L12.7072 2.70696C12.3167 2.31643 11.6835 2.31643 11.293 2.70696Z" fill="#60666B"/>
<path fill-rule="evenodd" clip-rule="evenodd" d="M12 16C14.2091 16 16 14.2091 16 12C16 9.79086 14.2091 8 12 8C9.79086 8 8 9.79086 8 12C8 14.2091 9.79086 16 12 16ZM17 12C17 14.7614 14.7614 17 12 17C9.23858 17 7 14.7614 7 12C7 9.23858 9.23858 7 12 7C14.7614 7 17 9.23858 17 12Z" fill="#60666B"/>
<path fill-rule="evenodd" clip-rule="evenodd" d="M10.2666 8.60156C10.3881 8.60156 10.5031 8.6568 10.579 8.75168L12 10.5279L13.4209 8.75168C13.4968 8.6568 13.6118 8.60156 13.7333 8.60156C13.8548 8.60156 13.9697 8.6568 14.0456 8.75168L14.7123 9.58502C14.8292 9.73111 14.8292 9.93869 14.7123 10.0848L13.1789 12.0016L14.7123 13.9184C14.8292 14.0644 14.8292 14.272 14.7123 14.4181L14.0456 15.2514C13.9697 15.3463 13.8548 15.4016 13.7333 15.4016C13.6118 15.4016 13.4968 15.3463 13.4209 15.2514L12 13.4752L10.579 15.2514C10.5031 15.3463 10.3881 15.4016 10.2666 15.4016C10.1451 15.4016 10.0302 15.3463 9.95427 15.2514L9.2876 14.4181C9.17073 14.272 9.17073 14.0644 9.2876 13.9184L10.821 12.0016L9.2876 10.0848C9.17073 9.93869 9.17073 9.73111 9.2876 9.58502L9.95427 8.75168C10.0302 8.6568 10.1451 8.60156 10.2666 8.60156ZM10.1122 9.8349L11.6456 11.7517C11.7625 11.8978 11.7625 12.1054 11.6456 12.2514L10.1122 14.1682L10.2666 14.3613L11.6876 12.585C11.7635 12.4901 11.8784 12.4349 12 12.4349C12.1215 12.4349 12.2364 12.4901 12.3123 12.585L13.7333 14.3613L13.8877 14.1682L12.3543 12.2514C12.2374 12.1054 12.2374 11.8978 12.3543 11.7517L13.8877 9.8349L13.7333 9.64187L12.3123 11.4181C12.2364 11.513 12.1215 11.5682 12 11.5682C11.8784 11.5682 11.7635 11.513 11.6876 11.4181L10.2666 9.64187L10.1122 9.8349Z" fill="#60666B"/>
</svg>
