<svg width="24" height="24" viewBox="0 0 24 24" fill="none" xmlns="http://www.w3.org/2000/svg">
<path fill-rule="evenodd" clip-rule="evenodd" d="M12.0001 3.41406L3.41431 11.9999L12.0001 20.5856L20.5859 11.9998L12.0001 3.41406ZM11.293 2.70696L2.7072 11.2927C2.31668 11.6833 2.31668 12.3164 2.7072 12.707L11.293 21.2927C11.6835 21.6833 12.3167 21.6833 12.7072 21.2927L21.293 12.707C21.6835 12.3164 21.6835 11.6833 21.293 11.2927L12.7072 2.70696C12.3167 2.31643 11.6835 2.31643 11.293 2.70696Z" fill="#60666B"/>
<path fill-rule="evenodd" clip-rule="evenodd" d="M9.68894 7.5C9.84083 7.5 9.98449 7.56904 10.0794 7.68765L12 10.0885L13.9207 7.68765C14.0156 7.56904 14.1593 7.5 14.3112 7.5C14.4631 7.5 14.6067 7.56904 14.7016 7.68765L15.5905 8.79876C15.7366 8.98137 15.7366 9.24085 15.5905 9.42346L13.5293 12L15.5905 14.5765C15.7366 14.7592 15.7366 15.0186 15.5905 15.2012L14.7016 16.3123C14.6067 16.431 14.4631 16.5 14.3112 16.5C14.1593 16.5 14.0156 16.431 13.9207 16.3123L12 13.9115L10.0794 16.3123C9.98449 16.431 9.84083 16.5 9.68894 16.5C9.53705 16.5 9.39339 16.431 9.2985 16.3123L8.40961 15.2012C8.26353 15.0186 8.26353 14.7592 8.40961 14.5765L10.4708 12L8.40961 9.42346C8.26353 9.24085 8.26353 8.98137 8.40961 8.79876L9.2985 7.68765C9.39339 7.56904 9.53705 7.5 9.68894 7.5ZM9.44036 9.11111L11.5016 11.6877C11.6477 11.8703 11.6477 12.1297 11.5016 12.3123L9.44036 14.8889L9.68894 15.1996L11.6096 12.7988C11.7045 12.6802 11.8482 12.6111 12 12.6111C12.1519 12.6111 12.2956 12.6802 12.3905 12.7988L14.3112 15.1996L14.5597 14.8889L12.4985 12.3123C12.3524 12.1297 12.3524 11.8703 12.4985 11.6877L14.5597 9.11111L14.3112 8.80039L12.3905 11.2012C12.2956 11.3198 12.1519 11.3889 12 11.3889C11.8482 11.3889 11.7045 11.3198 11.6096 11.2012L9.68894 8.80039L9.44036 9.11111Z" fill="#60666B"/>
</svg>
