<svg width="24" height="24" viewBox="0 0 24 24" fill="none" xmlns="http://www.w3.org/2000/svg">
<path fill-rule="evenodd" clip-rule="evenodd" d="M12.0001 3.41406L3.41431 11.9999L12.0001 20.5856L20.5859 11.9998L12.0001 3.41406ZM11.293 2.70696L2.7072 11.2927C2.31668 11.6833 2.31668 12.3164 2.7072 12.707L11.293 21.2927C11.6835 21.6833 12.3167 21.6833 12.7072 21.2927L21.293 12.707C21.6835 12.3164 21.6835 11.6833 21.293 11.2927L12.7072 2.70696C12.3167 2.31643 11.6835 2.31643 11.293 2.70696Z" fill="#60666B"/>
<path fill-rule="evenodd" clip-rule="evenodd" d="M12 16C14.2091 16 16 14.2091 16 12C16 9.79086 14.2091 8 12 8C9.79086 8 8 9.79086 8 12C8 14.2091 9.79086 16 12 16ZM17 12C17 14.7614 14.7614 17 12 17C9.23858 17 7 14.7614 7 12C7 9.23858 9.23858 7 12 7C14.7614 7 17 9.23858 17 12Z" fill="#60666B"/>
<path fill-rule="evenodd" clip-rule="evenodd" d="M9.09985 10.3336C9.09985 10.1127 9.27894 9.93359 9.49985 9.93359H14.4999C14.7208 9.93359 14.8999 10.1127 14.8999 10.3336V13.6669C14.8999 13.8878 14.7208 14.0669 14.4999 14.0669H9.49985C9.27894 14.0669 9.09985 13.8878 9.09985 13.6669V10.3336ZM9.89985 10.7336V13.2669H14.0999V10.7336H9.89985Z" fill="#60666B"/>
<path fill-rule="evenodd" clip-rule="evenodd" d="M9.16708 10.1118C9.28962 9.92794 9.53796 9.87828 9.72178 10.0008L11.9999 11.5196L14.278 10.0008C14.4618 9.87828 14.7102 9.92794 14.8327 10.1118C14.9553 10.2956 14.9056 10.5439 14.7218 10.6665L12.2218 12.3331C12.0874 12.4227 11.9124 12.4227 11.778 12.3331L9.27802 10.6665C9.0942 10.5439 9.04453 10.2956 9.16708 10.1118Z" fill="#60666B"/>
</svg>
