<svg width="24" height="24" viewBox="0 0 24 24" fill="none" xmlns="http://www.w3.org/2000/svg">
<path fill-rule="evenodd" clip-rule="evenodd" d="M12.0001 3.41406L3.41431 11.9999L12.0001 20.5856L20.5859 11.9998L12.0001 3.41406ZM11.293 2.70696L2.7072 11.2927C2.31668 11.6833 2.31668 12.3164 2.7072 12.707L11.293 21.2927C11.6835 21.6833 12.3167 21.6833 12.7072 21.2927L21.293 12.707C21.6835 12.3164 21.6835 11.6833 21.293 11.2927L12.7072 2.70696C12.3167 2.31643 11.6835 2.31643 11.293 2.70696Z" fill="#60666B"/>
<path fill-rule="evenodd" clip-rule="evenodd" d="M12 16C14.2091 16 16 14.2091 16 12C16 9.79086 14.2091 8 12 8C9.79086 8 8 9.79086 8 12C8 14.2091 9.79086 16 12 16ZM17 12C17 14.7614 14.7614 17 12 17C9.23858 17 7 14.7614 7 12C7 9.23858 9.23858 7 12 7C14.7614 7 17 9.23858 17 12Z" fill="#60666B"/>
<path fill-rule="evenodd" clip-rule="evenodd" d="M11.1001 9.50156C11.1001 9.28065 11.2792 9.10156 11.5001 9.10156H12.5001C12.721 9.10156 12.9001 9.28065 12.9001 9.50156V11.1016H14.5001C14.721 11.1016 14.9001 11.2806 14.9001 11.5016V12.5016C14.9001 12.7225 14.721 12.9016 14.5001 12.9016H12.9001V14.5016C12.9001 14.7225 12.721 14.9016 12.5001 14.9016H11.5001C11.2792 14.9016 11.1001 14.7225 11.1001 14.5016V12.9016H9.5001C9.27918 12.9016 9.1001 12.7225 9.1001 12.5016V11.5016C9.1001 11.2806 9.27918 11.1016 9.5001 11.1016H11.1001V9.50156ZM11.9001 9.90156V11.5016C11.9001 11.7225 11.721 11.9016 11.5001 11.9016H9.9001V12.1016H11.5001C11.721 12.1016 11.9001 12.2806 11.9001 12.5016V14.1016H12.1001V12.5016C12.1001 12.2806 12.2792 12.1016 12.5001 12.1016H14.1001V11.9016H12.5001C12.2792 11.9016 12.1001 11.7225 12.1001 11.5016V9.90156H11.9001Z" fill="#60666B"/>
</svg>
