<svg width="24" height="24" viewBox="0 0 24 24" fill="none" xmlns="http://www.w3.org/2000/svg">
<path fill-rule="evenodd" clip-rule="evenodd" d="M12.0001 3.41406L3.41431 11.9999L12.0001 20.5856L20.5859 11.9998L12.0001 3.41406ZM11.293 2.70696L2.7072 11.2927C2.31668 11.6833 2.31668 12.3164 2.7072 12.707L11.293 21.2927C11.6835 21.6833 12.3167 21.6833 12.7072 21.2927L21.293 12.707C21.6835 12.3164 21.6835 11.6833 21.293 11.2927L12.7072 2.70696C12.3167 2.31643 11.6835 2.31643 11.293 2.70696Z" fill="#60666B"/>
<path fill-rule="evenodd" clip-rule="evenodd" d="M12 16C14.2091 16 16 14.2091 16 12C16 9.79086 14.2091 8 12 8C9.79086 8 8 9.79086 8 12C8 14.2091 9.79086 16 12 16ZM17 12C17 14.7614 14.7614 17 12 17C9.23858 17 7 14.7614 7 12C7 9.23858 9.23858 7 12 7C14.7614 7 17 9.23858 17 12Z" fill="#60666B"/>
<path fill-rule="evenodd" clip-rule="evenodd" d="M12 10.2554L13.8113 13.384H10.1888L12 10.2554ZM11.3566 9.37098C11.643 8.87632 12.3571 8.87637 12.6435 9.37096L12.6435 9.37098L14.8996 13.2679L14.8996 13.268C15.1865 13.7636 14.8289 14.384 14.2561 14.384H9.74388C9.17113 14.384 8.81348 13.7636 9.10043 13.2679L9.10043 13.2679L11.3566 9.37099C11.3566 9.37098 11.3566 9.37098 11.3566 9.37098Z" fill="#60666B"/>
</svg>
