<svg width="24" height="24" viewBox="0 0 24 24" fill="none" xmlns="http://www.w3.org/2000/svg">
<path fill-rule="evenodd" clip-rule="evenodd" d="M12.0001 3.41406L3.41431 11.9999L12.0001 20.5856L20.5859 11.9998L12.0001 3.41406ZM11.293 2.70696L2.7072 11.2927C2.31668 11.6833 2.31668 12.3164 2.7072 12.707L11.293 21.2927C11.6835 21.6833 12.3167 21.6833 12.7072 21.2927L21.293 12.707C21.6835 12.3164 21.6835 11.6833 21.293 11.2927L12.7072 2.70696C12.3167 2.31643 11.6835 2.31643 11.293 2.70696Z" fill="#60666B"/>
<path fill-rule="evenodd" clip-rule="evenodd" d="M12 16C14.2091 16 16 14.2091 16 12C16 9.79086 14.2091 8 12 8C9.79086 8 8 9.79086 8 12C8 14.2091 9.79086 16 12 16ZM17 12C17 14.7614 14.7614 17 12 17C9.23858 17 7 14.7614 7 12C7 9.23858 9.23858 7 12 7C14.7614 7 17 9.23858 17 12Z" fill="#60666B"/>
<path fill-rule="evenodd" clip-rule="evenodd" d="M11.9998 9.40156C10.564 9.40156 9.4001 10.5655 9.4001 12.0012C9.4001 13.437 10.564 14.6009 11.9998 14.6009C13.4355 14.6009 14.5995 13.437 14.5995 12.0012C14.5995 10.5655 13.4355 9.40156 11.9998 9.40156ZM8.6001 12.0012C8.6001 10.1237 10.1222 8.60156 11.9998 8.60156C13.8774 8.60156 15.3995 10.1237 15.3995 12.0012C15.3995 13.8788 13.8774 15.4009 11.9998 15.4009C10.1222 15.4009 8.6001 13.8788 8.6001 12.0012Z" fill="#60666B"/>
<path fill-rule="evenodd" clip-rule="evenodd" d="M11.9999 14.1016C12.2208 14.1016 12.3999 14.2806 12.3999 14.5016V15.0015C12.3999 15.2224 12.2208 15.4015 11.9999 15.4015C11.7789 15.4015 11.5999 15.2224 11.5999 15.0015V14.5016C11.5999 14.2806 11.7789 14.1016 11.9999 14.1016Z" fill="#60666B"/>
<path fill-rule="evenodd" clip-rule="evenodd" d="M14.0996 12.0016C14.0996 11.7806 14.2787 11.6016 14.4996 11.6016H14.9996C15.2205 11.6016 15.3996 11.7806 15.3996 12.0016C15.3996 12.2225 15.2205 12.4016 14.9996 12.4016H14.4996C14.2787 12.4016 14.0996 12.2225 14.0996 12.0016Z" fill="#60666B"/>
<path fill-rule="evenodd" clip-rule="evenodd" d="M8.6001 12.0016C8.6001 11.7806 8.77918 11.6016 9.0001 11.6016H9.50004C9.72096 11.6016 9.90004 11.7806 9.90004 12.0016C9.90004 12.2225 9.72096 12.4016 9.50004 12.4016H9.0001C8.77918 12.4016 8.6001 12.2225 8.6001 12.0016Z" fill="#60666B"/>
<path fill-rule="evenodd" clip-rule="evenodd" d="M11.9999 8.60156C12.2208 8.60156 12.3999 8.78065 12.3999 9.00156V9.50151C12.3999 9.72242 12.2208 9.90151 11.9999 9.90151C11.7789 9.90151 11.5999 9.72242 11.5999 9.50151V9.00156C11.5999 8.78065 11.7789 8.60156 11.9999 8.60156Z" fill="#60666B"/>
<path fill-rule="evenodd" clip-rule="evenodd" d="M10.9502 13.8172C11.1415 13.9276 11.207 14.1723 11.0966 14.3636L10.8466 14.7966C10.7361 14.9879 10.4915 15.0534 10.3002 14.943C10.1089 14.8325 10.0433 14.5879 10.1538 14.3966L10.4038 13.9636C10.5142 13.7723 10.7589 13.7067 10.9502 13.8172Z" fill="#60666B"/>
<path fill-rule="evenodd" clip-rule="evenodd" d="M13.8183 13.0495C13.9288 12.8582 14.1734 12.7927 14.3647 12.9031L14.7977 13.1531C14.989 13.2636 15.0546 13.5082 14.9441 13.6995C14.8336 13.8908 14.589 13.9564 14.3977 13.8459L13.9647 13.5959C13.7734 13.4855 13.7079 13.2409 13.8183 13.0495Z" fill="#60666B"/>
<path fill-rule="evenodd" clip-rule="evenodd" d="M9.05562 10.2995C9.16607 10.1082 9.41071 10.0427 9.60203 10.1531L10.035 10.4031C10.2263 10.5136 10.2919 10.7582 10.1814 10.9495C10.0709 11.1408 9.82631 11.2064 9.63499 11.0959L9.20203 10.8459C9.01071 10.7355 8.94516 10.4909 9.05562 10.2995Z" fill="#60666B"/>
<path fill-rule="evenodd" clip-rule="evenodd" d="M13.6997 9.05938C13.891 9.16983 13.9565 9.41447 13.8461 9.60579L13.5961 10.0388C13.4857 10.2301 13.241 10.2956 13.0497 10.1852C12.8584 10.0747 12.7928 9.83007 12.9033 9.63875L13.1533 9.20579C13.2637 9.01447 13.5084 8.94892 13.6997 9.05938Z" fill="#60666B"/>
<path fill-rule="evenodd" clip-rule="evenodd" d="M10.1812 13.0495C10.2917 13.2409 10.2261 13.4855 10.0348 13.5959L9.60182 13.8459C9.41051 13.9564 9.16587 13.8908 9.05541 13.6995C8.94496 13.5082 9.01051 13.2636 9.20182 13.1531L9.63479 12.9031C9.82611 12.7927 10.0707 12.8582 10.1812 13.0495Z" fill="#60666B"/>
<path fill-rule="evenodd" clip-rule="evenodd" d="M13.0501 13.8172C13.2414 13.7067 13.486 13.7723 13.5965 13.9636L13.8465 14.3966C13.9569 14.5879 13.8914 14.8325 13.7 14.943C13.5087 15.0534 13.2641 14.9879 13.1536 14.7966L12.9037 14.3636C12.7932 14.1723 12.8588 13.9276 13.0501 13.8172Z" fill="#60666B"/>
<path fill-rule="evenodd" clip-rule="evenodd" d="M10.3003 9.05937C10.4916 8.94892 10.7363 9.01447 10.8467 9.20579L11.0967 9.63875C11.2072 9.83007 11.1416 10.0747 10.9503 10.1852C10.759 10.2956 10.5143 10.2301 10.4039 10.0388L10.1539 9.60579C10.0435 9.41447 10.109 9.16983 10.3003 9.05937Z" fill="#60666B"/>
<path fill-rule="evenodd" clip-rule="evenodd" d="M14.9444 10.2995C15.0548 10.4909 14.9893 10.7355 14.798 10.8459L14.365 11.0959C14.1737 11.2064 13.9291 11.1408 13.8186 10.9495C13.7081 10.7582 13.7737 10.5136 13.965 10.4031L14.398 10.1531C14.5893 10.0427 14.8339 10.1082 14.9444 10.2995Z" fill="#60666B"/>
<path fill-rule="evenodd" clip-rule="evenodd" d="M12.0011 10.1016C12.222 10.1016 12.4011 10.2806 12.4011 10.5016V11.8328L13.2836 12.7194C13.4394 12.8759 13.4389 13.1292 13.2823 13.285C13.1257 13.4409 12.8725 13.4403 12.7166 13.2838L11.7176 12.2802C11.643 12.2052 11.6011 12.1038 11.6011 11.998V10.5016C11.6011 10.2806 11.7802 10.1016 12.0011 10.1016Z" fill="#60666B"/>
</svg>
