<svg width="24" height="24" viewBox="0 0 24 24" fill="none" xmlns="http://www.w3.org/2000/svg">
<path fill-rule="evenodd" clip-rule="evenodd" d="M12.0001 3.41406L3.41431 11.9999L12.0001 20.5856L20.5859 11.9998L12.0001 3.41406ZM11.293 2.70696L2.7072 11.2927C2.31668 11.6833 2.31668 12.3164 2.7072 12.707L11.293 21.2927C11.6835 21.6833 12.3167 21.6833 12.7072 21.2927L21.293 12.707C21.6835 12.3164 21.6835 11.6833 21.293 11.2927L12.7072 2.70696C12.3167 2.31643 11.6835 2.31643 11.293 2.70696Z" fill="#60666B"/>
<path fill-rule="evenodd" clip-rule="evenodd" d="M12 16C14.2091 16 16 14.2091 16 12C16 9.79086 14.2091 8 12 8C9.79086 8 8 9.79086 8 12C8 14.2091 9.79086 16 12 16ZM17 12C17 14.7614 14.7614 17 12 17C9.23858 17 7 14.7614 7 12C7 9.23858 9.23858 7 12 7C14.7614 7 17 9.23858 17 12Z" fill="#60666B"/>
<path fill-rule="evenodd" clip-rule="evenodd" d="M11.9999 9.10156C12.1514 9.10156 12.2899 9.18716 12.3577 9.32268L14.8577 14.3227C14.9425 14.4924 14.8965 14.6983 14.7474 14.8158C14.5984 14.9332 14.3874 14.9297 14.2422 14.8075L11.9999 12.9194L9.75752 14.8075C9.61239 14.9297 9.40137 14.9332 9.25234 14.8158C9.1033 14.6983 9.05726 14.4924 9.14211 14.3227L11.6421 9.32268C11.7099 9.18716 11.8484 9.10156 11.9999 9.10156ZM10.7239 12.948L11.7422 12.0905C11.8911 11.9651 12.1086 11.9651 12.2575 12.0905L13.2759 12.948L11.9999 10.396L10.7239 12.948Z" fill="#60666B"/>
</svg>
