<svg width="37" height="37" viewBox="0 0 37 37" fill="none" xmlns="http://www.w3.org/2000/svg">
<g id="Frame">
<g id="Group 29">
<path id="Vector" d="M33.8007 8.34306V30.7997C33.8007 31.1937 33.7232 31.5838 33.5724 31.9478C33.4217 32.3118 33.2007 32.6426 32.9221 32.9211C32.6435 33.1997 32.3128 33.4207 31.9488 33.5714C31.5848 33.7222 31.1947 33.7998 30.8007 33.7997H8.34404C7.13909 33.7997 5.9835 33.3211 5.13147 32.469C4.27944 31.617 3.80078 30.4614 3.80078 29.2565V8.34306C3.80045 7.74634 3.91774 7.1554 4.14594 6.60404C4.37414 6.05268 4.70878 5.5517 5.13073 5.12975C5.55268 4.70781 6.05365 4.37317 6.60502 4.14496C7.15638 3.91676 7.74732 3.79947 8.34404 3.79981H29.2574C30.4624 3.79981 31.618 4.27847 32.47 5.13049C33.322 5.98252 33.8007 7.13811 33.8007 8.34306Z" fill="#5F95FF"/>
<path id="Vector_2" opacity="0.2" d="M26.7009 33.8003H8.34404C7.13909 33.8003 5.9835 33.3216 5.13147 32.4696C4.27944 31.6176 3.80078 30.462 3.80078 29.257V13.6801C4.09934 13.6684 4.39982 13.6623 4.70222 13.6621C5.06424 13.6621 5.42397 13.6708 5.78142 13.6881C16.3961 14.2008 25.0466 22.2056 26.5535 32.5321C26.6145 32.9511 26.6637 33.3738 26.7009 33.8003Z" fill="white"/>
<path id="Vector_3" opacity="0.14" d="M33.8005 8.34307V30.7997C33.8011 31.2055 33.719 31.6072 33.5593 31.9803C31.827 32.39 30.0529 32.5965 28.2729 32.5954C27.6945 32.5954 27.1213 32.5741 26.5533 32.5316C16.0605 31.7502 7.54335 23.8778 5.77941 13.6886C5.24699 10.606 5.34808 7.44715 6.07653 4.40486C6.76593 4.00728 7.548 3.79858 8.34383 3.79981H29.2572C30.4622 3.79981 31.6178 4.27847 32.4698 5.1305C33.3218 5.98252 33.8005 7.13812 33.8005 8.34307Z" fill="white"/>
<g id="Group 24">
<path id="Exclude" fill-rule="evenodd" clip-rule="evenodd" d="M26.9342 19.1748C26.9342 19.412 27.1281 19.6042 27.3675 19.6042C27.6069 19.6042 27.8008 19.412 27.8008 19.1748L27.7813 12.588C27.7813 11.8795 27.1964 11.2998 26.4815 11.2998H11.1006C10.3857 11.2998 9.80078 11.8795 9.80078 12.588V24.9063C9.80078 25.6148 10.3857 26.1944 11.1006 26.1944H18.4906C18.7299 26.1944 18.9238 26.0023 18.9238 25.765V21.2408C18.9238 20.2888 19.5949 19.4687 20.5281 19.2803L20.8904 19.2072C20.9837 19.1884 21.0508 19.1063 21.0508 19.0111V18.2607C21.0508 17.2236 22.1758 15.7998 23.8633 15.7998C25.9727 15.7998 26.9148 17.4521 26.9148 18.0498L26.9342 19.1748ZM27.0553 14.6749L10.7742 14.6748C10.4923 14.6748 10.2617 14.8771 10.2617 15.1243C10.2617 15.3715 10.4923 15.5738 10.7742 15.5738L27.0553 15.5738C27.3372 15.5738 27.5679 15.3716 27.5679 15.1243C27.5679 14.8771 27.3372 14.6749 27.0553 14.6749ZM13.4599 18.492L17.8513 18.4921C18.1332 18.4921 18.3639 18.6943 18.3639 18.9415C18.3639 19.1888 18.1332 19.391 17.8513 19.391L13.4599 19.391C13.1779 19.391 12.9473 19.1887 12.9473 18.9415C12.9473 18.6943 13.1779 18.492 13.4599 18.492ZM15.0824 21.4364L13.4555 21.4363C13.1735 21.4363 12.9429 21.6386 12.9429 21.8858C12.9429 22.133 13.1735 22.3353 13.4555 22.3353L15.0824 22.3353C15.3643 22.3353 15.595 22.1331 15.595 21.8858C15.595 21.6386 15.3643 21.4364 15.0824 21.4364Z" fill="white"/>
<path id="Vector_4" d="M26.3266 26.167H21.4119C20.6256 26.167 19.9375 25.4789 19.9375 24.6926V21.7438C19.9375 20.9574 20.6256 20.2694 21.4119 20.2694H26.3266C27.1129 20.2694 27.801 20.9574 27.801 21.7438V24.6926C27.801 25.4789 27.1129 26.167 26.3266 26.167ZM25.8351 20.2694H24.8522V18.795C24.8522 18.2052 24.459 17.812 23.8692 17.812C23.2795 17.812 22.8863 18.2052 22.8863 18.795V20.2694H21.9034V18.795C21.9034 17.7137 22.788 16.8291 23.8692 16.8291C24.9505 16.8291 25.8351 17.7137 25.8351 18.795V20.2694Z" fill="white" stroke="white" stroke-width="0.1"/>
</g>
</g>
</g>
</svg>
