<svg width="40" height="41" viewBox="0 0 40 41" fill="none" xmlns="http://www.w3.org/2000/svg">
<g id="Frame" clip-path="url(#clip0_4253_1458)">
<path id="Vector" d="M11.9997 1.83398H27.9997C33.8663 1.83398 38.6663 6.63399 38.6663 12.5007V28.5006C38.6663 34.3673 33.8663 39.1673 27.9997 39.1673H11.9997C6.13301 39.1673 1.33301 34.3673 1.33301 28.5006V12.5007C1.33301 6.63399 6.13301 1.83398 11.9997 1.83398Z" fill="#CFDDF7" fill-opacity="0.35"/>
<g id="Group 446">
<path id="Vector_2" d="M16.667 24.5H23.3337V29.0833H16.667V24.5ZM16.667 18.25H23.3337V23.25H16.667V18.25Z" fill="#3686FF"/>
<path id="Vector_3" d="M11.6667 12H28.3333C28.7754 12 29.1993 12.1756 29.5118 12.4882C29.8244 12.8007 30 13.2246 30 13.6667V17H10V13.6667C10 13.2246 10.1756 12.8007 10.4882 12.4882C10.8007 12.1756 11.2246 12 11.6667 12ZM10 18.25H15.4167V23.25H10V18.25ZM10 24.5H15.4167V29.0833H11.6667C11.2246 29.0833 10.8007 28.9077 10.4882 28.5952C10.1756 28.2826 10 27.8587 10 27.4167V24.5ZM30 24.5V27.4167C30 27.8587 29.8244 28.2826 29.5118 28.5952C29.1993 28.9077 28.7754 29.0833 28.3333 29.0833H24.5833V24.5H30ZM24.5833 18.25H30V23.25H24.5833V18.25Z" fill="#3686FF"/>
</g>
</g>
<defs>
<clipPath id="clip0_4253_1458">
<rect width="40" height="40" fill="white" transform="translate(0 0.5)"/>
</clipPath>
</defs>
</svg>
