<svg width="24" height="24" viewBox="0 0 24 24" fill="none" xmlns="http://www.w3.org/2000/svg">
<path fill-rule="evenodd" clip-rule="evenodd" d="M3.5 5C3.5 4.28145 3.98368 3.5 4.8 3.5H19.2C20.0163 3.5 20.5 4.28146 20.5 5V19C20.5 19.7186 20.0163 20.5 19.2 20.5H4.8C3.98368 20.5 3.5 19.7186 3.5 19V5ZM4.62475 4.60524C4.55572 4.69153 4.5 4.82943 4.5 5V19C4.5 19.1706 4.55572 19.3085 4.62475 19.3948C4.69304 19.4801 4.75818 19.5 4.8 19.5H19.2C19.2418 19.5 19.307 19.4801 19.3753 19.3948C19.4443 19.3085 19.5 19.1706 19.5 19V5C19.5 4.82943 19.4443 4.69152 19.3753 4.60524C19.307 4.51988 19.2418 4.5 19.2 4.5H4.8C4.75818 4.5 4.69304 4.51987 4.62475 4.60524Z" fill="#60666B"/>
</svg>
