<svg width="24" height="24" viewBox="0 0 24 24" fill="none" xmlns="http://www.w3.org/2000/svg">
<path fill-rule="evenodd" clip-rule="evenodd" d="M3.5 5C3.5 4.28145 3.98368 3.5 4.8 3.5H19.2C20.0163 3.5 20.5 4.28146 20.5 5V19C20.5 19.7186 20.0163 20.5 19.2 20.5H4.8C3.98368 20.5 3.5 19.7186 3.5 19V5ZM4.62475 4.60524C4.55572 4.69153 4.5 4.82943 4.5 5V19C4.5 19.1706 4.55572 19.3085 4.62475 19.3948C4.69304 19.4801 4.75818 19.5 4.8 19.5H19.2C19.2418 19.5 19.307 19.4801 19.3753 19.3948C19.4443 19.3085 19.5 19.1706 19.5 19V5C19.5 4.82943 19.4443 4.69152 19.3753 4.60524C19.307 4.51988 19.2418 4.5 19.2 4.5H4.8C4.75818 4.5 4.69304 4.51987 4.62475 4.60524Z" fill="#60666B"/>
<path fill-rule="evenodd" clip-rule="evenodd" d="M11.613 9.56754C11.7672 9.65701 11.8621 9.82176 11.8621 10V14.4595C11.8621 14.6386 11.7664 14.8039 11.6111 14.8931C11.4559 14.9823 11.2648 14.9817 11.1102 14.8914L7.24808 12.6388C7.09378 12.5488 6.99921 12.3833 7 12.2047C7.0008 12.026 7.09683 11.8614 7.25193 11.7728L11.114 9.56588C11.2688 9.47745 11.4589 9.47808 11.613 9.56754ZM8.50001 12.2113L10.8621 13.5891V10.8616L8.50001 12.2113Z" fill="#60666B"/>
<path fill-rule="evenodd" clip-rule="evenodd" d="M15.751 9.56754C15.9051 9.65701 16 9.82176 16 10V14.4595C16 14.6386 15.9043 14.8039 15.749 14.8931C15.5938 14.9823 15.4027 14.9817 15.2481 14.8914L11.386 12.6388C11.2317 12.5488 11.1372 12.3833 11.1379 12.2047C11.1387 12.026 11.2348 11.8614 11.3899 11.7728L15.2519 9.56588C15.4067 9.47745 15.5968 9.47808 15.751 9.56754ZM12.6379 12.2113L15 13.5891V10.8616L12.6379 12.2113Z" fill="#60666B"/>
</svg>
