<svg width="24" height="24" viewBox="0 0 24 24" fill="none" xmlns="http://www.w3.org/2000/svg">
<path d="M22 12L17 9.11325L17 14.8868L22 12ZM7 11.5C6.72386 11.5 6.5 11.7239 6.5 12C6.5 12.2761 6.72386 12.5 7 12.5L7 11.5ZM17.5 11.5L7 11.5L7 12.5L17.5 12.5L17.5 11.5Z" fill="#60666B"/>
<path d="M4.34618 13.4604L2.09999 12.1541C1.96667 12.0766 1.96667 11.9234 2.09999 11.8459L4.34618 10.5396C4.43704 10.4868 4.56296 10.4868 4.65382 10.5396L6.90002 11.8459C7.03333 11.9234 7.03333 12.0766 6.90002 12.1541L4.65382 13.4604C4.56296 13.5132 4.43704 13.5132 4.34618 13.4604Z" stroke="#60666B"/>
</svg>
