<svg width="24" height="24" viewBox="0 0 24 24" fill="none" xmlns="http://www.w3.org/2000/svg">
<path d="M22 12L17 9.11325L17 14.8868L22 12ZM5 11.5C4.72386 11.5 4.5 11.7239 4.5 12C4.5 12.2761 4.72386 12.5 5 12.5L5 11.5ZM6.0625 12.5C6.33864 12.5 6.5625 12.2761 6.5625 12C6.5625 11.7239 6.33864 11.5 6.0625 11.5L6.0625 12.5ZM8.1875 11.5C7.91136 11.5 7.6875 11.7239 7.6875 12C7.6875 12.2761 7.91136 12.5 8.1875 12.5L8.1875 11.5ZM10.3125 12.5C10.5886 12.5 10.8125 12.2761 10.8125 12C10.8125 11.7239 10.5886 11.5 10.3125 11.5L10.3125 12.5ZM12.4375 11.5C12.1614 11.5 11.9375 11.7239 11.9375 12C11.9375 12.2761 12.1614 12.5 12.4375 12.5L12.4375 11.5ZM14.5625 12.5C14.8386 12.5 15.0625 12.2761 15.0625 12C15.0625 11.7239 14.8386 11.5 14.5625 11.5L14.5625 12.5ZM16.6875 11.5C16.4114 11.5 16.1875 11.7239 16.1875 12C16.1875 12.2761 16.4114 12.5 16.6875 12.5L16.6875 11.5ZM18.8125 12.5C19.0886 12.5 19.3125 12.2761 19.3125 12C19.3125 11.7239 19.0886 11.5 18.8125 11.5L18.8125 12.5ZM20.9375 11.5C20.6614 11.5 20.4375 11.7239 20.4375 12C20.4375 12.2761 20.6614 12.5 20.9375 12.5L20.9375 11.5ZM5 12.5L6.0625 12.5L6.0625 11.5L5 11.5L5 12.5ZM8.1875 12.5L10.3125 12.5L10.3125 11.5L8.1875 11.5L8.1875 12.5ZM12.4375 12.5L14.5625 12.5L14.5625 11.5L12.4375 11.5L12.4375 12.5ZM16.6875 12.5L18.8125 12.5L18.8125 11.5L16.6875 11.5L16.6875 12.5Z" fill="#60666B"/>
<circle cx="3.5" cy="12" r="1" stroke="#60666B"/>
</svg>
