<svg width="24" height="24" viewBox="0 0 24 24" fill="none" xmlns="http://www.w3.org/2000/svg">
<path d="M22 12L17 9.11325L17 14.8868L22 12ZM14 11.5C13.7239 11.5 13.5 11.7239 13.5 12C13.5 12.2761 13.7239 12.5 14 12.5L14 11.5ZM15 12.5C15.2761 12.5 15.5 12.2761 15.5 12C15.5 11.7239 15.2761 11.5 15 11.5L15 12.5ZM17 11.5C16.7239 11.5 16.5 11.7239 16.5 12C16.5 12.2761 16.7239 12.5 17 12.5L17 11.5ZM19 12.5C19.2761 12.5 19.5 12.2761 19.5 12C19.5 11.7239 19.2761 11.5 19 11.5L19 12.5ZM21 11.5C20.7239 11.5 20.5 11.7239 20.5 12C20.5 12.2761 20.7239 12.5 21 12.5L21 11.5ZM14 12.5L15 12.5L15 11.5L14 11.5L14 12.5ZM17 12.5L19 12.5L19 11.5L17 11.5L17 12.5Z" fill="#60666B"/>
<path d="M8 12H5" stroke="#60666B" stroke-linecap="round" stroke-linejoin="round" stroke-dasharray="2 2"/>
<circle cx="3.5" cy="12" r="1" stroke="#60666B"/>
<path d="M8 14H14V12V10H11H8V12V14Z" stroke="#60666B" stroke-linejoin="round"/>
<path d="M8 10L11 12L14 10" stroke="#60666B" stroke-linecap="round" stroke-linejoin="round"/>
</svg>
