<svg width="24" height="24" viewBox="0 0 24 24" fill="none" xmlns="http://www.w3.org/2000/svg">
<path d="M22.3536 12.3536C22.5488 12.1583 22.5488 11.8417 22.3536 11.6464L19.1716 8.46447C18.9763 8.26921 18.6597 8.26921 18.4645 8.46447C18.2692 8.65973 18.2692 8.97631 18.4645 9.17157L21.2929 12L18.4645 14.8284C18.2692 15.0237 18.2692 15.3403 18.4645 15.5355C18.6597 15.7308 18.9763 15.7308 19.1716 15.5355L22.3536 12.3536ZM2 11.5C1.72386 11.5 1.5 11.7239 1.5 12C1.5 12.2761 1.72386 12.5 2 12.5L2 11.5ZM3 12.5C3.27614 12.5 3.5 12.2761 3.5 12C3.5 11.7239 3.27614 11.5 3 11.5L3 12.5ZM5 11.5C4.72386 11.5 4.5 11.7239 4.5 12C4.5 12.2761 4.72386 12.5 5 12.5L5 11.5ZM7 12.5C7.27614 12.5 7.5 12.2761 7.5 12C7.5 11.7239 7.27614 11.5 7 11.5L7 12.5ZM9 11.5C8.72386 11.5 8.5 11.7239 8.5 12C8.5 12.2761 8.72386 12.5 9 12.5L9 11.5ZM11 12.5C11.2761 12.5 11.5 12.2761 11.5 12C11.5 11.7239 11.2761 11.5 11 11.5L11 12.5ZM13 11.5C12.7239 11.5 12.5 11.7239 12.5 12C12.5 12.2761 12.7239 12.5 13 12.5L13 11.5ZM15 12.5C15.2761 12.5 15.5 12.2761 15.5 12C15.5 11.7239 15.2761 11.5 15 11.5L15 12.5ZM17 11.5C16.7239 11.5 16.5 11.7239 16.5 12C16.5 12.2761 16.7239 12.5 17 12.5L17 11.5ZM19 12.5C19.2761 12.5 19.5 12.2761 19.5 12C19.5 11.7239 19.2761 11.5 19 11.5L19 12.5ZM21 11.5C20.7239 11.5 20.5 11.7239 20.5 12C20.5 12.2761 20.7239 12.5 21 12.5L21 11.5ZM2 12.5L3 12.5L3 11.5L2 11.5L2 12.5ZM5 12.5L7 12.5L7 11.5L5 11.5L5 12.5ZM9 12.5L11 12.5L11 11.5L9 11.5L9 12.5ZM13 12.5L15 12.5L15 11.5L13 11.5L13 12.5ZM17 12.5L19 12.5L19 11.5L17 11.5L17 12.5ZM21 12.5L22 12.5L22 11.5L21 11.5L21 12.5Z" fill="#60666B"/>
</svg>
