<svg width="24" height="24" viewBox="0 0 24 24" fill="none" xmlns="http://www.w3.org/2000/svg">
<path fill-rule="evenodd" clip-rule="evenodd" d="M21 6H3V18H21V6ZM3 5H21C21.5523 5 22 5.39175 22 5.875V18.125C22 18.6083 21.5523 19 21 19H3C2.44771 19 2 18.6083 2 18.125V5.875C2 5.39175 2.44771 5 3 5Z" fill="#60666B"/>
<path fill-rule="evenodd" clip-rule="evenodd" d="M6.5 8.66016C6.5 8.38401 6.72386 8.16016 7 8.16016H17C17.2761 8.16016 17.5 8.38401 17.5 8.66016V15.3268C17.5 15.603 17.2761 15.8268 17 15.8268H7C6.72386 15.8268 6.5 15.603 6.5 15.3268V8.66016ZM7.5 9.16016V14.8268H16.5V9.16016H7.5Z" fill="#60666B"/>
<path fill-rule="evenodd" clip-rule="evenodd" d="M6.58403 8.38286C6.7372 8.15309 7.04764 8.09101 7.2774 8.24418L12.0001 11.3926L16.7227 8.24418C16.9525 8.09101 17.2629 8.15309 17.4161 8.38286C17.5693 8.61262 17.5072 8.92306 17.2774 9.07623L12.2774 12.4096C12.1095 12.5215 11.8907 12.5215 11.7227 12.4096L6.7227 9.07623C6.49294 8.92306 6.43085 8.61262 6.58403 8.38286Z" fill="#60666B"/>
</svg>
