<svg width="24" height="24" viewBox="0 0 24 24" fill="none" xmlns="http://www.w3.org/2000/svg">
<path fill-rule="evenodd" clip-rule="evenodd" d="M21 6H3V18H21V6ZM3 5H21C21.5523 5 22 5.39175 22 5.875V18.125C22 18.6083 21.5523 19 21 19H3C2.44771 19 2 18.6083 2 18.125V5.875C2 5.39175 2.44771 5 3 5Z" fill="#60666B"/>
<path fill-rule="evenodd" clip-rule="evenodd" d="M7.5 8.5V15.4999L16.4999 15.4999L16.4999 8.5H7.5ZM6.5 8.49999C6.5 7.94771 6.94771 7.5 7.49999 7.5H16.4999C17.0522 7.5 17.4999 7.94771 17.4999 8.49999V15.4999C17.4999 16.0522 17.0522 16.4999 16.4999 16.4999H7.49999C6.94771 16.4999 6.5 16.0522 6.5 15.4999V8.49999Z" fill="#60666B"/>
<path fill-rule="evenodd" clip-rule="evenodd" d="M6.5 13.25C6.5 12.9739 6.72386 12.75 7 12.75H16.9999C17.276 12.75 17.4999 12.9739 17.4999 13.25C17.4999 13.5261 17.276 13.75 16.9999 13.75H7C6.72386 13.75 6.5 13.5261 6.5 13.25Z" fill="#60666B"/>
<path fill-rule="evenodd" clip-rule="evenodd" d="M6.5 10.7461C6.5 10.47 6.72386 10.2461 7 10.2461H16.9999C17.276 10.2461 17.4999 10.47 17.4999 10.7461C17.4999 11.0222 17.276 11.2461 16.9999 11.2461H7C6.72386 11.2461 6.5 11.0222 6.5 10.7461Z" fill="#60666B"/>
<path fill-rule="evenodd" clip-rule="evenodd" d="M9.5 10.2461C9.77614 10.2461 10 10.47 10 10.7461V15.996C10 16.2722 9.77614 16.496 9.5 16.496C9.22386 16.496 9 16.2722 9 15.996V10.7461C9 10.47 9.22386 10.2461 9.5 10.2461Z" fill="#60666B"/>
</svg>
