<svg width="24" height="24" viewBox="0 0 24 24" fill="none" xmlns="http://www.w3.org/2000/svg">
<path fill-rule="evenodd" clip-rule="evenodd" d="M21 6H3V18H21V6ZM3 5H21C21.5523 5 22 5.39175 22 5.875V18.125C22 18.6083 21.5523 19 21 19H3C2.44771 19 2 18.6083 2 18.125V5.875C2 5.39175 2.44771 5 3 5Z" fill="#60666B"/>
<path fill-rule="evenodd" clip-rule="evenodd" d="M11.5785 8.56754C11.7327 8.65701 11.8276 8.82176 11.8276 9V14.5744C11.8276 14.7535 11.7319 14.9188 11.5766 15.008C11.4214 15.0972 11.2303 15.0965 11.0757 15.0063L6.24808 12.1905C6.09378 12.1005 5.99921 11.935 6 11.7564C6.0008 11.5778 6.09683 11.4131 6.25193 11.3245L11.0795 8.56588C11.2343 8.47745 11.4244 8.47808 11.5785 8.56754ZM7.50001 11.7631L10.8276 13.704V9.86159L7.50001 11.7631Z" fill="#60666B"/>
<path fill-rule="evenodd" clip-rule="evenodd" d="M16.7509 8.56754C16.9051 8.65701 16.9999 8.82176 16.9999 9V14.5744C16.9999 14.7535 16.9042 14.9188 16.749 15.008C16.5937 15.0972 16.4027 15.0965 16.248 15.0063L11.4204 12.1905C11.2661 12.1005 11.1716 11.935 11.1724 11.7564C11.1732 11.5778 11.2692 11.4131 11.4243 11.3245L16.2519 8.56588C16.4066 8.47745 16.5968 8.47808 16.7509 8.56754ZM12.6724 11.7631L15.9999 13.704V9.86159L12.6724 11.7631Z" fill="#60666B"/>
</svg>
