<svg width="24" height="24" viewBox="0 0 24 24" fill="none" xmlns="http://www.w3.org/2000/svg">
<path fill-rule="evenodd" clip-rule="evenodd" d="M21 6H3V18H21V6ZM3 5H21C21.5523 5 22 5.39175 22 5.875V18.125C22 18.6083 21.5523 19 21 19H3C2.44771 19 2 18.6083 2 18.125V5.875C2 5.39175 2.44771 5 3 5Z" fill="#60666B"/>
<path fill-rule="evenodd" clip-rule="evenodd" d="M17.0015 10.7833C17.0018 10.9408 16.973 11.0915 16.9201 11.2304C17.2687 11.4522 17.5 11.842 17.5 12.2858C17.5 12.7156 17.2831 13.0947 16.9528 13.3196C17.0108 13.4637 17.0426 13.621 17.0426 13.7858C17.0426 14.3429 16.6782 14.8148 16.1748 14.9763C16.2 15.0753 16.2134 15.179 16.2134 15.2858C16.2134 15.9762 15.6537 16.5358 14.9634 16.5358H11.543C10.9021 16.5358 10.2778 16.3328 9.7594 15.956L8.78512 15.2477C8.60598 15.1175 8.5 14.9095 8.5 14.688V10.7234C8.5 10.5413 8.57759 10.3677 8.71369 10.2462L11.4336 7.81768C12.0455 7.27136 12.9883 7.34086 13.5135 7.97103C13.8913 8.42441 13.9451 9.039 13.7029 9.53582L15.7515 9.53582C16.4408 9.53582 17.0001 10.0939 17.0015 10.7833ZM15.2515 11.5358C15.2515 11.8119 15.4753 12.0358 15.7515 12.0358H16.25C16.3906 12.0358 16.5 12.1144 16.5 12.2858C16.5 12.5144 16.3333 12.5477 16.25 12.5358H15.7926C15.5165 12.5358 15.2926 12.7596 15.2926 13.0358C15.2926 13.3119 15.5165 13.5358 15.7926 13.5358C15.9307 13.5358 16.0426 13.6477 16.0426 13.7858C16.0426 13.9239 15.9307 14.0358 15.7926 14.0358H14.9634C14.7967 14.0477 14.4634 14.1644 14.4634 14.5358C14.4634 14.8119 14.6872 15.0358 14.9634 15.0358C15.1014 15.0358 15.2134 15.1477 15.2134 15.2858C15.2134 15.4238 15.1014 15.5358 14.9634 15.5358H11.543C11.1134 15.5358 10.6949 15.3997 10.3474 15.1471L9.5 14.5311L9.5 10.8847L12.0996 8.5636C12.2896 8.394 12.5823 8.41559 12.7453 8.61121C12.9067 8.80491 12.8776 9.09342 12.6807 9.25095L12.1876 9.64537C12.0218 9.77802 11.9579 10.0009 12.0282 10.2013C12.0985 10.4017 12.2876 10.5358 12.5 10.5358L15.7515 10.5358C15.8894 10.5358 16.0012 10.6474 16.0015 10.7853C16.0018 10.9235 15.8897 11.0358 15.7515 11.0358C15.4753 11.0358 15.2515 11.2596 15.2515 11.5358Z" fill="#60666B"/>
<path fill-rule="evenodd" clip-rule="evenodd" d="M8.5 11.2852L7.50001 11.2852L7.50001 14.2851L8.5 14.2851L8.5 11.2852ZM8.75 10.2852C9.16421 10.2852 9.5 10.6209 9.5 11.0352L9.5 14.5351C9.5 14.9493 9.16421 15.2851 8.75 15.2851L7.25001 15.2851C6.8358 15.2851 6.50001 14.9493 6.50001 14.5351L6.50001 11.0352C6.50001 10.6209 6.8358 10.2852 7.25001 10.2852L8.75 10.2852Z" fill="#60666B"/>
</svg>
