<svg width="24" height="24" viewBox="0 0 24 24" fill="none" xmlns="http://www.w3.org/2000/svg">
<path fill-rule="evenodd" clip-rule="evenodd" d="M21 6H3V18H21V6ZM3 5H21C21.5523 5 22 5.39175 22 5.875V18.125C22 18.6083 21.5523 19 21 19H3C2.44771 19 2 18.6083 2 18.125V5.875C2 5.39175 2.44771 5 3 5Z" fill="#60666B"/>
<path fill-rule="evenodd" clip-rule="evenodd" d="M8 8.16797C8.27614 8.16797 8.5 8.39183 8.5 8.66797V9.94575H9.77778C10.0539 9.94575 10.2778 10.1696 10.2778 10.4457C10.2778 10.7219 10.0539 10.9457 9.77778 10.9457H8C7.72386 10.9457 7.5 10.7219 7.5 10.4457V8.66797C7.5 8.39183 7.72386 8.16797 8 8.16797Z" fill="#60666B"/>
<path fill-rule="evenodd" clip-rule="evenodd" d="M11.9999 8.5C10.5882 8.5 9.37058 9.33589 8.81707 10.5419C8.70188 10.7929 8.40505 10.9029 8.15408 10.7878C7.90311 10.6726 7.79303 10.3757 7.90822 10.1248C8.61871 8.57674 10.1831 7.5 11.9999 7.5C14.4852 7.5 16.4999 9.51472 16.4999 12C16.4999 14.4853 14.4852 16.5 11.9999 16.5C9.76971 16.5 7.91927 14.8781 7.56215 12.7494C7.51646 12.4771 7.70019 12.2192 7.97253 12.1736C8.24486 12.1279 8.50267 12.3116 8.54836 12.5839C8.82601 14.2389 10.2662 15.5 11.9999 15.5C13.9329 15.5 15.4999 13.933 15.4999 12C15.4999 10.067 13.9329 8.5 11.9999 8.5Z" fill="#60666B"/>
</svg>
