<svg width="24" height="24" viewBox="0 0 24 24" fill="none" xmlns="http://www.w3.org/2000/svg">
<path fill-rule="evenodd" clip-rule="evenodd" d="M21 6H3V18H21V6ZM3 5H21C21.5523 5 22 5.39175 22 5.875V18.125C22 18.6083 21.5523 19 21 19H3C2.44771 19 2 18.6083 2 18.125V5.875C2 5.39175 2.44771 5 3 5Z" fill="#60666B"/>
<path d="M15.8333 8H8.16667C8.07462 8 8 8.29848 8 8.66667V9.33333C8 9.70152 8.07462 10 8.16667 10H15.8333C15.9254 10 16 9.70152 16 9.33333V8.66667C16 8.29848 15.9254 8 15.8333 8Z" fill="#60666B"/>
<path d="M15.8333 11H8.16667C8.07462 11 8 11.7462 8 12.6667V14.3333C8 15.2538 8.07462 16 8.16667 16H15.8333C15.9254 16 16 15.2538 16 14.3333V12.6667C16 11.7462 15.9254 11 15.8333 11Z" fill="#60666B"/>
</svg>
