<svg width="24" height="24" viewBox="0 0 24 24" fill="none" xmlns="http://www.w3.org/2000/svg">
<path fill-rule="evenodd" clip-rule="evenodd" d="M21 6H3V18H21V6ZM3 5H21C21.5523 5 22 5.39175 22 5.875V18.125C22 18.6083 21.5523 19 21 19H3C2.44771 19 2 18.6083 2 18.125V5.875C2 5.39175 2.44771 5 3 5Z" fill="#60666B"/>
<path d="M9.83333 8H8.16667C8.07462 8 8 8.29848 8 8.66667V15.3333C8 15.7015 8.07462 16 8.16667 16H9.83333C9.92538 16 10 15.7015 10 15.3333V8.66667C10 8.29848 9.92538 8 9.83333 8Z" fill="#60666B"/>
<path d="M15.5833 8H11.4167C11.1865 8 11 8.29848 11 8.66667V15.3333C11 15.7015 11.1865 16 11.4167 16H15.5833C15.8135 16 16 15.7015 16 15.3333V8.66667C16 8.29848 15.8135 8 15.5833 8Z" fill="#60666B"/>
</svg>
