<svg width="24" height="24" viewBox="0 0 24 24" fill="none" xmlns="http://www.w3.org/2000/svg">
<path fill-rule="evenodd" clip-rule="evenodd" d="M21 6H3V18H21V6ZM3 5H21C21.5523 5 22 5.39175 22 5.875V18.125C22 18.6083 21.5523 19 21 19H3C2.44771 19 2 18.6083 2 18.125V5.875C2 5.39175 2.44771 5 3 5Z" fill="#60666B"/>
<path fill-rule="evenodd" clip-rule="evenodd" d="M9.30245 7.70591C9.39654 7.57654 9.54685 7.5 9.70682 7.5H15.1068C15.3138 7.5 15.4995 7.62758 15.5736 7.82087C15.6478 8.01415 15.5952 8.23315 15.4413 8.37165C15.1706 8.61532 14.8428 9.07043 14.7495 9.61016C14.6621 10.1161 14.7688 10.7548 15.4604 11.4464C16.3817 12.3678 16.5899 13.3979 16.451 14.301C16.3163 15.1765 15.8611 15.9136 15.4768 16.3363C15.382 16.4406 15.2477 16.5 15.1068 16.5H9.70682C9.52568 16.5 9.3587 16.402 9.27034 16.2439C9.18198 16.0858 9.18605 15.8922 9.28099 15.738C9.51816 15.3525 9.80732 14.691 9.89034 13.9957C9.97267 13.3062 9.84827 12.6486 9.35326 12.1536C8.57802 11.3783 8.42245 10.4426 8.53122 9.62876C8.63776 8.83166 8.99769 8.12496 9.30245 7.70591ZM9.97572 8.5C9.78251 8.82237 9.58717 9.2767 9.52241 9.76124C9.44451 10.3441 9.55561 10.9417 10.0604 11.4464C10.8454 12.2314 10.9876 13.2404 10.8833 14.1143C10.8235 14.6152 10.6813 15.093 10.5149 15.5H14.8728C15.1211 15.175 15.3794 14.6898 15.4626 14.149C15.557 13.5354 15.4319 12.8322 14.7533 12.1536C13.8449 11.2452 13.6182 10.2839 13.7641 9.43984C13.8241 9.09305 13.9449 8.77655 14.0945 8.5H9.97572Z" fill="#60666B"/>
<path fill-rule="evenodd" clip-rule="evenodd" d="M11.1001 14.793C11.1001 14.5168 11.324 14.293 11.6001 14.293H14.2667C14.5429 14.293 14.7667 14.5168 14.7667 14.793C14.7667 15.0691 14.5429 15.293 14.2667 15.293H11.6001C11.324 15.293 11.1001 15.0691 11.1001 14.793Z" fill="#60666B"/>
<path fill-rule="evenodd" clip-rule="evenodd" d="M9.8501 10.5977C9.8501 10.3215 10.074 10.0977 10.3501 10.0977L13.0167 10.0977C13.2929 10.0977 13.5167 10.3215 13.5167 10.5977C13.5167 10.8738 13.2929 11.0977 13.0167 11.0977L10.3501 11.0977C10.074 11.0977 9.8501 10.8738 9.8501 10.5977Z" fill="#60666B"/>
<path fill-rule="evenodd" clip-rule="evenodd" d="M10.7 11.9961C10.7 11.72 10.9238 11.4961 11.2 11.4961H13.8666C14.1427 11.4961 14.3666 11.72 14.3666 11.9961C14.3666 12.2722 14.1427 12.4961 13.8666 12.4961H11.2C10.9238 12.4961 10.7 12.2722 10.7 11.9961Z" fill="#60666B"/>
<path fill-rule="evenodd" clip-rule="evenodd" d="M11.3 13.3945C11.3 13.1184 11.5239 12.8945 11.8 12.8945H14.4667C14.7428 12.8945 14.9667 13.1184 14.9667 13.3945C14.9667 13.6707 14.7428 13.8945 14.4667 13.8945H11.8C11.5239 13.8945 11.3 13.6707 11.3 13.3945Z" fill="#60666B"/>
<path fill-rule="evenodd" clip-rule="evenodd" d="M9.90015 9.19922C9.90015 8.92308 10.124 8.69922 10.4001 8.69922H13.0668C13.3429 8.69922 13.5668 8.92308 13.5668 9.19922C13.5668 9.47536 13.3429 9.69922 13.0668 9.69922H10.4001C10.124 9.69922 9.90015 9.47536 9.90015 9.19922Z" fill="#60666B"/>
</svg>
