<svg width="24" height="24" viewBox="0 0 24 24" fill="none" xmlns="http://www.w3.org/2000/svg">
<path fill-rule="evenodd" clip-rule="evenodd" d="M21 6H3V18H21V6ZM3 5H21C21.5523 5 22 5.39175 22 5.875V18.125C22 18.6083 21.5523 19 21 19H3C2.44771 19 2 18.6083 2 18.125V5.875C2 5.39175 2.44771 5 3 5Z" fill="#60666B"/>
<path fill-rule="evenodd" clip-rule="evenodd" d="M6.25 8.66016C6.25 8.24594 6.58579 7.91016 7 7.91016H17C17.4142 7.91016 17.75 8.24594 17.75 8.66016V15.3268C17.75 15.741 17.4142 16.0768 17 16.0768H7C6.58579 16.0768 6.25 15.741 6.25 15.3268V8.66016ZM7.75 9.41016V14.5768H16.25V9.41016H7.75Z" fill="#60666B"/>
<path fill-rule="evenodd" clip-rule="evenodd" d="M6.37604 8.24421C6.60581 7.89956 7.07146 7.80643 7.4161 8.0362L12.0001 11.0922L16.5841 8.0362C16.9287 7.80643 17.3944 7.89956 17.6241 8.24421C17.8539 8.58886 17.7608 9.05451 17.4161 9.28427L12.4161 12.6176C12.1642 12.7856 11.836 12.7856 11.5841 12.6176L6.58405 9.28427C6.23941 9.05451 6.14628 8.58886 6.37604 8.24421Z" fill="#60666B"/>
</svg>
