<svg width="24" height="24" viewBox="0 0 24 24" fill="none" xmlns="http://www.w3.org/2000/svg">
<path fill-rule="evenodd" clip-rule="evenodd" d="M21 6H3V18H21V6ZM3 5H21C21.5523 5 22 5.39175 22 5.875V18.125C22 18.6083 21.5523 19 21 19H3C2.44771 19 2 18.6083 2 18.125V5.875C2 5.39175 2.44771 5 3 5Z" fill="#60666B"/>
<path fill-rule="evenodd" clip-rule="evenodd" d="M10.797 7.67052C11.026 7.60715 11.2679 7.71359 11.3758 7.92518C11.4922 8.15333 11.7285 8.3078 12 8.3078C12.2715 8.3078 12.5078 8.15333 12.6242 7.92518C12.7321 7.71359 12.974 7.60715 13.203 7.67052C13.9084 7.86579 14.5436 8.22815 15.0636 8.71163C15.2253 8.86204 15.2692 9.10077 15.1715 9.29889C15.1259 9.3915 15.1 9.49592 15.1 9.60779C15.1 9.99439 15.4134 10.3078 15.8 10.3078L15.8097 10.3077C16.0307 10.3046 16.2276 10.4469 16.2939 10.6578C16.4279 11.0846 16.5 11.5383 16.5 12.0078C16.5 12.3177 16.4686 12.6207 16.4087 12.9138C16.3573 13.1647 16.1248 13.3363 15.8699 13.3112C15.8469 13.309 15.8236 13.3078 15.8 13.3078C15.4134 13.3078 15.1 13.6212 15.1 14.0078C15.1 14.1801 15.1616 14.3367 15.2646 14.4587C15.4297 14.6545 15.4203 14.9434 15.2427 15.1279C14.7118 15.6796 14.0407 16.0965 13.2859 16.3212C13.025 16.3989 12.7499 16.2536 12.667 15.9943C12.5766 15.7115 12.3114 15.5078 12 15.5078C11.6886 15.5078 11.4234 15.7115 11.333 15.9943C11.2501 16.2536 10.975 16.3989 10.7141 16.3212C9.95927 16.0965 9.28822 15.6796 8.75731 15.1279C8.57972 14.9434 8.57028 14.6545 8.73543 14.4587C8.83839 14.3367 8.9 14.1801 8.9 14.0078C8.9 13.6212 8.5866 13.3078 8.2 13.3078C8.17639 13.3078 8.15307 13.309 8.13009 13.3112C7.87524 13.3363 7.64265 13.1647 7.59134 12.9138C7.53139 12.6207 7.5 12.3177 7.5 12.0078C7.5 11.5383 7.57208 11.0846 7.70614 10.6578C7.77238 10.4469 7.96926 10.3046 8.1903 10.3077L8.2 10.3078C8.5866 10.3078 8.9 9.99439 8.9 9.60779C8.9 9.49592 8.87412 9.3915 8.82846 9.29889C8.73079 9.10077 8.77469 8.86204 8.93645 8.71163C9.45641 8.22815 10.0916 7.86579 10.797 7.67052ZM9.85962 9.2383C9.88607 9.35747 9.9 9.48116 9.9 9.60779C9.9 10.4165 9.33534 11.0933 8.57878 11.2654C8.52721 11.5044 8.5 11.7527 8.5 12.0078C8.5 12.1189 8.50516 12.2287 8.51524 12.337C9.30351 12.4848 9.9 13.1766 9.9 14.0078C9.9 14.2516 9.84846 14.4838 9.75579 14.6937C10.0134 14.9092 10.3022 15.0882 10.6143 15.2229C10.9223 14.7903 11.4278 14.5078 12 14.5078C12.5722 14.5078 13.0777 14.7903 13.3857 15.2229C13.6978 15.0882 13.9866 14.9092 14.2442 14.6937C14.1515 14.4838 14.1 14.2516 14.1 14.0078C14.1 13.1766 14.6965 12.4848 15.4848 12.337C15.4948 12.2287 15.5 12.1189 15.5 12.0078C15.5 11.7527 15.4728 11.5044 15.4212 11.2654C14.6647 11.0933 14.1 10.4165 14.1 9.60779C14.1 9.48116 14.1139 9.35747 14.1404 9.2383C13.8759 9.03356 13.5815 8.86601 13.2651 8.74328C12.9542 9.0894 12.5029 9.3078 12 9.3078C11.4971 9.3078 11.0458 9.0894 10.7349 8.74328C10.4185 8.86601 10.1241 9.03356 9.85962 9.2383Z" fill="#60666B"/>
<path fill-rule="evenodd" clip-rule="evenodd" d="M10.1001 12.0094C10.1001 10.96 10.9508 10.1094 12.0001 10.1094C13.0494 10.1094 13.9001 10.96 13.9001 12.0094C13.9001 13.0587 13.0494 13.9094 12.0001 13.9094C10.9508 13.9094 10.1001 13.0587 10.1001 12.0094ZM12.0001 11.1094C11.503 11.1094 11.1001 11.5123 11.1001 12.0094C11.1001 12.5064 11.503 12.9094 12.0001 12.9094C12.4972 12.9094 12.9001 12.5064 12.9001 12.0094C12.9001 11.5123 12.4972 11.1094 12.0001 11.1094Z" fill="#60666B"/>
</svg>
