<svg width="24" height="24" viewBox="0 0 24 24" fill="none" xmlns="http://www.w3.org/2000/svg">
<path fill-rule="evenodd" clip-rule="evenodd" d="M21 6H3V18H21V6ZM3 5H21C21.5523 5 22 5.39175 22 5.875V18.125C22 18.6083 21.5523 19 21 19H3C2.44771 19 2 18.6083 2 18.125V5.875C2 5.39175 2.44771 5 3 5Z" fill="#60666B"/>
<path fill-rule="evenodd" clip-rule="evenodd" d="M9.86108 9.64733C9.86108 8.46139 10.8225 7.5 12.0084 7.5C13.1944 7.5 14.1557 8.46139 14.1557 9.64733C14.1557 10.8333 13.1944 11.7947 12.0084 11.7947C10.8225 11.7947 9.86108 10.8333 9.86108 9.64733ZM12.0084 8.5C11.3748 8.5 10.8611 9.01368 10.8611 9.64733C10.8611 10.281 11.3748 10.7947 12.0084 10.7947C12.6421 10.7947 13.1557 10.281 13.1557 9.64733C13.1557 9.01368 12.6421 8.5 12.0084 8.5Z" fill="#60666B"/>
<path fill-rule="evenodd" clip-rule="evenodd" d="M11.4632 12.207H12.5485C13.0617 12.207 13.4769 12.207 13.8134 12.2343C14.1603 12.2624 14.4672 12.322 14.7519 12.466C15.2026 12.694 15.5697 13.0581 15.7999 13.5067C15.9456 13.7906 16.0059 14.0966 16.0343 14.4418C16.0618 14.7763 16.0618 15.1889 16.0618 15.6979V16.0017C16.0618 16.2778 15.8379 16.5017 15.5618 16.5017H8.44995C8.17381 16.5017 7.94995 16.2778 7.94995 16.0017L7.94995 15.6979C7.94995 15.1889 7.94994 14.7763 7.97747 14.4418C8.00588 14.0966 8.0661 13.7906 8.21183 13.5067C8.44208 13.0581 8.80914 12.694 9.25977 12.466C9.54452 12.322 9.85143 12.2624 10.1983 12.2343C10.5348 12.207 10.9501 12.207 11.4632 12.207ZM9.71112 13.3584C9.44806 13.4915 9.23487 13.7034 9.10149 13.9633C9.04051 14.0821 8.99737 14.2411 8.9741 14.5238C8.95371 14.7716 8.95053 15.0804 8.95004 15.5017H15.0617C15.0612 15.0804 15.058 14.7716 15.0376 14.5238C15.0144 14.2411 14.9712 14.0821 14.9103 13.9633C14.7769 13.7034 14.5637 13.4915 14.3006 13.3584C14.1797 13.2972 14.0182 13.2542 13.7326 13.231C13.4412 13.2074 13.0667 13.207 12.5274 13.207H11.4843C10.9451 13.207 10.5705 13.2074 10.2791 13.231C9.99355 13.2542 9.83206 13.2972 9.71112 13.3584Z" fill="#60666B"/>
</svg>
