<?xml version="1.0" encoding="UTF-8"?>
<svg width="28px" height="32px" viewBox="0 0 28 32" version="1.1" xmlns="http://www.w3.org/2000/svg" xmlns:xlink="http://www.w3.org/1999/xlink">
    <!-- Generator: Sketch 64 (93537) - https://sketch.com -->
    <title>Excel备份</title>
    <desc>Created with Sketch.</desc>
    <g id="新闻详情" stroke="none" stroke-width="1" fill="none" fill-rule="evenodd">
        <g id="权限" transform="translate(-160.000000, -402.000000)">
            <g id="编组-5" transform="translate(136.000000, 366.000000)">
                <g id="Excel备份" transform="translate(24.000000, 36.000000)">
                    <path d="M1.19989854,-1.0658141e-14 L1.19989853,-1.0658141e-14 C0.556174654,0.0435821677 0.0436846035,0.554879417 2.98670179e-13,1.19710423 L2.98670179e-13,30.8028965 L2.98670179e-13,30.8028958 C0.0436832405,31.4451206 0.556174601,31.9564172 1.19989848,32 L26.4364651,32 L26.4364652,32 C27.080189,31.9564178 27.5926791,31.4451206 27.6363636,30.8028958 L27.6363636,6.98954961 L20.6305214,-1.0658141e-14 L1.19989854,-1.0658141e-14 Z" id="路径" fill="#62BB37" fill-rule="nonzero"></path>
                    <path d="M20.7032382,-1.76025861e-13 L20.7032382,5.67900661 L20.7032382,5.67900642 C20.7032382,6.38066852 21.2720485,6.94947886 21.9737106,6.94947886 C21.9737106,6.94947886 21.9737106,6.94947886 21.9737107,6.94947886 L27.6527173,6.94947886 L20.7032382,-1.76025861e-13 Z" id="路径" fill="#D9FFC8" fill-rule="nonzero"></path>
                    <polygon id="路径" fill="#FFFFFF" points="20.3636364 24.7272727 17.2954545 24.7272727 13.8181818 19.6848485 10.3409091 24.7272727 7.27272727 24.7272727 12.2840909 17.4545455 7.27272727 10.1818182 10.3409091 10.1818182 13.8181818 15.2242424 17.2954545 10.1818182 20.3636364 10.1818182 15.3522727 17.4545455 20.3636364 24.7272727"></polygon>
                </g>
            </g>
        </g>
    </g>
</svg>
