<?xml version="1.0" standalone="no"?><!DOCTYPE svg PUBLIC "-//W3C//DTD SVG 1.1//EN" "http://www.w3.org/Graphics/SVG/1.1/DTD/svg11.dtd"><svg class="icon" width="200px" height="200.00px" viewBox="0 0 1024 1024" version="1.1" xmlns="http://www.w3.org/2000/svg"><path fill="#1296db" d="M544 384h256l-256-256zM248 64H608l256 256v550.4c0 49.472-39.424 89.6-88 89.6h-528c-48.64 0-88-40.128-88-89.6V153.6c0-49.728 39.168-89.6 88-89.6M256 870.4h512V512l-168 179.2L512 601.6z m80-492.8c-48.64 0-88 40.128-88 89.6s39.424 89.6 88 89.6c48.64 0 88-40.128 88-89.6S384.576 377.6 336 377.6"  /></svg>