<?xml version="1.0" encoding="UTF-8"?>
<svg width="28px" height="32px" viewBox="0 0 28 32" version="1.1" xmlns="http://www.w3.org/2000/svg" xmlns:xlink="http://www.w3.org/1999/xlink">
    <!-- Generator: Sketch 64 (93537) - https://sketch.com -->
    <title>PDF</title>
    <desc>Created with Sketch.</desc>
    <g id="新闻详情" stroke="none" stroke-width="1" fill="none" fill-rule="evenodd">
        <g id="规章制度详情页" transform="translate(-237.000000, -991.000000)" fill-rule="nonzero">
            <g id="编组-6" transform="translate(213.000000, 989.000000)">
                <g id="PDF" transform="translate(24.000000, 2.000000)">
                    <path d="M1.56989334,0.335088087 L1.56989333,0.335088087 C0.936018401,0.378103622 0.431369427,0.882753241 0.388353196,1.51662817 L0.388353196,30.7375009 L0.388353196,30.7375001 C0.431368084,31.3713751 0.936018349,31.876024 1.56989328,31.9190402 L26.4203416,31.9190402 L26.4203416,31.9190402 C27.0542165,31.8760247 27.5588655,31.3713751 27.6018817,30.7375001 L27.6018817,7.23376309 L20.7032285,0.335088087 L1.56989334,0.335088087 Z" id="路径" fill="#F96262"></path>
                    <path d="M18.7735433,21.4211911 C17.7536577,21.3661034 16.7922602,20.9657997 15.9990158,20.2827127 C14.4710152,20.6242562 13.0563352,21.0796476 11.5831671,21.7039744 C10.4499609,23.7532355 9.37524275,24.7741935 8.41384522,24.7741935 C8.24569204,24.7741935 8.0190508,24.7154334 7.84724212,24.605258 C7.45244769,24.43265 7.22580645,24.0360189 7.22580645,23.5806275 C7.22580645,23.239084 7.28063901,22.3283013 10.8484108,20.7931917 C11.6416552,19.3131698 12.3215789,17.7780603 12.8296939,16.1878631 C12.3764115,15.2770804 11.4150139,13.1176439 12.0949377,11.9791656 C12.3215789,11.5825344 12.7748614,11.3548387 13.2281439,11.3548387 C13.6229383,11.3548387 13.9629002,11.5237742 14.1895414,11.8653177 C14.6976564,12.5484048 14.6428239,13.9696665 14.0213882,16.0189276 C14.5879913,17.1574059 15.3812357,18.1232763 16.3426332,18.9752988 C17.1358775,18.8063633 17.9291219,18.6925155 18.6638782,18.6925155 C20.41852,18.7476032 20.6451613,19.544538 20.6451613,20.0586895 C20.6415058,21.4211911 19.3986345,21.4211911 18.7735433,21.4211911 L18.7735433,21.4211911 Z M8.41384522,23.7532355 L8.52716584,23.6981479 C9.03528089,23.5292124 9.43373081,23.1289087 9.77369267,22.6735173 C9.14860151,22.8975405 8.75380708,23.2978442 8.41384522,23.7532355 L8.41384522,23.7532355 Z M13.3414645,12.5484048 L13.2281439,12.5484048 C13.1733113,12.5484048 13.1148232,12.5484048 13.0599907,12.6034924 C12.8918375,13.2278193 13.0051581,13.9109063 13.2866319,14.4801455 C13.5096177,13.8558186 13.5096177,13.2314918 13.3414645,12.5484048 L13.3414645,12.5484048 Z M13.5644502,17.9506683 L13.5644502,18.0645161 L13.5096177,18.0094285 C13.1696558,18.861451 12.8296939,19.717146 12.3764115,20.5691686 L12.4348995,20.5140809 L12.4348995,20.5691686 C13.2829764,20.2863852 14.0762208,19.9999294 14.9827857,19.8309939 L14.9279532,19.7759062 L15.0412738,19.7759062 C14.5295033,19.2580822 14.0177327,18.6337553 13.5644502,17.9506683 L13.5644502,17.9506683 Z M18.6602227,19.9411692 C18.3202608,19.9411692 18.038787,19.9411692 17.6988251,19.9962569 C18.0936196,20.1651924 18.4335814,20.2790402 18.8320314,20.2790402 C19.1135052,20.3341279 19.3401464,20.2790402 19.5667876,20.22028 C19.5119551,20.1688649 19.3986345,19.9411692 18.6602227,19.9411692 L18.6602227,19.9411692 Z" id="形状" fill="#FFFFFF"></path>
                    <path d="M20.7032382,0.335088087 L20.7032382,6.0140947 L20.7032382,6.0140945 C20.7032382,6.71575661 21.2720485,7.28456695 21.9737106,7.28456695 C21.9737106,7.28456695 21.9737106,7.28456695 21.9737107,7.28456695 L27.6527173,7.28456695 L20.7032382,0.335088087 Z" id="路径" fill="#FE9795"></path>
                </g>
            </g>
        </g>
    </g>
</svg>
