<?xml version="1.0" encoding="UTF-8"?>
<svg width="28px" height="32px" viewBox="0 0 28 32" version="1.1" xmlns="http://www.w3.org/2000/svg" xmlns:xlink="http://www.w3.org/1999/xlink">
    <!-- Generator: Sketch 64 (93537) - https://sketch.com -->
    <title>PPT</title>
    <desc>Created with Sketch.</desc>
    <g id="新闻详情" stroke="none" stroke-width="1" fill="none" fill-rule="evenodd">
        <g id="规章制度详情页" transform="translate(-237.000000, -1045.000000)" fill-rule="nonzero">
            <g id="编组-5" transform="translate(213.000000, 1043.000000)">
                <g id="PPT" transform="translate(24.000000, 2.000000)">
                    <path d="M1.56989334,0.335088087 L1.56989333,0.335088087 C0.936018401,0.378103622 0.431369427,0.882753241 0.388353196,1.51662817 L0.388353196,30.7375009 L0.388353196,30.7375001 C0.431368084,31.3713751 0.936018349,31.876024 1.56989328,31.9190402 L26.4203416,31.9190402 L26.4203416,31.9190402 C27.0542165,31.8760247 27.5588655,31.3713751 27.6018817,30.7375001 L27.6018817,7.23376309 L20.7032285,0.335088087 L1.56989334,0.335088087 Z" id="路径" fill="#FF8976"></path>
                    <path d="M16.1880324,10.3225806 C19.5685387,10.3225806 20.6451613,12.4936321 20.6451613,14.808832 C20.6451613,17.0151851 19.3012291,19.2583108 16.2293841,19.2583108 L10.623267,19.2583108 L10.623267,24.7741935 C10.3726515,25.4002901 9.8861119,25.7133384 9.16364825,25.7133384 C8.44118461,25.7133384 7.96777263,25.4002901 7.74341233,24.7741935 L7.74341233,11.7779221 C7.71997729,11.3970678 7.85359198,11.069024 8.1442564,10.7937908 C8.58025302,10.3809409 8.76803648,10.3225806 9.28034856,10.3225806 C10.8153894,10.3225806 13.1179507,10.3225806 16.1880324,10.3225806 Z M10.6217902,17.0151851 L15.2679557,17.0151851 C16.9175955,17.0151851 17.8037047,16.5386128 17.8037047,14.8456045 C17.8037047,13.080522 16.6118879,12.6392514 15.4983441,12.6392514 L10.6217902,12.6392514 L10.6217902,17.0151851 L10.6217902,17.0151851 Z" id="形状" fill="#FFFFFF"></path>
                    <path d="M20.7032382,0.335088087 L20.7032382,6.0140947 L20.7032382,6.0140945 C20.7032382,6.71575661 21.2720485,7.28456695 21.9737106,7.28456695 C21.9737106,7.28456695 21.9737106,7.28456695 21.9737107,7.28456695 L27.6527173,7.28456695 L20.7032382,0.335088087 Z" id="路径" fill="#FFD0C8"></path>
                </g>
            </g>
        </g>
    </g>
</svg>
