<?xml version="1.0" encoding="UTF-8"?>
<svg width="28px" height="32px" viewBox="0 0 28 32" version="1.1" xmlns="http://www.w3.org/2000/svg" xmlns:xlink="http://www.w3.org/1999/xlink">
    <!-- Generator: Sketch 64 (93537) - https://sketch.com -->
    <title>word</title>
    <desc>Created with Sketch.</desc>
    <g id="新闻详情" stroke="none" stroke-width="1" fill="none" fill-rule="evenodd">
        <g id="规章制度详情页" transform="translate(-237.000000, -1098.000000)" fill-rule="nonzero">
            <g id="编组-8" transform="translate(213.000000, 1096.000000)">
                <g id="word" transform="translate(24.000000, 2.000000)">
                    <path d="M1.56989334,0.335088087 L1.56989333,0.335088087 C0.936018401,0.378103622 0.431369427,0.882753241 0.388353196,1.51662817 L0.388353196,30.7375009 L0.388353196,30.7375001 C0.431368084,31.3713751 0.936018349,31.876024 1.56989328,31.9190402 L26.4203416,31.9190402 L26.4203416,31.9190402 C27.0542165,31.8760247 27.5588655,31.3713751 27.6018817,30.7375001 L27.6018817,7.23376309 L20.7032285,0.335088087 L1.56989334,0.335088087 Z" id="路径" fill="#2C97FF"></path>
                    <path d="M20.7032382,0.335088087 L20.7032382,6.0140947 L20.7032382,6.0140945 C20.7032382,6.71575661 21.2720485,7.28456695 21.9737106,7.28456695 C21.9737106,7.28456695 21.9737106,7.28456695 21.9737107,7.28456695 L27.6527173,7.28456695 L20.7032382,0.335088087 Z" id="路径" fill="#99D3FF"></path>
                    <path d="M21.0970774,23.800738 L21.0970773,23.800738 C20.7939118,23.8089407 20.5036799,23.6778688 20.3093829,23.4450053 L13.98244,16.8893525 L7.6300778,23.4831021 L7.63007779,23.4831021 C7.30234515,23.8250961 6.80060908,23.9354769 6.35960534,23.762606 L6.35960542,23.762606 C5.93245653,23.5997149 5.64966266,23.1906731 5.64814007,22.7335242 L5.64814007,11.7312211 L5.64814007,11.7312212 C5.64814007,11.1207754 6.14300517,10.6259103 6.75345104,10.6259103 C7.36389691,10.6259103 7.858762,11.1207754 7.858762,11.7312212 C7.858762,11.7312212 7.858762,11.7312212 7.858762,11.7312212 L7.858762,19.9765857 L13.1058004,14.5389664 L13.1058003,14.5389665 C13.3054773,14.3132901 13.5921622,14.1838209 13.8934948,14.1832338 L13.8934948,14.1832338 C14.1966604,14.1750311 14.4868923,14.306103 14.6811893,14.5389665 L19.8520018,19.9384889 L19.8520018,11.7312213 L19.8520018,11.7312214 C19.8520017,11.1207756 20.3468669,10.6259103 20.9573127,10.6259103 C21.5677586,10.6259103 22.0626237,11.1207756 22.0626237,11.7312214 C22.0626237,11.7312214 22.0626237,11.7312214 22.0626237,11.7312214 L22.0626237,22.7335246 L22.0626237,22.7335231 C22.0611016,23.190672 21.7783079,23.5997145 21.3511616,23.7626082 L21.3511616,23.7626082 C21.2335805,23.7843489 21.1130101,23.7843489 20.995429,23.7626082 L21.0970774,23.800738 Z" id="路径" fill="#FFFFFF"></path>
                </g>
            </g>
        </g>
    </g>
</svg>
