<svg width="24" height="24" viewBox="0 0 24 24" fill="none" xmlns="http://www.w3.org/2000/svg">
<path fill-rule="evenodd" clip-rule="evenodd" d="M12 21C16.9706 21 21 16.9706 21 12C21 7.02944 16.9706 3 12 3C7.02944 3 3 7.02944 3 12C3 16.9706 7.02944 21 12 21ZM22 12C22 17.5228 17.5228 22 12 22C6.47715 22 2 17.5228 2 12C2 6.47715 6.47715 2 12 2C17.5228 2 22 6.47715 22 12Z" fill="#60666B"/>
<path fill-rule="evenodd" clip-rule="evenodd" d="M7.22698 16.618C7.43133 16.7513 7.70199 16.7176 7.86746 16.5383L11.0541 13.0861L13.0957 15.8933C13.2035 16.0415 13.3836 16.1188 13.5653 16.0949C13.7469 16.071 13.901 15.9497 13.9667 15.7787L16.9667 7.97869C17.0573 7.74323 16.9583 7.47719 16.7358 7.35825C16.5133 7.23932 16.2371 7.30476 16.0916 7.51086L12.9118 12.0155L10.9161 9.02185C10.8146 8.86957 10.6379 8.78492 10.4556 8.80118C10.2733 8.81744 10.1145 8.932 10.0415 9.09984L7.04152 15.9998C6.94425 16.2236 7.02263 16.4848 7.22698 16.618ZM9.13662 13.6891L10.5928 10.3398L12.484 13.1766C12.5755 13.3137 12.7286 13.397 12.8934 13.3992C13.0582 13.4014 13.2135 13.3222 13.3085 13.1875L14.5903 11.3717L13.3635 14.5614L11.5044 12.0051C11.4164 11.884 11.2787 11.8088 11.1292 11.8001C10.9797 11.7913 10.8342 11.85 10.7327 11.9601L9.13662 13.6891Z" fill="#60666B"/>
<path fill-rule="evenodd" clip-rule="evenodd" d="M12 19.5C16.1421 19.5 19.5 16.1421 19.5 12C19.5 7.85786 16.1421 4.5 12 4.5C7.85786 4.5 4.5 7.85786 4.5 12C4.5 16.1421 7.85786 19.5 12 19.5ZM20.5 12C20.5 16.6944 16.6944 20.5 12 20.5C7.30558 20.5 3.5 16.6944 3.5 12C3.5 7.30558 7.30558 3.5 12 3.5C16.6944 3.5 20.5 7.30558 20.5 12Z" fill="#60666B"/>
</svg>
