<svg width="24" height="24" viewBox="0 0 24 24" fill="none" xmlns="http://www.w3.org/2000/svg">
<path fill-rule="evenodd" clip-rule="evenodd" d="M12 20.5C16.6944 20.5 20.5 16.6944 20.5 12C20.5 7.30558 16.6944 3.5 12 3.5C7.30558 3.5 3.5 7.30558 3.5 12C3.5 16.6944 7.30558 20.5 12 20.5ZM22 12C22 17.5228 17.5228 22 12 22C6.47715 22 2 17.5228 2 12C2 6.47715 6.47715 2 12 2C17.5228 2 22 6.47715 22 12Z" fill="#60666B"/>
<path fill-rule="evenodd" clip-rule="evenodd" d="M12 18.5C15.5899 18.5 18.5 15.5899 18.5 12C18.5 8.41015 15.5899 5.5 12 5.5C8.41015 5.5 5.5 8.41015 5.5 12C5.5 15.5899 8.41015 18.5 12 18.5ZM20 12C20 16.4183 16.4183 20 12 20C7.58172 20 4 16.4183 4 12C4 7.58172 7.58172 4 12 4C16.4183 4 20 7.58172 20 12Z" fill="#60666B"/>
<path fill-rule="evenodd" clip-rule="evenodd" d="M11.6207 7.32807C11.7895 7.03648 12.2105 7.03648 12.3793 7.32807L16.4404 14.3426C16.6095 14.6348 16.3987 15.0005 16.061 15.0005H7.93895C7.60132 15.0005 7.39047 14.6348 7.55964 14.3426L11.6207 7.32807Z" fill="#60666B"/>
<path fill-rule="evenodd" clip-rule="evenodd" d="M12 7.67083L15.954 14.5005H8.04599L12 7.67083ZM12.0534 7.57866L12.0534 7.57859ZM11.188 7.07755C11.5494 6.45329 12.4506 6.45335 12.812 7.07753L12.812 7.07755L16.8731 14.0921L16.8731 14.0921C17.2352 14.7176 16.7839 15.5005 16.0611 15.5005H7.93897C7.21616 15.5005 6.7648 14.7176 7.12693 14.0921L7.12694 14.0921L11.188 7.07756C11.188 7.07755 11.188 7.07755 11.188 7.07755Z" fill="#60666B"/>
</svg>
