<svg width="24" height="24" viewBox="0 0 24 24" fill="none" xmlns="http://www.w3.org/2000/svg">
<path fill-rule="evenodd" clip-rule="evenodd" d="M12 21C16.9706 21 21 16.9706 21 12C21 7.02944 16.9706 3 12 3C7.02944 3 3 7.02944 3 12C3 16.9706 7.02944 21 12 21ZM22 12C22 17.5228 17.5228 22 12 22C6.47715 22 2 17.5228 2 12C2 6.47715 6.47715 2 12 2C17.5228 2 22 6.47715 22 12Z" fill="#60666B"/>
<path fill-rule="evenodd" clip-rule="evenodd" d="M12 19.5C16.1421 19.5 19.5 16.1421 19.5 12C19.5 7.85786 16.1421 4.5 12 4.5C7.85786 4.5 4.5 7.85786 4.5 12C4.5 16.1421 7.85786 19.5 12 19.5ZM20.5 12C20.5 16.6944 16.6944 20.5 12 20.5C7.30558 20.5 3.5 16.6944 3.5 12C3.5 7.30558 7.30558 3.5 12 3.5C16.6944 3.5 20.5 7.30558 20.5 12Z" fill="#60666B"/>
<path fill-rule="evenodd" clip-rule="evenodd" d="M8.39645 7.14645C8.59171 6.95118 8.90829 6.95118 9.10355 7.14645L12 10.0429L14.8964 7.14645C15.0917 6.95118 15.4083 6.95118 15.6036 7.14645L16.8536 8.39645C17.0488 8.59171 17.0488 8.90829 16.8536 9.10355L13.9571 12L16.8536 14.8964C17.0488 15.0917 17.0488 15.4083 16.8536 15.6036L15.6036 16.8536C15.4083 17.0488 15.0917 17.0488 14.8964 16.8536L12 13.9571L9.10355 16.8536C8.90829 17.0488 8.59171 17.0488 8.39645 16.8536L7.14645 15.6036C6.95118 15.4083 6.95118 15.0917 7.14645 14.8964L10.0429 12L7.14645 9.10355C6.95118 8.90829 6.95118 8.59171 7.14645 8.39645L8.39645 7.14645ZM8.20711 8.75L11.1036 11.6464C11.2988 11.8417 11.2988 12.1583 11.1036 12.3536L8.20711 15.25L8.75 15.7929L11.6464 12.8964C11.8417 12.7012 12.1583 12.7012 12.3536 12.8964L15.25 15.7929L15.7929 15.25L12.8964 12.3536C12.7012 12.1583 12.7012 11.8417 12.8964 11.6464L15.7929 8.75L15.25 8.20711L12.3536 11.1036C12.1583 11.2988 11.8417 11.2988 11.6464 11.1036L8.75 8.20711L8.20711 8.75Z" fill="#60666B"/>
</svg>
