<svg width="24" height="24" viewBox="0 0 24 24" fill="none" xmlns="http://www.w3.org/2000/svg">
<path fill-rule="evenodd" clip-rule="evenodd" d="M12 21C16.9706 21 21 16.9706 21 12C21 7.02944 16.9706 3 12 3C7.02944 3 3 7.02944 3 12C3 16.9706 7.02944 21 12 21ZM22 12C22 17.5228 17.5228 22 12 22C6.47715 22 2 17.5228 2 12C2 6.47715 6.47715 2 12 2C17.5228 2 22 6.47715 22 12Z" fill="#60666B"/>
<path fill-rule="evenodd" clip-rule="evenodd" d="M12.0058 7.50199C12.0024 7.49934 11.9976 7.49934 11.9942 7.50199L11.6868 7.10764L11.9942 7.50199L7.50369 11.0023L7.50366 11.0024C7.5005 11.0048 7.49924 11.0091 7.50061 11.0129L7.03127 11.1805L7.50061 11.0129L9.29377 16.036C9.29511 16.0398 9.29865 16.0423 9.30264 16.0423H14.6974C14.7014 16.0423 14.7049 16.0398 14.7063 16.036L16.4994 11.0129C16.5008 11.0091 16.4996 11.0048 16.4964 11.0023M16.4964 11.0023L12.0058 7.50199C12.0058 7.50199 12.0058 7.50199 12.0058 7.50199M11.3795 6.71328C11.7443 6.42891 12.2558 6.42891 12.6206 6.71328L12.6206 6.71329L17.1112 10.2136L17.1112 10.2136C17.4546 10.4813 17.5876 10.939 17.4413 11.3491L17.4412 11.3491L15.6481 16.3722L15.1859 16.2073L15.6481 16.3722C15.5046 16.774 15.1241 17.0423 14.6974 17.0423H9.30264C8.87596 17.0423 8.49542 16.774 8.35198 16.3722L8.82288 16.2041L8.35198 16.3722L6.55882 11.3491L7.02971 11.181L6.55882 11.3491C6.41244 10.9391 6.54547 10.4813 6.8889 10.2136C6.88891 10.2136 6.88892 10.2136 6.88893 10.2136L11.3795 6.71329L11.3795 6.71328Z" fill="#60666B"/>
<path fill-rule="evenodd" clip-rule="evenodd" d="M12 19.5C16.1421 19.5 19.5 16.1421 19.5 12C19.5 7.85786 16.1421 4.5 12 4.5C7.85786 4.5 4.5 7.85786 4.5 12C4.5 16.1421 7.85786 19.5 12 19.5ZM20.5 12C20.5 16.6944 16.6944 20.5 12 20.5C7.30558 20.5 3.5 16.6944 3.5 12C3.5 7.30558 7.30558 3.5 12 3.5C16.6944 3.5 20.5 7.30558 20.5 12Z" fill="#60666B"/>
</svg>
