<svg width="24" height="24" viewBox="0 0 24 24" fill="none" xmlns="http://www.w3.org/2000/svg">
<path fill-rule="evenodd" clip-rule="evenodd" d="M12 21C16.9706 21 21 16.9706 21 12C21 7.02944 16.9706 3 12 3C7.02944 3 3 7.02944 3 12C3 16.9706 7.02944 21 12 21ZM22 12C22 17.5228 17.5228 22 12 22C6.47715 22 2 17.5228 2 12C2 6.47715 6.47715 2 12 2C17.5228 2 22 6.47715 22 12Z" fill="#60666B"/>
<path fill-rule="evenodd" clip-rule="evenodd" d="M12 19.5C16.1421 19.5 19.5 16.1421 19.5 12C19.5 7.85786 16.1421 4.5 12 4.5C7.85786 4.5 4.5 7.85786 4.5 12C4.5 16.1421 7.85786 19.5 12 19.5ZM20.5 12C20.5 16.6944 16.6944 20.5 12 20.5C7.30558 20.5 3.5 16.6944 3.5 12C3.5 7.30558 7.30558 3.5 12 3.5C16.6944 3.5 20.5 7.30558 20.5 12Z" fill="#60666B"/>
<path fill-rule="evenodd" clip-rule="evenodd" d="M11.9999 7C9.23851 7 7 9.23851 7 11.9999C7 14.7612 9.23851 16.9997 11.9999 16.9997C14.7612 16.9997 16.9997 14.7612 16.9997 11.9999C16.9997 9.23851 14.7612 7 11.9999 7ZM6 11.9999C6 8.68623 8.68623 6 11.9999 6C15.3135 6 17.9997 8.68623 17.9997 11.9999C17.9997 15.3135 15.3135 17.9997 11.9999 17.9997C8.68623 17.9997 6 15.3135 6 11.9999Z" fill="#60666B"/>
<path fill-rule="evenodd" clip-rule="evenodd" d="M12 16.0859C12.2761 16.0859 12.5 16.3098 12.5 16.5859V17.5026C12.5 17.7787 12.2761 18.0026 12 18.0026C11.7239 18.0026 11.5 17.7787 11.5 17.5026V16.5859C11.5 16.3098 11.7239 16.0859 12 16.0859Z" fill="#60666B"/>
<path fill-rule="evenodd" clip-rule="evenodd" d="M16.0833 12C16.0833 11.7239 16.3071 11.5 16.5833 11.5H17.4999C17.776 11.5 17.9999 11.7239 17.9999 12C17.9999 12.2761 17.776 12.5 17.4999 12.5H16.5833C16.3071 12.5 16.0833 12.2761 16.0833 12Z" fill="#60666B"/>
<path fill-rule="evenodd" clip-rule="evenodd" d="M6 12C6 11.7239 6.22386 11.5 6.5 11.5H7.41664C7.69278 11.5 7.91664 11.7239 7.91664 12C7.91664 12.2761 7.69278 12.5 7.41664 12.5H6.5C6.22386 12.5 6 12.2761 6 12Z" fill="#60666B"/>
<path fill-rule="evenodd" clip-rule="evenodd" d="M12 6C12.2761 6 12.5 6.22386 12.5 6.5V7.41664C12.5 7.69278 12.2761 7.91664 12 7.91664C11.7239 7.91664 11.5 7.69278 11.5 7.41664V6.5C11.5 6.22386 11.7239 6 12 6Z" fill="#60666B"/>
<path fill-rule="evenodd" clip-rule="evenodd" d="M9.9584 15.5352C10.1975 15.6732 10.2795 15.979 10.1414 16.2182L9.68309 17.012C9.54502 17.2512 9.23923 17.3331 9.00008 17.195C8.76094 17.0569 8.679 16.7512 8.81707 16.512L9.27539 15.7182C9.41346 15.479 9.71926 15.3971 9.9584 15.5352Z" fill="#60666B"/>
<path fill-rule="evenodd" clip-rule="evenodd" d="M15.5361 14.0385C15.6742 13.7993 15.98 13.7174 16.2191 13.8555L17.013 14.3138C17.2521 14.4519 17.3341 14.7577 17.196 14.9968C17.0579 15.2359 16.7521 15.3179 16.513 15.1798L15.7191 14.7215C15.48 14.5834 15.3981 14.2776 15.5361 14.0385Z" fill="#60666B"/>
<path fill-rule="evenodd" clip-rule="evenodd" d="M6.80371 8.99942C6.94178 8.76027 7.24758 8.67834 7.48672 8.81641L8.28056 9.27473C8.51971 9.4128 8.60164 9.71859 8.46357 9.95774C8.3255 10.1969 8.01971 10.2788 7.78056 10.1408L6.98672 9.68243C6.74758 9.54436 6.66564 9.23857 6.80371 8.99942Z" fill="#60666B"/>
<path fill-rule="evenodd" clip-rule="evenodd" d="M14.9999 6.80469C15.2391 6.94276 15.321 7.24855 15.1829 7.4877L14.7246 8.28154C14.5865 8.52068 14.2807 8.60262 14.0416 8.46455C13.8024 8.32648 13.7205 8.02068 13.8586 7.78154L14.3169 6.9877C14.455 6.74855 14.7608 6.66662 14.9999 6.80469Z" fill="#60666B"/>
<path fill-rule="evenodd" clip-rule="evenodd" d="M8.46362 14.0385C8.60169 14.2776 8.51976 14.5834 8.28061 14.7215L7.48677 15.1798C7.24763 15.3179 6.94183 15.2359 6.80376 14.9968C6.66569 14.7577 6.74763 14.4519 6.98677 14.3138L7.78061 13.8555C8.01976 13.7174 8.32555 13.7993 8.46362 14.0385Z" fill="#60666B"/>
<path fill-rule="evenodd" clip-rule="evenodd" d="M14.0423 15.5352C14.2815 15.3971 14.5873 15.479 14.7253 15.7182L15.1837 16.512C15.3217 16.7512 15.2398 17.0569 15.0007 17.195C14.7615 17.3331 14.4557 17.2512 14.3176 17.012L13.8593 16.2182C13.7212 15.979 13.8032 15.6732 14.0423 15.5352Z" fill="#60666B"/>
<path fill-rule="evenodd" clip-rule="evenodd" d="M9.00058 6.80469C9.23973 6.66662 9.54552 6.74855 9.68359 6.9877L10.1419 7.78154C10.28 8.02068 10.198 8.32648 9.9589 8.46455C9.71976 8.60262 9.41396 8.52068 9.27589 8.28154L8.81757 7.4877C8.6795 7.24855 8.76143 6.94276 9.00058 6.80469Z" fill="#60666B"/>
<path fill-rule="evenodd" clip-rule="evenodd" d="M17.1963 8.99942C17.3344 9.23857 17.2524 9.54436 17.0133 9.68243L16.2194 10.1408C15.9803 10.2788 15.6745 10.1969 15.5364 9.95774C15.3984 9.71859 15.4803 9.4128 15.7194 9.27473L16.5133 8.81641C16.7524 8.67834 17.0582 8.76027 17.1963 8.99942Z" fill="#60666B"/>
<path fill-rule="evenodd" clip-rule="evenodd" d="M12.0026 8.19922C12.2787 8.19925 12.5026 8.42313 12.5025 8.69927L12.5022 11.7945L14.6875 13.9798C14.8828 14.175 14.8828 14.4916 14.6875 14.6869C14.4923 14.8821 14.1757 14.8821 13.9804 14.6869L11.6486 12.3551C11.5549 12.2613 11.5022 12.1341 11.5022 12.0015L11.5025 8.69917C11.5026 8.42303 11.7264 8.19919 12.0026 8.19922Z" fill="#60666B"/>
</svg>
