<svg width="24" height="24" viewBox="0 0 24 24" fill="none" xmlns="http://www.w3.org/2000/svg">
<path fill-rule="evenodd" clip-rule="evenodd" d="M12 21C16.9706 21 21 16.9706 21 12C21 7.02944 16.9706 3 12 3C7.02944 3 3 7.02944 3 12C3 16.9706 7.02944 21 12 21ZM22 12C22 17.5228 17.5228 22 12 22C6.47715 22 2 17.5228 2 12C2 6.47715 6.47715 2 12 2C17.5228 2 22 6.47715 22 12Z" fill="#60666B"/>
<path fill-rule="evenodd" clip-rule="evenodd" d="M12 19.5C16.1421 19.5 19.5 16.1421 19.5 12C19.5 7.85786 16.1421 4.5 12 4.5C7.85786 4.5 4.5 7.85786 4.5 12C4.5 16.1421 7.85786 19.5 12 19.5ZM20.5 12C20.5 16.6944 16.6944 20.5 12 20.5C7.30558 20.5 3.5 16.6944 3.5 12C3.5 7.30558 7.30558 3.5 12 3.5C16.6944 3.5 20.5 7.30558 20.5 12Z" fill="#60666B"/>
<path fill-rule="evenodd" clip-rule="evenodd" d="M10.5 7C10.5 6.72386 10.7239 6.5 11 6.5H13C13.2761 6.5 13.5 6.72386 13.5 7V10.5H17C17.2761 10.5 17.5 10.7239 17.5 11V13C17.5 13.2761 17.2761 13.5 17 13.5H13.5V17C13.5 17.2761 13.2761 17.5 13 17.5H11C10.7239 17.5 10.5 17.2761 10.5 17V13.5H7C6.72386 13.5 6.5 13.2761 6.5 13V11C6.5 10.7239 6.72386 10.5 7 10.5H10.5V7ZM11.5 7.5V11C11.5 11.2761 11.2761 11.5 11 11.5H7.5V12.5H11C11.2761 12.5 11.5 12.7239 11.5 13V16.5H12.5V13C12.5 12.7239 12.7239 12.5 13 12.5H16.5V11.5H13C12.7239 11.5 12.5 11.2761 12.5 11V7.5H11.5Z" fill="#60666B"/>
</svg>
