<svg width="24" height="24" viewBox="0 0 24 24" fill="none" xmlns="http://www.w3.org/2000/svg">
<path fill-rule="evenodd" clip-rule="evenodd" d="M12 21C16.9706 21 21 16.9706 21 12C21 7.02944 16.9706 3 12 3C7.02944 3 3 7.02944 3 12C3 16.9706 7.02944 21 12 21ZM22 12C22 17.5228 17.5228 22 12 22C6.47715 22 2 17.5228 2 12C2 6.47715 6.47715 2 12 2C17.5228 2 22 6.47715 22 12Z" fill="#60666B"/>
<path fill-rule="evenodd" clip-rule="evenodd" d="M15.5999 7C15.876 7 16.0999 7.22386 16.0999 7.5L16.0999 16.5C16.0999 16.7761 15.876 17 15.5999 17L8.39985 17C8.12371 17 7.89985 16.7761 7.89985 16.5L7.89985 7.5C7.89985 7.22386 8.12371 7 8.39985 7L15.5999 7ZM15.0999 8L8.89985 8L8.89985 16L15.0999 16L15.0999 8Z" fill="#60666B"/>
<path fill-rule="evenodd" clip-rule="evenodd" d="M9.69995 11.1016C9.69995 10.8254 9.92381 10.6016 10.2 10.6016H12C12.2761 10.6016 12.5 10.8254 12.5 11.1016C12.5 11.3777 12.2761 11.6016 12 11.6016H10.2C9.92381 11.6016 9.69995 11.3777 9.69995 11.1016Z" fill="#60666B"/>
<path fill-rule="evenodd" clip-rule="evenodd" d="M9.69995 12.8984C9.69995 12.6223 9.92381 12.3984 10.2 12.3984H12.9C13.1761 12.3984 13.4 12.6223 13.4 12.8984C13.4 13.1746 13.1761 13.3984 12.9 13.3984H10.2C9.92381 13.3984 9.69995 13.1746 9.69995 12.8984Z" fill="#60666B"/>
<path fill-rule="evenodd" clip-rule="evenodd" d="M9.69995 14.6992C9.69995 14.4231 9.92381 14.1992 10.2 14.1992H12C12.2761 14.1992 12.5 14.4231 12.5 14.6992C12.5 14.9754 12.2761 15.1992 12 15.1992H10.2C9.92381 15.1992 9.69995 14.9754 9.69995 14.6992Z" fill="#60666B"/>
<path fill-rule="evenodd" clip-rule="evenodd" d="M9.69995 9.30078C9.69995 9.02464 9.92381 8.80078 10.2 8.80078H13.8C14.0761 8.80078 14.3 9.02464 14.3 9.30078C14.3 9.57692 14.0761 9.80078 13.8 9.80078H10.2C9.92381 9.80078 9.69995 9.57692 9.69995 9.30078Z" fill="#60666B"/>
<path fill-rule="evenodd" clip-rule="evenodd" d="M12 19.5C16.1421 19.5 19.5 16.1421 19.5 12C19.5 7.85786 16.1421 4.5 12 4.5C7.85786 4.5 4.5 7.85786 4.5 12C4.5 16.1421 7.85786 19.5 12 19.5ZM20.5 12C20.5 16.6944 16.6944 20.5 12 20.5C7.30558 20.5 3.5 16.6944 3.5 12C3.5 7.30558 7.30558 3.5 12 3.5C16.6944 3.5 20.5 7.30558 20.5 12Z" fill="#60666B"/>
</svg>
