<svg width="24" height="24" viewBox="0 0 24 24" fill="none" xmlns="http://www.w3.org/2000/svg">
<path fill-rule="evenodd" clip-rule="evenodd" d="M12 21C16.9706 21 21 16.9706 21 12C21 7.02944 16.9706 3 12 3C7.02944 3 3 7.02944 3 12C3 16.9706 7.02944 21 12 21ZM22 12C22 17.5228 17.5228 22 12 22C6.47715 22 2 17.5228 2 12C2 6.47715 6.47715 2 12 2C17.5228 2 22 6.47715 22 12Z" fill="#60666B"/>
<path fill-rule="evenodd" clip-rule="evenodd" d="M12.1287 8.54637C12.2845 8.45734 12.476 8.4586 12.6306 8.54966L17.7538 11.5675C17.9063 11.6574 18 11.8212 18 11.9983C18 12.1754 17.9063 12.3392 17.7538 12.4291L12.6306 15.4469C12.476 15.538 12.2845 15.5393 12.1287 15.4502C11.973 15.3612 11.8768 15.1955 11.8768 15.0161V13.6101H6.5C6.22386 13.6101 6 13.3863 6 13.1101V10.8865C6 10.6103 6.22386 10.3865 6.5 10.3865H11.8768V8.98047C11.8768 8.80106 11.973 8.6354 12.1287 8.54637ZM12.8768 9.8553V10.8865C12.8768 11.1626 12.653 11.3865 12.3768 11.3865H7V12.6101H12.3768C12.653 12.6101 12.8768 12.834 12.8768 13.1101V14.1413L16.5149 11.9983L12.8768 9.8553Z" fill="#60666B"/>
<path fill-rule="evenodd" clip-rule="evenodd" d="M12 19.5C16.1421 19.5 19.5 16.1421 19.5 12C19.5 7.85786 16.1421 4.5 12 4.5C7.85786 4.5 4.5 7.85786 4.5 12C4.5 16.1421 7.85786 19.5 12 19.5ZM20.5 12C20.5 16.6944 16.6944 20.5 12 20.5C7.30558 20.5 3.5 16.6944 3.5 12C3.5 7.30558 7.30558 3.5 12 3.5C16.6944 3.5 20.5 7.30558 20.5 12Z" fill="#60666B"/>
</svg>
