<svg width="24" height="24" viewBox="0 0 24 24" fill="none" xmlns="http://www.w3.org/2000/svg">
<path fill-rule="evenodd" clip-rule="evenodd" d="M12 20.5C16.6944 20.5 20.5 16.6944 20.5 12C20.5 7.30558 16.6944 3.5 12 3.5C7.30558 3.5 3.5 7.30558 3.5 12C3.5 16.6944 7.30558 20.5 12 20.5ZM22 12C22 17.5228 17.5228 22 12 22C6.47715 22 2 17.5228 2 12C2 6.47715 6.47715 2 12 2C17.5228 2 22 6.47715 22 12Z" fill="#60666B"/>
<path fill-rule="evenodd" clip-rule="evenodd" d="M12 18.5C15.5899 18.5 18.5 15.5899 18.5 12C18.5 8.41015 15.5899 5.5 12 5.5C8.41015 5.5 5.5 8.41015 5.5 12C5.5 15.5899 8.41015 18.5 12 18.5ZM20 12C20 16.4183 16.4183 20 12 20C7.58172 20 4 16.4183 4 12C4 7.58172 7.58172 4 12 4C16.4183 4 20 7.58172 20 12Z" fill="#60666B"/>
<path d="M7.5 15H16.5V12V9H12H7.5V12V15Z" fill="#60666B"/>
<path fill-rule="evenodd" clip-rule="evenodd" d="M7 9C7 8.72386 7.22386 8.5 7.5 8.5H16.5C16.7761 8.5 17 8.72386 17 9V15C17 15.2761 16.7761 15.5 16.5 15.5H7.5C7.22386 15.5 7 15.2761 7 15V9ZM8 9.5V14.5H16V9.5H8Z" fill="#60666B"/>
<path fill-rule="evenodd" clip-rule="evenodd" d="M7.08403 8.7227C7.2372 8.49294 7.54764 8.43085 7.7774 8.58403L12.0001 11.3991L16.2227 8.58403C16.4525 8.43085 16.7629 8.49294 16.9161 8.7227C17.0693 8.95247 17.0072 9.2629 16.7774 9.41608L12.2774 12.4161C12.1095 12.528 11.8907 12.528 11.7227 12.4161L7.2227 9.41608C6.99294 9.2629 6.93085 8.95247 7.08403 8.7227Z" fill="white"/>
</svg>
