<svg width="24" height="24" viewBox="0 0 24 24" fill="none" xmlns="http://www.w3.org/2000/svg">
<path fill-rule="evenodd" clip-rule="evenodd" d="M12 20.5C16.6944 20.5 20.5 16.6944 20.5 12C20.5 7.30558 16.6944 3.5 12 3.5C7.30558 3.5 3.5 7.30558 3.5 12C3.5 16.6944 7.30558 20.5 12 20.5ZM22 12C22 17.5228 17.5228 22 12 22C6.47715 22 2 17.5228 2 12C2 6.47715 6.47715 2 12 2C17.5228 2 22 6.47715 22 12Z" fill="#60666B"/>
<path fill-rule="evenodd" clip-rule="evenodd" d="M12 18.5C15.5899 18.5 18.5 15.5899 18.5 12C18.5 8.41015 15.5899 5.5 12 5.5C8.41015 5.5 5.5 8.41015 5.5 12C5.5 15.5899 8.41015 18.5 12 18.5ZM20 12C20 16.4183 16.4183 20 12 20C7.58172 20 4 16.4183 4 12C4 7.58172 7.58172 4 12 4C16.4183 4 20 7.58172 20 12Z" fill="#60666B"/>
<path d="M12 7.5L8 15.5L12 12.1318L16 15.5L12 7.5Z" fill="#60666B"/>
<path fill-rule="evenodd" clip-rule="evenodd" d="M12 7C12.1894 7 12.3626 7.107 12.4472 7.27639L16.4472 15.2764C16.5533 15.4885 16.4958 15.746 16.3095 15.8927C16.1232 16.0395 15.8594 16.0352 15.678 15.8825L12 12.7855L8.32209 15.8825C8.14067 16.0352 7.8769 16.0395 7.6906 15.8927C7.50431 15.746 7.44676 15.4885 7.55282 15.2764L11.5528 7.27639C11.6375 7.107 11.8106 7 12 7ZM9.53005 13.558L11.678 11.7494C11.8641 11.5926 12.136 11.5926 12.3221 11.7494L14.47 13.558L12 8.61803L9.53005 13.558Z" fill="#60666B"/>
</svg>
